<svg width="297" height="500" viewBox="0 0 297 500" fill="none" xmlns="http://www.w3.org/2000/svg">
<g clip-path="url(#clip0_408_7326)" filter="url(#filter0_d_408_7326)">
<rect width="295" height="74" transform="translate(1)" fill="#006FCF"/>
<path d="M25 35.7627L34.0063 26.7563C34.348 26.4146 34.902 26.4146 35.2437 26.7563C35.5641 27.0766 35.5841 27.5836 35.3038 27.9273L35.2437 27.9937L26.2372 37L35.2437 46.0063C35.5641 46.3266 35.5841 46.8336 35.3038 47.1773L35.2437 47.2437C34.9234 47.5641 34.4164 47.5841 34.0727 47.3038L34.0063 47.2437L25 38.2372L15.9937 47.2437C15.6734 47.5641 15.1664 47.5841 14.8227 47.3038L14.7563 47.2437C14.4359 46.9234 14.4159 46.4164 14.6962 46.0727L14.7563 46.0063L23.7627 37L14.7563 27.9937C14.4359 27.6734 14.4159 27.1664 14.6962 26.8227L14.7563 26.7563C15.0766 26.4359 15.5836 26.4159 15.9273 26.6962L15.9937 26.7563L25 35.7627L34.0063 26.7563L25 35.7627Z" fill="white"/>
<path d="M60.035 32.29H67.565V34.27H62.39V36.745H66.875V38.575H62.39V43H60.035V32.29ZM70.8916 34.045H68.7616V32.29H70.8916V34.045ZM68.7616 35.245H70.8916V43H68.7616V35.245ZM72.6288 32.29H74.7588V43H72.6288V32.29ZM79.136 35.245H80.696V36.67H79.136V40.51C79.136 40.87 79.196 41.11 79.316 41.23C79.436 41.35 79.676 41.41 80.036 41.41C80.156 41.41 80.271 41.405 80.381 41.395C80.491 41.385 80.596 41.37 80.696 41.35V43C80.516 43.03 80.316 43.05 80.096 43.06C79.876 43.07 79.661 43.075 79.451 43.075C79.121 43.075 78.806 43.05 78.506 43C78.216 42.96 77.956 42.875 77.726 42.745C77.506 42.615 77.331 42.43 77.201 42.19C77.071 41.95 77.006 41.635 77.006 41.245V36.67H75.716V35.245H77.006V32.92H79.136V35.245ZM86.9294 38.29C86.8294 37.75 86.6494 37.34 86.3894 37.06C86.1394 36.78 85.7544 36.64 85.2344 36.64C84.8944 36.64 84.6094 36.7 84.3794 36.82C84.1594 36.93 83.9794 37.07 83.8394 37.24C83.7094 37.41 83.6144 37.59 83.5544 37.78C83.5044 37.97 83.4744 38.14 83.4644 38.29H86.9294ZM83.4644 39.64C83.4944 40.33 83.6694 40.83 83.9894 41.14C84.3094 41.45 84.7694 41.605 85.3694 41.605C85.7994 41.605 86.1694 41.5 86.4794 41.29C86.7894 41.07 86.9794 40.84 87.0494 40.6H88.9244C88.6244 41.53 88.1644 42.195 87.5444 42.595C86.9244 42.995 86.1744 43.195 85.2944 43.195C84.6844 43.195 84.1344 43.1 83.6444 42.91C83.1544 42.71 82.7394 42.43 82.3994 42.07C82.0594 41.71 81.7944 41.28 81.6044 40.78C81.4244 40.28 81.3344 39.73 81.3344 39.13C81.3344 38.55 81.4294 38.01 81.6194 37.51C81.8094 37.01 82.0794 36.58 82.4294 36.22C82.7794 35.85 83.1944 35.56 83.6744 35.35C84.1644 35.14 84.7044 35.035 85.2944 35.035C85.9544 35.035 86.5294 35.165 87.0194 35.425C87.5094 35.675 87.9094 36.015 88.2194 36.445C88.5394 36.875 88.7694 37.365 88.9094 37.915C89.0494 38.465 89.0994 39.04 89.0594 39.64H83.4644ZM90.3227 35.245H92.3477V36.685H92.3777C92.4777 36.445 92.6127 36.225 92.7827 36.025C92.9527 35.815 93.1477 35.64 93.3677 35.5C93.5877 35.35 93.8227 35.235 94.0727 35.155C94.3227 35.075 94.5827 35.035 94.8527 35.035C94.9927 35.035 95.1477 35.06 95.3177 35.11V37.09C95.2177 37.07 95.0977 37.055 94.9577 37.045C94.8177 37.025 94.6827 37.015 94.5527 37.015C94.1627 37.015 93.8327 37.08 93.5627 37.21C93.2927 37.34 93.0727 37.52 92.9027 37.75C92.7427 37.97 92.6277 38.23 92.5577 38.53C92.4877 38.83 92.4527 39.155 92.4527 39.505V43H90.3227V35.245ZM106.013 39.13C106.013 38.8 105.978 38.485 105.908 38.185C105.838 37.885 105.728 37.62 105.578 37.39C105.428 37.16 105.238 36.98 105.008 36.85C104.788 36.71 104.518 36.64 104.198 36.64C103.888 36.64 103.618 36.71 103.388 36.85C103.158 36.98 102.968 37.16 102.818 37.39C102.668 37.62 102.558 37.885 102.488 38.185C102.418 38.485 102.383 38.8 102.383 39.13C102.383 39.45 102.418 39.76 102.488 40.06C102.558 40.36 102.668 40.625 102.818 40.855C102.968 41.085 103.158 41.27 103.388 41.41C103.618 41.54 103.888 41.605 104.198 41.605C104.518 41.605 104.788 41.54 105.008 41.41C105.238 41.27 105.428 41.085 105.578 40.855C105.728 40.625 105.838 40.36 105.908 40.06C105.978 39.76 106.013 39.45 106.013 39.13ZM100.328 32.29H102.458V36.19H102.488C102.748 35.79 103.098 35.5 103.538 35.32C103.988 35.13 104.453 35.035 104.933 35.035C105.323 35.035 105.708 35.115 106.088 35.275C106.468 35.435 106.808 35.68 107.108 36.01C107.418 36.34 107.668 36.765 107.858 37.285C108.048 37.795 108.143 38.405 108.143 39.115C108.143 39.825 108.048 40.44 107.858 40.96C107.668 41.47 107.418 41.89 107.108 42.22C106.808 42.55 106.468 42.795 106.088 42.955C105.708 43.115 105.323 43.195 104.933 43.195C104.363 43.195 103.853 43.105 103.403 42.925C102.953 42.745 102.613 42.44 102.383 42.01H102.353V43H100.328V32.29ZM113.323 43.96C113.093 44.59 112.773 45.04 112.363 45.31C111.953 45.58 111.383 45.715 110.653 45.715C110.433 45.715 110.213 45.705 109.993 45.685C109.783 45.675 109.568 45.66 109.348 45.64V43.885C109.548 43.905 109.753 43.925 109.963 43.945C110.173 43.965 110.383 43.97 110.593 43.96C110.873 43.93 111.078 43.82 111.208 43.63C111.348 43.44 111.418 43.23 111.418 43C111.418 42.83 111.388 42.67 111.328 42.52L108.612 35.245H110.878L112.633 40.555H112.663L114.358 35.245H116.563L113.323 43.96ZM119.736 37.69H117.381V35.38H119.736V37.69ZM117.381 40.69H119.736V43H117.381V40.69ZM132.99 35.89C132.95 35.62 132.86 35.375 132.72 35.155C132.58 34.925 132.405 34.725 132.195 34.555C131.985 34.385 131.745 34.255 131.475 34.165C131.215 34.065 130.94 34.015 130.65 34.015C130.12 34.015 129.67 34.12 129.3 34.33C128.93 34.53 128.63 34.805 128.4 35.155C128.17 35.495 128 35.885 127.89 36.325C127.79 36.765 127.74 37.22 127.74 37.69C127.74 38.14 127.79 38.58 127.89 39.01C128 39.43 128.17 39.81 128.4 40.15C128.63 40.49 128.93 40.765 129.3 40.975C129.67 41.175 130.12 41.275 130.65 41.275C131.37 41.275 131.93 41.055 132.33 40.615C132.74 40.175 132.99 39.595 133.08 38.875H135.36C135.3 39.545 135.145 40.15 134.895 40.69C134.645 41.23 134.315 41.69 133.905 42.07C133.495 42.45 133.015 42.74 132.465 42.94C131.915 43.14 131.31 43.24 130.65 43.24C129.83 43.24 129.09 43.1 128.43 42.82C127.78 42.53 127.23 42.135 126.78 41.635C126.33 41.135 125.985 40.55 125.745 39.88C125.505 39.2 125.385 38.47 125.385 37.69C125.385 36.89 125.505 36.15 125.745 35.47C125.985 34.78 126.33 34.18 126.78 33.67C127.23 33.16 127.78 32.76 128.43 32.47C129.09 32.18 129.83 32.035 130.65 32.035C131.24 32.035 131.795 32.12 132.315 32.29C132.845 32.46 133.315 32.71 133.725 33.04C134.145 33.36 134.49 33.76 134.76 34.24C135.03 34.72 135.2 35.27 135.27 35.89H132.99ZM138.634 39.13C138.634 39.44 138.664 39.745 138.724 40.045C138.784 40.335 138.884 40.6 139.024 40.84C139.174 41.07 139.369 41.255 139.609 41.395C139.849 41.535 140.149 41.605 140.509 41.605C140.869 41.605 141.169 41.535 141.409 41.395C141.659 41.255 141.854 41.07 141.994 40.84C142.144 40.6 142.249 40.335 142.309 40.045C142.369 39.745 142.399 39.44 142.399 39.13C142.399 38.82 142.369 38.515 142.309 38.215C142.249 37.915 142.144 37.65 141.994 37.42C141.854 37.19 141.659 37.005 141.409 36.865C141.169 36.715 140.869 36.64 140.509 36.64C140.149 36.64 139.849 36.715 139.609 36.865C139.369 37.005 139.174 37.19 139.024 37.42C138.884 37.65 138.784 37.915 138.724 38.215C138.664 38.515 138.634 38.82 138.634 39.13ZM136.504 39.13C136.504 38.51 136.599 37.95 136.789 37.45C136.979 36.94 137.249 36.51 137.599 36.16C137.949 35.8 138.369 35.525 138.859 35.335C139.349 35.135 139.899 35.035 140.509 35.035C141.119 35.035 141.669 35.135 142.159 35.335C142.659 35.525 143.084 35.8 143.434 36.16C143.784 36.51 144.054 36.94 144.244 37.45C144.434 37.95 144.529 38.51 144.529 39.13C144.529 39.75 144.434 40.31 144.244 40.81C144.054 41.31 143.784 41.74 143.434 42.1C143.084 42.45 142.659 42.72 142.159 42.91C141.669 43.1 141.119 43.195 140.509 43.195C139.899 43.195 139.349 43.1 138.859 42.91C138.369 42.72 137.949 42.45 137.599 42.1C137.249 41.74 136.979 41.31 136.789 40.81C136.599 40.31 136.504 39.75 136.504 39.13ZM153.189 43H151.164V41.92H151.119C150.849 42.37 150.499 42.695 150.069 42.895C149.639 43.095 149.199 43.195 148.749 43.195C148.179 43.195 147.709 43.12 147.339 42.97C146.979 42.82 146.694 42.61 146.484 42.34C146.274 42.06 146.124 41.725 146.034 41.335C145.954 40.935 145.914 40.495 145.914 40.015V35.245H148.044V39.625C148.044 40.265 148.144 40.745 148.344 41.065C148.544 41.375 148.899 41.53 149.409 41.53C149.989 41.53 150.409 41.36 150.669 41.02C150.929 40.67 151.059 40.1 151.059 39.31V35.245H153.189V43ZM154.805 35.245H156.83V36.325H156.875C157.145 35.875 157.495 35.55 157.925 35.35C158.355 35.14 158.795 35.035 159.245 35.035C159.815 35.035 160.28 35.115 160.64 35.275C161.01 35.425 161.3 35.64 161.51 35.92C161.72 36.19 161.865 36.525 161.945 36.925C162.035 37.315 162.08 37.75 162.08 38.23V43H159.95V38.62C159.95 37.98 159.85 37.505 159.65 37.195C159.45 36.875 159.095 36.715 158.585 36.715C158.005 36.715 157.585 36.89 157.325 37.24C157.065 37.58 156.935 38.145 156.935 38.935V43H154.805V35.245ZM166.397 35.245H167.957V36.67H166.397V40.51C166.397 40.87 166.457 41.11 166.577 41.23C166.697 41.35 166.937 41.41 167.297 41.41C167.417 41.41 167.532 41.405 167.642 41.395C167.752 41.385 167.857 41.37 167.957 41.35V43C167.777 43.03 167.577 43.05 167.357 43.06C167.137 43.07 166.922 43.075 166.712 43.075C166.382 43.075 166.067 43.05 165.767 43C165.477 42.96 165.217 42.875 164.987 42.745C164.767 42.615 164.592 42.43 164.462 42.19C164.332 41.95 164.267 41.635 164.267 41.245V36.67H162.977V35.245H164.267V32.92H166.397V35.245ZM168.97 35.245H170.995V36.685H171.025C171.125 36.445 171.26 36.225 171.43 36.025C171.6 35.815 171.795 35.64 172.015 35.5C172.235 35.35 172.47 35.235 172.72 35.155C172.97 35.075 173.23 35.035 173.5 35.035C173.64 35.035 173.795 35.06 173.965 35.11V37.09C173.865 37.07 173.745 37.055 173.605 37.045C173.465 37.025 173.33 37.015 173.2 37.015C172.81 37.015 172.48 37.08 172.21 37.21C171.94 37.34 171.72 37.52 171.55 37.75C171.39 37.97 171.275 38.23 171.205 38.53C171.135 38.83 171.1 39.155 171.1 39.505V43H168.97V35.245ZM178.625 43.96C178.395 44.59 178.075 45.04 177.665 45.31C177.255 45.58 176.685 45.715 175.955 45.715C175.735 45.715 175.515 45.705 175.295 45.685C175.085 45.675 174.87 45.66 174.65 45.64V43.885C174.85 43.905 175.055 43.925 175.265 43.945C175.475 43.965 175.685 43.97 175.895 43.96C176.175 43.93 176.38 43.82 176.51 43.63C176.65 43.44 176.72 43.23 176.72 43C176.72 42.83 176.69 42.67 176.63 42.52L173.915 35.245H176.18L177.935 40.555H177.965L179.66 35.245H181.865L178.625 43.96Z" fill="white"/>
<path d="M238.17 32.29H243.21C244.23 32.29 245.025 32.54 245.595 33.04C246.175 33.54 246.465 34.225 246.465 35.095C246.465 35.745 246.315 36.315 246.015 36.805C245.725 37.295 245.255 37.63 244.605 37.81V37.84C244.915 37.9 245.165 38 245.355 38.14C245.555 38.28 245.71 38.45 245.82 38.65C245.94 38.84 246.025 39.055 246.075 39.295C246.135 39.535 246.18 39.785 246.21 40.045C246.23 40.305 246.245 40.57 246.255 40.84C246.265 41.11 246.29 41.375 246.33 41.635C246.37 41.895 246.425 42.145 246.495 42.385C246.575 42.615 246.69 42.82 246.84 43H245.25C245.15 42.89 245.08 42.74 245.04 42.55C245.01 42.36 244.99 42.15 244.98 41.92C244.97 41.68 244.96 41.425 244.95 41.155C244.94 40.885 244.91 40.62 244.86 40.36C244.82 40.1 244.77 39.855 244.71 39.625C244.65 39.385 244.555 39.18 244.425 39.01C244.295 38.83 244.125 38.69 243.915 38.59C243.705 38.48 243.425 38.425 243.075 38.425H239.595V43H238.17V32.29ZM242.565 37.225C242.895 37.225 243.21 37.2 243.51 37.15C243.81 37.1 244.07 37.005 244.29 36.865C244.52 36.715 244.7 36.52 244.83 36.28C244.97 36.03 245.04 35.71 245.04 35.32C245.04 34.78 244.89 34.34 244.59 34C244.29 33.66 243.805 33.49 243.135 33.49H239.595V37.225H242.565ZM253.614 38.38C253.594 38.08 253.524 37.795 253.404 37.525C253.294 37.255 253.139 37.025 252.939 36.835C252.749 36.635 252.519 36.48 252.249 36.37C251.989 36.25 251.699 36.19 251.379 36.19C251.049 36.19 250.749 36.25 250.479 36.37C250.219 36.48 249.994 36.635 249.804 36.835C249.614 37.035 249.464 37.27 249.354 37.54C249.244 37.8 249.179 38.08 249.159 38.38H253.614ZM254.844 40.54C254.674 41.41 254.299 42.065 253.719 42.505C253.139 42.945 252.409 43.165 251.529 43.165C250.909 43.165 250.369 43.065 249.909 42.865C249.459 42.665 249.079 42.385 248.769 42.025C248.459 41.665 248.224 41.235 248.064 40.735C247.914 40.235 247.829 39.69 247.809 39.1C247.809 38.51 247.899 37.97 248.079 37.48C248.259 36.99 248.509 36.565 248.829 36.205C249.159 35.845 249.544 35.565 249.984 35.365C250.434 35.165 250.924 35.065 251.454 35.065C252.144 35.065 252.714 35.21 253.164 35.5C253.624 35.78 253.989 36.14 254.259 36.58C254.539 37.02 254.729 37.5 254.829 38.02C254.939 38.54 254.984 39.035 254.964 39.505H249.159C249.149 39.845 249.189 40.17 249.279 40.48C249.369 40.78 249.514 41.05 249.714 41.29C249.914 41.52 250.169 41.705 250.479 41.845C250.789 41.985 251.154 42.055 251.574 42.055C252.114 42.055 252.554 41.93 252.894 41.68C253.244 41.43 253.474 41.05 253.584 40.54H254.844ZM257.065 40.555C257.075 40.835 257.14 41.075 257.26 41.275C257.38 41.465 257.535 41.62 257.725 41.74C257.925 41.85 258.145 41.93 258.385 41.98C258.635 42.03 258.89 42.055 259.15 42.055C259.35 42.055 259.56 42.04 259.78 42.01C260 41.98 260.2 41.925 260.38 41.845C260.57 41.765 260.725 41.65 260.845 41.5C260.965 41.34 261.025 41.14 261.025 40.9C261.025 40.57 260.9 40.32 260.65 40.15C260.4 39.98 260.085 39.845 259.705 39.745C259.335 39.635 258.93 39.54 258.49 39.46C258.05 39.37 257.64 39.25 257.26 39.1C256.89 38.94 256.58 38.72 256.33 38.44C256.08 38.16 255.955 37.77 255.955 37.27C255.955 36.88 256.04 36.545 256.21 36.265C256.39 35.985 256.615 35.76 256.885 35.59C257.165 35.41 257.475 35.28 257.815 35.2C258.165 35.11 258.51 35.065 258.85 35.065C259.29 35.065 259.695 35.105 260.065 35.185C260.435 35.255 260.76 35.385 261.04 35.575C261.33 35.755 261.56 36.005 261.73 36.325C261.9 36.635 262 37.025 262.03 37.495H260.755C260.735 37.245 260.67 37.04 260.56 36.88C260.45 36.71 260.31 36.575 260.14 36.475C259.97 36.375 259.78 36.305 259.57 36.265C259.37 36.215 259.165 36.19 258.955 36.19C258.765 36.19 258.57 36.205 258.37 36.235C258.18 36.265 258.005 36.32 257.845 36.4C257.685 36.47 257.555 36.57 257.455 36.7C257.355 36.82 257.305 36.98 257.305 37.18C257.305 37.4 257.38 37.585 257.53 37.735C257.69 37.875 257.89 37.995 258.13 38.095C258.37 38.185 258.64 38.265 258.94 38.335C259.24 38.395 259.54 38.46 259.84 38.53C260.16 38.6 260.47 38.685 260.77 38.785C261.08 38.885 261.35 39.02 261.58 39.19C261.82 39.35 262.01 39.555 262.15 39.805C262.3 40.055 262.375 40.365 262.375 40.735C262.375 41.205 262.275 41.595 262.075 41.905C261.885 42.215 261.63 42.465 261.31 42.655C261 42.845 260.645 42.975 260.245 43.045C259.855 43.125 259.465 43.165 259.075 43.165C258.645 43.165 258.235 43.12 257.845 43.03C257.455 42.94 257.11 42.795 256.81 42.595C256.51 42.385 256.27 42.115 256.09 41.785C255.91 41.445 255.81 41.035 255.79 40.555H257.065ZM269.17 38.38C269.15 38.08 269.08 37.795 268.96 37.525C268.85 37.255 268.695 37.025 268.495 36.835C268.305 36.635 268.075 36.48 267.805 36.37C267.545 36.25 267.255 36.19 266.935 36.19C266.605 36.19 266.305 36.25 266.035 36.37C265.775 36.48 265.55 36.635 265.36 36.835C265.17 37.035 265.02 37.27 264.91 37.54C264.8 37.8 264.735 38.08 264.715 38.38H269.17ZM270.4 40.54C270.23 41.41 269.855 42.065 269.275 42.505C268.695 42.945 267.965 43.165 267.085 43.165C266.465 43.165 265.925 43.065 265.465 42.865C265.015 42.665 264.635 42.385 264.325 42.025C264.015 41.665 263.78 41.235 263.62 40.735C263.47 40.235 263.385 39.69 263.365 39.1C263.365 38.51 263.455 37.97 263.635 37.48C263.815 36.99 264.065 36.565 264.385 36.205C264.715 35.845 265.1 35.565 265.54 35.365C265.99 35.165 266.48 35.065 267.01 35.065C267.7 35.065 268.27 35.21 268.72 35.5C269.18 35.78 269.545 36.14 269.815 36.58C270.095 37.02 270.285 37.5 270.385 38.02C270.495 38.54 270.54 39.035 270.52 39.505H264.715C264.705 39.845 264.745 40.17 264.835 40.48C264.925 40.78 265.07 41.05 265.27 41.29C265.47 41.52 265.725 41.705 266.035 41.845C266.345 41.985 266.71 42.055 267.13 42.055C267.67 42.055 268.11 41.93 268.45 41.68C268.8 41.43 269.03 41.05 269.14 40.54H270.4ZM273.612 35.245H275.157V36.37H273.612V41.185C273.612 41.335 273.622 41.455 273.642 41.545C273.672 41.635 273.722 41.705 273.792 41.755C273.862 41.805 273.957 41.84 274.077 41.86C274.207 41.87 274.372 41.875 274.572 41.875H275.157V43H274.182C273.852 43 273.567 42.98 273.327 42.94C273.097 42.89 272.907 42.805 272.757 42.685C272.617 42.565 272.512 42.395 272.442 42.175C272.372 41.955 272.337 41.665 272.337 41.305V36.37H271.017V35.245H272.337V32.92H273.612V35.245Z" fill="white"/>
<rect width="295" height="44" transform="translate(1 74)" fill="white"/>
<path d="M24.216 97.28L26.152 91.952H26.184L28.088 97.28H24.216ZM25.352 90.576L20.904 102H22.456L23.736 98.56H28.568L29.816 102H31.496L27.032 90.576H25.352ZM32.479 90.576V102H33.839V90.576H32.479ZM36.0259 90.576V102H37.3859V90.576H36.0259Z" fill="#333333"/>
<rect width="295" height="44" transform="translate(1 118)" fill="white"/>
<path d="M24.216 141.28L26.152 135.952H26.184L28.088 141.28H24.216ZM25.352 134.576L20.904 146H22.456L23.736 142.56H28.568L29.816 146H31.496L27.032 134.576H25.352ZM32.351 137.728V146H33.711V142.32C33.711 141.787 33.7643 141.317 33.871 140.912C33.9777 140.496 34.1483 140.144 34.383 139.856C34.6177 139.568 34.927 139.349 35.311 139.2C35.695 139.051 36.159 138.976 36.703 138.976V137.536C35.967 137.515 35.359 137.664 34.879 137.984C34.399 138.304 33.9937 138.8 33.663 139.472H33.631V137.728H32.351ZM44.41 145.296V137.728H43.13V138.912H43.114C42.8687 138.453 42.5273 138.112 42.09 137.888C41.6527 137.653 41.1727 137.536 40.65 137.536C39.9353 137.536 39.3327 137.675 38.842 137.952C38.3513 138.219 37.9567 138.565 37.658 138.992C37.3593 139.408 37.146 139.877 37.018 140.4C36.89 140.912 36.826 141.413 36.826 141.904C36.826 142.469 36.9007 143.008 37.05 143.52C37.21 144.021 37.4447 144.464 37.754 144.848C38.0633 145.221 38.4473 145.52 38.906 145.744C39.3647 145.968 39.9033 146.08 40.522 146.08C41.0553 146.08 41.5567 145.963 42.026 145.728C42.506 145.483 42.8633 145.104 43.098 144.592H43.13V145.136C43.13 145.595 43.082 146.016 42.986 146.4C42.9007 146.784 42.7567 147.109 42.554 147.376C42.3513 147.653 42.0953 147.867 41.786 148.016C41.4767 148.176 41.098 148.256 40.65 148.256C40.426 148.256 40.1913 148.229 39.946 148.176C39.7007 148.133 39.4713 148.059 39.258 147.952C39.0553 147.845 38.8793 147.707 38.73 147.536C38.5913 147.365 38.5167 147.157 38.506 146.912H37.146C37.1673 147.36 37.2847 147.739 37.498 148.048C37.7113 148.357 37.978 148.608 38.298 148.8C38.6287 148.992 38.9913 149.131 39.386 149.216C39.7913 149.301 40.186 149.344 40.57 149.344C41.8927 149.344 42.8633 149.008 43.482 148.336C44.1007 147.664 44.41 146.651 44.41 145.296ZM40.602 144.896C40.154 144.896 39.7807 144.805 39.482 144.624C39.1833 144.432 38.9433 144.187 38.762 143.888C38.5807 143.579 38.4527 143.237 38.378 142.864C38.3033 142.491 38.266 142.117 38.266 141.744C38.266 141.349 38.3087 140.971 38.394 140.608C38.49 140.245 38.634 139.925 38.826 139.648C39.0287 139.371 39.2847 139.152 39.594 138.992C39.9033 138.821 40.2767 138.736 40.714 138.736C41.1407 138.736 41.5033 138.821 41.802 138.992C42.1007 139.163 42.3407 139.392 42.522 139.68C42.714 139.957 42.8527 140.272 42.938 140.624C43.0233 140.976 43.066 141.333 43.066 141.696C43.066 142.08 43.018 142.464 42.922 142.848C42.8367 143.232 42.698 143.579 42.506 143.888C42.314 144.187 42.058 144.432 41.738 144.624C41.4287 144.805 41.05 144.896 40.602 144.896ZM52.2055 141.072H47.4535C47.4748 140.752 47.5442 140.453 47.6615 140.176C47.7788 139.888 47.9388 139.637 48.1415 139.424C48.3442 139.211 48.5842 139.045 48.8615 138.928C49.1495 138.8 49.4695 138.736 49.8215 138.736C50.1628 138.736 50.4722 138.8 50.7495 138.928C51.0375 139.045 51.2828 139.211 51.4855 139.424C51.6988 139.627 51.8642 139.872 51.9815 140.16C52.1095 140.448 52.1842 140.752 52.2055 141.072ZM53.5175 143.376H52.1735C52.0562 143.92 51.8108 144.325 51.4375 144.592C51.0748 144.859 50.6055 144.992 50.0295 144.992C49.5815 144.992 49.1922 144.917 48.8615 144.768C48.5308 144.619 48.2588 144.421 48.0455 144.176C47.8322 143.92 47.6775 143.632 47.5815 143.312C47.4855 142.981 47.4428 142.635 47.4535 142.272H53.6455C53.6668 141.771 53.6188 141.243 53.5015 140.688C53.3948 140.133 53.1922 139.621 52.8935 139.152C52.6055 138.683 52.2162 138.299 51.7255 138C51.2455 137.691 50.6375 137.536 49.9015 137.536C49.3362 137.536 48.8135 137.643 48.3335 137.856C47.8642 138.069 47.4535 138.368 47.1015 138.752C46.7602 139.136 46.4935 139.589 46.3015 140.112C46.1095 140.635 46.0135 141.211 46.0135 141.84C46.0348 142.469 46.1255 143.051 46.2855 143.584C46.4562 144.117 46.7068 144.576 47.0375 144.96C47.3682 145.344 47.7735 145.643 48.2535 145.856C48.7442 146.069 49.3202 146.176 49.9815 146.176C50.9202 146.176 51.6988 145.941 52.3175 145.472C52.9362 145.003 53.3362 144.304 53.5175 143.376ZM55.0553 137.728V146H56.4153V141.328C56.4153 140.955 56.4633 140.613 56.5593 140.304C56.6659 139.984 56.8206 139.707 57.0233 139.472C57.2259 139.237 57.4766 139.056 57.7753 138.928C58.0846 138.8 58.4473 138.736 58.8633 138.736C59.3859 138.736 59.7966 138.885 60.0953 139.184C60.3939 139.483 60.5433 139.888 60.5433 140.4V146H61.9033V140.56C61.9033 140.112 61.8553 139.707 61.7593 139.344C61.6739 138.971 61.5193 138.651 61.2953 138.384C61.0713 138.117 60.7779 137.909 60.4153 137.76C60.0526 137.611 59.5993 137.536 59.0553 137.536C57.8286 137.536 56.9326 138.037 56.3673 139.04H56.3353V137.728H55.0553ZM65.8339 137.728V135.248H64.4739V137.728H63.0659V138.928H64.4739V144.192C64.4739 144.576 64.5112 144.885 64.5859 145.12C64.6605 145.355 64.7725 145.536 64.9219 145.664C65.0819 145.792 65.2845 145.883 65.5299 145.936C65.7859 145.979 66.0899 146 66.4419 146H67.4819V144.8H66.8579C66.6445 144.8 66.4685 144.795 66.3299 144.784C66.2019 144.763 66.1005 144.725 66.0259 144.672C65.9512 144.619 65.8979 144.544 65.8659 144.448C65.8445 144.352 65.8339 144.224 65.8339 144.064V138.928H67.4819V137.728H65.8339ZM70.4328 136.24V134.576H69.0728V136.24H70.4328ZM69.0728 137.728V146H70.4328V137.728H69.0728ZM72.5396 137.728V146H73.8996V141.328C73.8996 140.955 73.9476 140.613 74.0436 140.304C74.1503 139.984 74.305 139.707 74.5076 139.472C74.7103 139.237 74.961 139.056 75.2596 138.928C75.569 138.8 75.9316 138.736 76.3476 138.736C76.8703 138.736 77.281 138.885 77.5796 139.184C77.8783 139.483 78.0276 139.888 78.0276 140.4V146H79.3876V140.56C79.3876 140.112 79.3396 139.707 79.2436 139.344C79.1583 138.971 79.0036 138.651 78.7796 138.384C78.5556 138.117 78.2623 137.909 77.8996 137.76C77.537 137.611 77.0836 137.536 76.5396 137.536C75.313 137.536 74.417 138.037 73.8516 139.04H73.8196V137.728H72.5396ZM88.7583 145.968C88.5236 146.107 88.1983 146.176 87.7823 146.176C87.4303 146.176 87.1476 146.08 86.9343 145.888C86.7316 145.685 86.6303 145.36 86.6303 144.912C86.2569 145.36 85.8196 145.685 85.3183 145.888C84.8276 146.08 84.2943 146.176 83.7183 146.176C83.3449 146.176 82.9876 146.133 82.6463 146.048C82.3156 145.963 82.0276 145.829 81.7823 145.648C81.5369 145.467 81.3396 145.232 81.1903 144.944C81.0516 144.645 80.9823 144.288 80.9823 143.872C80.9823 143.403 81.0623 143.019 81.2223 142.72C81.3823 142.421 81.5903 142.181 81.8463 142C82.1129 141.808 82.4116 141.664 82.7423 141.568C83.0836 141.472 83.4303 141.392 83.7823 141.328C84.1556 141.253 84.5076 141.2 84.8383 141.168C85.1796 141.125 85.4783 141.072 85.7343 141.008C85.9903 140.933 86.1929 140.832 86.3423 140.704C86.4916 140.565 86.5663 140.368 86.5663 140.112C86.5663 139.813 86.5076 139.573 86.3903 139.392C86.2836 139.211 86.1396 139.072 85.9583 138.976C85.7876 138.88 85.5903 138.816 85.3663 138.784C85.1529 138.752 84.9396 138.736 84.7263 138.736C84.1503 138.736 83.6703 138.848 83.2863 139.072C82.9023 139.285 82.6943 139.696 82.6623 140.304H81.3023C81.3236 139.792 81.4303 139.36 81.6223 139.008C81.8143 138.656 82.0703 138.373 82.3903 138.16C82.7103 137.936 83.0729 137.776 83.4783 137.68C83.8943 137.584 84.3369 137.536 84.8063 137.536C85.1796 137.536 85.5476 137.563 85.9103 137.616C86.2836 137.669 86.6196 137.781 86.9183 137.952C87.2169 138.112 87.4569 138.341 87.6383 138.64C87.8196 138.939 87.9103 139.328 87.9103 139.808V144.064C87.9103 144.384 87.9263 144.619 87.9583 144.768C88.0009 144.917 88.1289 144.992 88.3423 144.992C88.4596 144.992 88.5983 144.965 88.7583 144.912V145.968ZM86.5503 141.728C86.3796 141.856 86.1556 141.952 85.8783 142.016C85.6009 142.069 85.3076 142.117 84.9983 142.16C84.6996 142.192 84.3956 142.235 84.0863 142.288C83.7769 142.331 83.4996 142.405 83.2543 142.512C83.0089 142.619 82.8063 142.773 82.6463 142.976C82.4969 143.168 82.4223 143.435 82.4223 143.776C82.4223 144 82.4649 144.192 82.5503 144.352C82.6463 144.501 82.7636 144.624 82.9023 144.72C83.0516 144.816 83.2223 144.885 83.4143 144.928C83.6063 144.971 83.8089 144.992 84.0223 144.992C84.4703 144.992 84.8543 144.933 85.1743 144.816C85.4943 144.688 85.7556 144.533 85.9583 144.352C86.1609 144.16 86.3103 143.957 86.4063 143.744C86.5023 143.52 86.5503 143.312 86.5503 143.12V141.728Z" fill="#333333"/>
<rect width="295" height="44" transform="translate(1 162)" fill="white"/>
<path d="M24.216 185.28L26.152 179.952H26.184L28.088 185.28H24.216ZM25.352 178.576L20.904 190H22.456L23.736 186.56H28.568L29.816 190H31.496L27.032 178.576H25.352ZM39.247 190V181.728H37.887V186.4C37.887 186.773 37.8337 187.12 37.727 187.44C37.631 187.749 37.4817 188.021 37.279 188.256C37.0763 188.491 36.8203 188.672 36.511 188.8C36.2123 188.928 35.855 188.992 35.439 188.992C34.9163 188.992 34.5057 188.843 34.207 188.544C33.9083 188.245 33.759 187.84 33.759 187.328V181.728H32.399V187.168C32.399 187.616 32.4417 188.027 32.527 188.4C32.623 188.763 32.783 189.077 33.007 189.344C33.231 189.611 33.5243 189.819 33.887 189.968C34.2497 190.107 34.703 190.176 35.247 190.176C35.855 190.176 36.383 190.059 36.831 189.824C37.279 189.579 37.647 189.2 37.935 188.688H37.967V190H39.247ZM42.1216 187.392H40.7616C40.783 187.904 40.8896 188.341 41.0816 188.704C41.2736 189.056 41.5296 189.344 41.8496 189.568C42.1696 189.781 42.5376 189.936 42.9536 190.032C43.3696 190.128 43.807 190.176 44.2656 190.176C44.6816 190.176 45.0976 190.133 45.5136 190.048C45.9403 189.973 46.319 189.835 46.6496 189.632C46.991 189.429 47.263 189.163 47.4656 188.832C47.679 188.501 47.7856 188.085 47.7856 187.584C47.7856 187.189 47.7056 186.859 47.5456 186.592C47.3963 186.325 47.1936 186.107 46.9376 185.936C46.6923 185.755 46.4043 185.611 46.0736 185.504C45.7536 185.397 45.423 185.307 45.0816 185.232C44.7616 185.157 44.4416 185.088 44.1216 185.024C43.8016 184.949 43.5136 184.864 43.2576 184.768C43.0016 184.661 42.7883 184.533 42.6176 184.384C42.4576 184.224 42.3776 184.027 42.3776 183.792C42.3776 183.579 42.431 183.408 42.5376 183.28C42.6443 183.141 42.783 183.035 42.9536 182.96C43.1243 182.875 43.311 182.816 43.5136 182.784C43.727 182.752 43.935 182.736 44.1376 182.736C44.3616 182.736 44.5803 182.763 44.7936 182.816C45.0176 182.859 45.2203 182.933 45.4016 183.04C45.583 183.147 45.7323 183.291 45.8496 183.472C45.967 183.643 46.0363 183.861 46.0576 184.128H47.4176C47.3856 183.627 47.279 183.211 47.0976 182.88C46.9163 182.539 46.671 182.272 46.3616 182.08C46.063 181.877 45.7163 181.739 45.3216 181.664C44.927 181.579 44.495 181.536 44.0256 181.536C43.663 181.536 43.295 181.584 42.9216 181.68C42.559 181.765 42.2283 181.904 41.9296 182.096C41.6416 182.277 41.4016 182.517 41.2096 182.816C41.0283 183.115 40.9376 183.472 40.9376 183.888C40.9376 184.421 41.071 184.837 41.3376 185.136C41.6043 185.435 41.935 185.669 42.3296 185.84C42.735 186 43.1723 186.128 43.6416 186.224C44.111 186.309 44.543 186.411 44.9376 186.528C45.343 186.635 45.679 186.779 45.9456 186.96C46.2123 187.141 46.3456 187.408 46.3456 187.76C46.3456 188.016 46.2816 188.229 46.1536 188.4C46.0256 188.56 45.8603 188.683 45.6576 188.768C45.4656 188.853 45.2523 188.912 45.0176 188.944C44.783 188.976 44.559 188.992 44.3456 188.992C44.0683 188.992 43.7963 188.965 43.5296 188.912C43.2736 188.859 43.039 188.773 42.8256 188.656C42.623 188.528 42.4576 188.363 42.3296 188.16C42.2016 187.947 42.1323 187.691 42.1216 187.392ZM51.1776 181.728V179.248H49.8176V181.728H48.4096V182.928H49.8176V188.192C49.8176 188.576 49.855 188.885 49.9296 189.12C50.0043 189.355 50.1163 189.536 50.2656 189.664C50.4256 189.792 50.6283 189.883 50.8736 189.936C51.1296 189.979 51.4336 190 51.7856 190H52.8256V188.8H52.2016C51.9883 188.8 51.8123 188.795 51.6736 188.784C51.5456 188.763 51.4443 188.725 51.3696 188.672C51.295 188.619 51.2416 188.544 51.2096 188.448C51.1883 188.352 51.1776 188.224 51.1776 188.064V182.928H52.8256V181.728H51.1776ZM54.2885 181.728V190H55.6485V186.32C55.6485 185.787 55.7018 185.317 55.8085 184.912C55.9152 184.496 56.0858 184.144 56.3205 183.856C56.5552 183.568 56.8645 183.349 57.2485 183.2C57.6325 183.051 58.0965 182.976 58.6405 182.976V181.536C57.9045 181.515 57.2965 181.664 56.8165 181.984C56.3365 182.304 55.9312 182.8 55.6005 183.472H55.5685V181.728H54.2885ZM66.9926 189.968C66.758 190.107 66.4326 190.176 66.0166 190.176C65.6646 190.176 65.382 190.08 65.1686 189.888C64.966 189.685 64.8646 189.36 64.8646 188.912C64.4913 189.36 64.054 189.685 63.5526 189.888C63.062 190.08 62.5286 190.176 61.9526 190.176C61.5793 190.176 61.222 190.133 60.8806 190.048C60.55 189.963 60.262 189.829 60.0166 189.648C59.7713 189.467 59.574 189.232 59.4246 188.944C59.286 188.645 59.2166 188.288 59.2166 187.872C59.2166 187.403 59.2966 187.019 59.4566 186.72C59.6166 186.421 59.8246 186.181 60.0806 186C60.3473 185.808 60.646 185.664 60.9766 185.568C61.318 185.472 61.6646 185.392 62.0166 185.328C62.39 185.253 62.742 185.2 63.0726 185.168C63.414 185.125 63.7126 185.072 63.9686 185.008C64.2246 184.933 64.4273 184.832 64.5766 184.704C64.726 184.565 64.8006 184.368 64.8006 184.112C64.8006 183.813 64.742 183.573 64.6246 183.392C64.518 183.211 64.374 183.072 64.1926 182.976C64.022 182.88 63.8246 182.816 63.6006 182.784C63.3873 182.752 63.174 182.736 62.9606 182.736C62.3846 182.736 61.9046 182.848 61.5206 183.072C61.1366 183.285 60.9286 183.696 60.8966 184.304H59.5366C59.558 183.792 59.6646 183.36 59.8566 183.008C60.0486 182.656 60.3046 182.373 60.6246 182.16C60.9446 181.936 61.3073 181.776 61.7126 181.68C62.1286 181.584 62.5713 181.536 63.0406 181.536C63.414 181.536 63.782 181.563 64.1446 181.616C64.518 181.669 64.854 181.781 65.1526 181.952C65.4513 182.112 65.6913 182.341 65.8726 182.64C66.054 182.939 66.1446 183.328 66.1446 183.808V188.064C66.1446 188.384 66.1606 188.619 66.1926 188.768C66.2353 188.917 66.3633 188.992 66.5766 188.992C66.694 188.992 66.8326 188.965 66.9926 188.912V189.968ZM64.7846 185.728C64.614 185.856 64.39 185.952 64.1126 186.016C63.8353 186.069 63.542 186.117 63.2326 186.16C62.934 186.192 62.63 186.235 62.3206 186.288C62.0113 186.331 61.734 186.405 61.4886 186.512C61.2433 186.619 61.0406 186.773 60.8806 186.976C60.7313 187.168 60.6566 187.435 60.6566 187.776C60.6566 188 60.6993 188.192 60.7846 188.352C60.8806 188.501 60.998 188.624 61.1366 188.72C61.286 188.816 61.4566 188.885 61.6486 188.928C61.8406 188.971 62.0433 188.992 62.2566 188.992C62.7046 188.992 63.0886 188.933 63.4086 188.816C63.7286 188.688 63.99 188.533 64.1926 188.352C64.3953 188.16 64.5446 187.957 64.6406 187.744C64.7366 187.52 64.7846 187.312 64.7846 187.12V185.728ZM68.3384 178.576V190H69.6984V178.576H68.3384ZM73.2453 180.24V178.576H71.8853V180.24H73.2453ZM71.8853 181.728V190H73.2453V181.728H71.8853ZM82.6801 189.968C82.4455 190.107 82.1201 190.176 81.7041 190.176C81.3521 190.176 81.0695 190.08 80.8561 189.888C80.6535 189.685 80.5521 189.36 80.5521 188.912C80.1788 189.36 79.7415 189.685 79.2401 189.888C78.7495 190.08 78.2161 190.176 77.6401 190.176C77.2668 190.176 76.9095 190.133 76.5681 190.048C76.2375 189.963 75.9495 189.829 75.7041 189.648C75.4588 189.467 75.2615 189.232 75.1121 188.944C74.9735 188.645 74.9041 188.288 74.9041 187.872C74.9041 187.403 74.9841 187.019 75.1441 186.72C75.3041 186.421 75.5121 186.181 75.7681 186C76.0348 185.808 76.3335 185.664 76.6641 185.568C77.0055 185.472 77.3521 185.392 77.7041 185.328C78.0775 185.253 78.4295 185.2 78.7601 185.168C79.1015 185.125 79.4001 185.072 79.6561 185.008C79.9121 184.933 80.1148 184.832 80.2641 184.704C80.4135 184.565 80.4881 184.368 80.4881 184.112C80.4881 183.813 80.4295 183.573 80.3121 183.392C80.2055 183.211 80.0615 183.072 79.8801 182.976C79.7095 182.88 79.5121 182.816 79.2881 182.784C79.0748 182.752 78.8615 182.736 78.6481 182.736C78.0721 182.736 77.5921 182.848 77.2081 183.072C76.8241 183.285 76.6161 183.696 76.5841 184.304H75.2241C75.2455 183.792 75.3521 183.36 75.5441 183.008C75.7361 182.656 75.9921 182.373 76.3121 182.16C76.6321 181.936 76.9948 181.776 77.4001 181.68C77.8161 181.584 78.2588 181.536 78.7281 181.536C79.1015 181.536 79.4695 181.563 79.8321 181.616C80.2055 181.669 80.5415 181.781 80.8401 181.952C81.1388 182.112 81.3788 182.341 81.5601 182.64C81.7415 182.939 81.8321 183.328 81.8321 183.808V188.064C81.8321 188.384 81.8481 188.619 81.8801 188.768C81.9228 188.917 82.0508 188.992 82.2641 188.992C82.3815 188.992 82.5201 188.965 82.6801 188.912V189.968ZM80.4721 185.728C80.3015 185.856 80.0775 185.952 79.8001 186.016C79.5228 186.069 79.2295 186.117 78.9201 186.16C78.6215 186.192 78.3175 186.235 78.0081 186.288C77.6988 186.331 77.4215 186.405 77.1761 186.512C76.9308 186.619 76.7281 186.773 76.5681 186.976C76.4188 187.168 76.3441 187.435 76.3441 187.776C76.3441 188 76.3868 188.192 76.4721 188.352C76.5681 188.501 76.6855 188.624 76.8241 188.72C76.9735 188.816 77.1441 188.885 77.3361 188.928C77.5281 188.971 77.7308 188.992 77.9441 188.992C78.3921 188.992 78.7761 188.933 79.0961 188.816C79.4161 188.688 79.6775 188.533 79.8801 188.352C80.0828 188.16 80.2321 187.957 80.3281 187.744C80.4241 187.52 80.4721 187.312 80.4721 187.12V185.728Z" fill="#333333"/>
<rect width="295" height="44" transform="translate(1 206)" fill="white"/>
<path d="M23.768 227.488V223.856H26.808C27.1387 223.856 27.448 223.877 27.736 223.92C28.0347 223.952 28.296 224.032 28.52 224.16C28.744 224.288 28.92 224.469 29.048 224.704C29.176 224.939 29.24 225.259 29.24 225.664C29.24 226.272 29.048 226.731 28.664 227.04C28.2907 227.339 27.672 227.488 26.808 227.488H23.768ZM22.248 222.576V234H27.768C28.3333 234 28.8293 233.909 29.256 233.728C29.6933 233.536 30.056 233.291 30.344 232.992C30.6427 232.683 30.8667 232.331 31.016 231.936C31.1653 231.541 31.24 231.136 31.24 230.72C31.24 230.016 31.0533 229.419 30.68 228.928C30.3067 228.437 29.768 228.117 29.064 227.968V227.936C29.608 227.723 30.024 227.397 30.312 226.96C30.6107 226.512 30.76 225.984 30.76 225.376C30.76 224.8 30.6267 224.315 30.36 223.92C30.104 223.525 29.7893 223.216 29.416 222.992C29.2453 222.885 29.0373 222.805 28.792 222.752C28.5573 222.699 28.3013 222.661 28.024 222.64C27.7467 222.608 27.464 222.592 27.176 222.592C26.8987 222.581 26.6373 222.576 26.392 222.576H22.248ZM23.768 232.72V228.768H27.24C27.56 228.768 27.8693 228.8 28.168 228.864C28.4667 228.917 28.728 229.019 28.952 229.168C29.1867 229.307 29.3733 229.499 29.512 229.744C29.6507 229.989 29.72 230.299 29.72 230.672C29.72 231.312 29.528 231.813 29.144 232.176C28.7707 232.539 28.248 232.72 27.576 232.72H23.768ZM32.9291 225.728V234H34.2891V230.32C34.2891 229.787 34.3425 229.317 34.4491 228.912C34.5558 228.496 34.7265 228.144 34.9611 227.856C35.1958 227.568 35.5051 227.349 35.8891 227.2C36.2731 227.051 36.7371 226.976 37.2811 226.976V225.536C36.5451 225.515 35.9371 225.664 35.4571 225.984C34.9771 226.304 34.5718 226.8 34.2411 227.472H34.2091V225.728H32.9291ZM45.6333 233.968C45.3986 234.107 45.0733 234.176 44.6573 234.176C44.3053 234.176 44.0226 234.08 43.8093 233.888C43.6066 233.685 43.5053 233.36 43.5053 232.912C43.1319 233.36 42.6946 233.685 42.1933 233.888C41.7026 234.08 41.1693 234.176 40.5933 234.176C40.2199 234.176 39.8626 234.133 39.5213 234.048C39.1906 233.963 38.9026 233.829 38.6573 233.648C38.4119 233.467 38.2146 233.232 38.0653 232.944C37.9266 232.645 37.8573 232.288 37.8573 231.872C37.8573 231.403 37.9373 231.019 38.0973 230.72C38.2573 230.421 38.4653 230.181 38.7213 230C38.9879 229.808 39.2866 229.664 39.6173 229.568C39.9586 229.472 40.3053 229.392 40.6573 229.328C41.0306 229.253 41.3826 229.2 41.7133 229.168C42.0546 229.125 42.3533 229.072 42.6093 229.008C42.8653 228.933 43.0679 228.832 43.2173 228.704C43.3666 228.565 43.4413 228.368 43.4413 228.112C43.4413 227.813 43.3826 227.573 43.2653 227.392C43.1586 227.211 43.0146 227.072 42.8333 226.976C42.6626 226.88 42.4653 226.816 42.2413 226.784C42.0279 226.752 41.8146 226.736 41.6013 226.736C41.0253 226.736 40.5453 226.848 40.1613 227.072C39.7773 227.285 39.5693 227.696 39.5373 228.304H38.1773C38.1986 227.792 38.3053 227.36 38.4973 227.008C38.6893 226.656 38.9453 226.373 39.2653 226.16C39.5853 225.936 39.9479 225.776 40.3533 225.68C40.7693 225.584 41.2119 225.536 41.6813 225.536C42.0546 225.536 42.4226 225.563 42.7853 225.616C43.1586 225.669 43.4946 225.781 43.7933 225.952C44.0919 226.112 44.3319 226.341 44.5133 226.64C44.6946 226.939 44.7853 227.328 44.7853 227.808V232.064C44.7853 232.384 44.8013 232.619 44.8333 232.768C44.8759 232.917 45.0039 232.992 45.2173 232.992C45.3346 232.992 45.4733 232.965 45.6333 232.912V233.968ZM43.4253 229.728C43.2546 229.856 43.0306 229.952 42.7533 230.016C42.4759 230.069 42.1826 230.117 41.8733 230.16C41.5746 230.192 41.2706 230.235 40.9613 230.288C40.6519 230.331 40.3746 230.405 40.1293 230.512C39.8839 230.619 39.6813 230.773 39.5213 230.976C39.3719 231.168 39.2973 231.435 39.2973 231.776C39.2973 232 39.3399 232.192 39.4253 232.352C39.5213 232.501 39.6386 232.624 39.7773 232.72C39.9266 232.816 40.0973 232.885 40.2893 232.928C40.4813 232.971 40.6839 232.992 40.8973 232.992C41.3453 232.992 41.7293 232.933 42.0493 232.816C42.3693 232.688 42.6306 232.533 42.8333 232.352C43.0359 232.16 43.1853 231.957 43.2813 231.744C43.3773 231.52 43.4253 231.312 43.4253 231.12V229.728ZM46.227 232.96V234H53.203V232.8H47.923L52.979 226.656V225.728H46.547V226.928H51.219L46.227 232.96ZM56.0265 224.24V222.576H54.6665V224.24H56.0265ZM54.6665 225.728V234H56.0265V225.728H54.6665ZM58.2134 222.576V234H59.5734V222.576H58.2134Z" fill="#333333"/>
<rect width="295" height="44" transform="translate(1 250)" fill="#ECEDEE"/>
<path d="M30.28 270.016H31.8C31.7147 269.408 31.5333 268.875 31.256 268.416C30.9787 267.947 30.632 267.557 30.216 267.248C29.8 266.939 29.3253 266.704 28.792 266.544C28.2587 266.384 27.6933 266.304 27.096 266.304C26.2213 266.304 25.4427 266.464 24.76 266.784C24.088 267.093 23.5227 267.52 23.064 268.064C22.616 268.608 22.2747 269.248 22.04 269.984C21.8053 270.709 21.688 271.488 21.688 272.32C21.688 273.152 21.7947 273.931 22.008 274.656C22.232 275.381 22.5627 276.011 23 276.544C23.4373 277.077 23.9867 277.499 24.648 277.808C25.3093 278.107 26.0827 278.256 26.968 278.256C28.4293 278.256 29.5813 277.856 30.424 277.056C31.2667 276.256 31.7627 275.136 31.912 273.696H30.392C30.36 274.165 30.264 274.603 30.104 275.008C29.944 275.413 29.72 275.765 29.432 276.064C29.1547 276.352 28.8187 276.581 28.424 276.752C28.04 276.912 27.5973 276.992 27.096 276.992C26.4133 276.992 25.8267 276.864 25.336 276.608C24.8453 276.352 24.44 276.011 24.12 275.584C23.8107 275.147 23.5813 274.64 23.432 274.064C23.2827 273.477 23.208 272.859 23.208 272.208C23.208 271.611 23.2827 271.035 23.432 270.48C23.5813 269.925 23.8107 269.435 24.12 269.008C24.44 268.571 24.84 268.224 25.32 267.968C25.8107 267.712 26.3973 267.584 27.08 267.584C27.88 267.584 28.568 267.787 29.144 268.192C29.7307 268.597 30.1093 269.205 30.28 270.016ZM40.8989 277.968C40.6642 278.107 40.3389 278.176 39.9229 278.176C39.5709 278.176 39.2882 278.08 39.0749 277.888C38.8722 277.685 38.7709 277.36 38.7709 276.912C38.3975 277.36 37.9602 277.685 37.4589 277.888C36.9682 278.08 36.4349 278.176 35.8589 278.176C35.4855 278.176 35.1282 278.133 34.7869 278.048C34.4562 277.963 34.1682 277.829 33.9229 277.648C33.6775 277.467 33.4802 277.232 33.3309 276.944C33.1922 276.645 33.1229 276.288 33.1229 275.872C33.1229 275.403 33.2029 275.019 33.3629 274.72C33.5229 274.421 33.7309 274.181 33.9869 274C34.2535 273.808 34.5522 273.664 34.8829 273.568C35.2242 273.472 35.5709 273.392 35.9229 273.328C36.2962 273.253 36.6482 273.2 36.9789 273.168C37.3202 273.125 37.6189 273.072 37.8749 273.008C38.1309 272.933 38.3335 272.832 38.4829 272.704C38.6322 272.565 38.7069 272.368 38.7069 272.112C38.7069 271.813 38.6482 271.573 38.5309 271.392C38.4242 271.211 38.2802 271.072 38.0989 270.976C37.9282 270.88 37.7309 270.816 37.5069 270.784C37.2935 270.752 37.0802 270.736 36.8669 270.736C36.2909 270.736 35.8109 270.848 35.4269 271.072C35.0429 271.285 34.8349 271.696 34.8029 272.304H33.4429C33.4642 271.792 33.5709 271.36 33.7629 271.008C33.9549 270.656 34.2109 270.373 34.5309 270.16C34.8509 269.936 35.2135 269.776 35.6189 269.68C36.0349 269.584 36.4775 269.536 36.9469 269.536C37.3202 269.536 37.6882 269.563 38.0509 269.616C38.4242 269.669 38.7602 269.781 39.0589 269.952C39.3575 270.112 39.5975 270.341 39.7789 270.64C39.9602 270.939 40.0509 271.328 40.0509 271.808V276.064C40.0509 276.384 40.0669 276.619 40.0989 276.768C40.1415 276.917 40.2695 276.992 40.4829 276.992C40.6002 276.992 40.7389 276.965 40.8989 276.912V277.968ZM38.6909 273.728C38.5202 273.856 38.2962 273.952 38.0189 274.016C37.7415 274.069 37.4482 274.117 37.1389 274.16C36.8402 274.192 36.5362 274.235 36.2269 274.288C35.9175 274.331 35.6402 274.405 35.3949 274.512C35.1495 274.619 34.9469 274.773 34.7869 274.976C34.6375 275.168 34.5629 275.435 34.5629 275.776C34.5629 276 34.6055 276.192 34.6909 276.352C34.7869 276.501 34.9042 276.624 35.0429 276.72C35.1922 276.816 35.3629 276.885 35.5549 276.928C35.7469 276.971 35.9495 276.992 36.1629 276.992C36.6109 276.992 36.9949 276.933 37.3149 276.816C37.6349 276.688 37.8962 276.533 38.0989 276.352C38.3015 276.16 38.4509 275.957 38.5469 275.744C38.6429 275.52 38.6909 275.312 38.6909 275.12V273.728ZM42.1646 269.728V278H43.5246V273.328C43.5246 272.955 43.5726 272.613 43.6686 272.304C43.7753 271.984 43.93 271.707 44.1326 271.472C44.3353 271.237 44.586 271.056 44.8846 270.928C45.194 270.8 45.5566 270.736 45.9726 270.736C46.4953 270.736 46.906 270.885 47.2046 271.184C47.5033 271.483 47.6526 271.888 47.6526 272.4V278H49.0126V272.56C49.0126 272.112 48.9646 271.707 48.8686 271.344C48.7833 270.971 48.6286 270.651 48.4046 270.384C48.1806 270.117 47.8873 269.909 47.5246 269.76C47.162 269.611 46.7086 269.536 46.1646 269.536C44.938 269.536 44.042 270.037 43.4766 271.04H43.4446V269.728H42.1646ZM58.3833 277.968C58.1486 278.107 57.8233 278.176 57.4073 278.176C57.0553 278.176 56.7726 278.08 56.5593 277.888C56.3566 277.685 56.2553 277.36 56.2553 276.912C55.8819 277.36 55.4446 277.685 54.9433 277.888C54.4526 278.08 53.9193 278.176 53.3433 278.176C52.9699 278.176 52.6126 278.133 52.2713 278.048C51.9406 277.963 51.6526 277.829 51.4073 277.648C51.1619 277.467 50.9646 277.232 50.8153 276.944C50.6766 276.645 50.6073 276.288 50.6073 275.872C50.6073 275.403 50.6873 275.019 50.8473 274.72C51.0073 274.421 51.2153 274.181 51.4713 274C51.7379 273.808 52.0366 273.664 52.3673 273.568C52.7086 273.472 53.0553 273.392 53.4073 273.328C53.7806 273.253 54.1326 273.2 54.4633 273.168C54.8046 273.125 55.1033 273.072 55.3593 273.008C55.6153 272.933 55.8179 272.832 55.9673 272.704C56.1166 272.565 56.1913 272.368 56.1913 272.112C56.1913 271.813 56.1326 271.573 56.0153 271.392C55.9086 271.211 55.7646 271.072 55.5833 270.976C55.4126 270.88 55.2153 270.816 54.9913 270.784C54.7779 270.752 54.5646 270.736 54.3513 270.736C53.7753 270.736 53.2953 270.848 52.9113 271.072C52.5273 271.285 52.3193 271.696 52.2873 272.304H50.9273C50.9486 271.792 51.0553 271.36 51.2473 271.008C51.4393 270.656 51.6953 270.373 52.0153 270.16C52.3353 269.936 52.6979 269.776 53.1033 269.68C53.5193 269.584 53.9619 269.536 54.4313 269.536C54.8046 269.536 55.1726 269.563 55.5353 269.616C55.9086 269.669 56.2446 269.781 56.5433 269.952C56.8419 270.112 57.0819 270.341 57.2633 270.64C57.4446 270.939 57.5353 271.328 57.5353 271.808V276.064C57.5353 276.384 57.5513 276.619 57.5833 276.768C57.6259 276.917 57.7539 276.992 57.9673 276.992C58.0846 276.992 58.2233 276.965 58.3833 276.912V277.968ZM56.1753 273.728C56.0046 273.856 55.7806 273.952 55.5033 274.016C55.2259 274.069 54.9326 274.117 54.6233 274.16C54.3246 274.192 54.0206 274.235 53.7113 274.288C53.4019 274.331 53.1246 274.405 52.8793 274.512C52.6339 274.619 52.4313 274.773 52.2713 274.976C52.1219 275.168 52.0473 275.435 52.0473 275.776C52.0473 276 52.0899 276.192 52.1753 276.352C52.2713 276.501 52.3886 276.624 52.5273 276.72C52.6766 276.816 52.8473 276.885 53.0393 276.928C53.2313 276.971 53.4339 276.992 53.6473 276.992C54.0953 276.992 54.4793 276.933 54.7993 276.816C55.1193 276.688 55.3806 276.533 55.5833 276.352C55.7859 276.16 55.9353 275.957 56.0313 275.744C56.1273 275.52 56.1753 275.312 56.1753 275.12V273.728ZM60.641 273.936C60.641 273.531 60.6837 273.136 60.769 272.752C60.8543 272.368 60.993 272.027 61.185 271.728C61.377 271.429 61.633 271.189 61.953 271.008C62.273 270.827 62.6623 270.736 63.121 270.736C63.5903 270.736 63.9903 270.827 64.321 271.008C64.6517 271.179 64.9183 271.408 65.121 271.696C65.3343 271.984 65.489 272.32 65.585 272.704C65.681 273.077 65.729 273.467 65.729 273.872C65.729 274.256 65.681 274.635 65.585 275.008C65.4997 275.381 65.3557 275.717 65.153 276.016C64.9503 276.304 64.689 276.539 64.369 276.72C64.049 276.901 63.6597 276.992 63.201 276.992C62.7637 276.992 62.3797 276.907 62.049 276.736C61.729 276.565 61.4623 276.336 61.249 276.048C61.0463 275.76 60.8917 275.435 60.785 275.072C60.689 274.699 60.641 274.32 60.641 273.936ZM67.041 278V266.576H65.681V270.832H65.649C65.4997 270.587 65.313 270.384 65.089 270.224C64.8757 270.053 64.6463 269.92 64.401 269.824C64.1557 269.717 63.9103 269.643 63.665 269.6C63.4197 269.557 63.1903 269.536 62.977 269.536C62.3477 269.536 61.793 269.653 61.313 269.888C60.8437 270.112 60.449 270.421 60.129 270.816C59.8197 271.2 59.585 271.653 59.425 272.176C59.2757 272.699 59.201 273.253 59.201 273.84C59.201 274.427 59.281 274.981 59.441 275.504C59.601 276.027 59.8357 276.485 60.145 276.88C60.465 277.275 60.8597 277.589 61.329 277.824C61.809 278.059 62.369 278.176 63.009 278.176C63.585 278.176 64.113 278.075 64.593 277.872C65.073 277.669 65.425 277.339 65.649 276.88H65.681V278H67.041ZM76.4614 277.968C76.2267 278.107 75.9014 278.176 75.4854 278.176C75.1334 278.176 74.8507 278.08 74.6374 277.888C74.4347 277.685 74.3334 277.36 74.3334 276.912C73.96 277.36 73.5227 277.685 73.0214 277.888C72.5307 278.08 71.9974 278.176 71.4214 278.176C71.048 278.176 70.6907 278.133 70.3494 278.048C70.0187 277.963 69.7307 277.829 69.4854 277.648C69.24 277.467 69.0427 277.232 68.8934 276.944C68.7547 276.645 68.6854 276.288 68.6854 275.872C68.6854 275.403 68.7654 275.019 68.9254 274.72C69.0854 274.421 69.2934 274.181 69.5494 274C69.816 273.808 70.1147 273.664 70.4454 273.568C70.7867 273.472 71.1334 273.392 71.4854 273.328C71.8587 273.253 72.2107 273.2 72.5414 273.168C72.8827 273.125 73.1814 273.072 73.4374 273.008C73.6934 272.933 73.896 272.832 74.0454 272.704C74.1947 272.565 74.2694 272.368 74.2694 272.112C74.2694 271.813 74.2107 271.573 74.0934 271.392C73.9867 271.211 73.8427 271.072 73.6614 270.976C73.4907 270.88 73.2934 270.816 73.0694 270.784C72.856 270.752 72.6427 270.736 72.4294 270.736C71.8534 270.736 71.3734 270.848 70.9894 271.072C70.6054 271.285 70.3974 271.696 70.3654 272.304H69.0054C69.0267 271.792 69.1334 271.36 69.3254 271.008C69.5174 270.656 69.7734 270.373 70.0934 270.16C70.4134 269.936 70.776 269.776 71.1814 269.68C71.5974 269.584 72.04 269.536 72.5094 269.536C72.8827 269.536 73.2507 269.563 73.6134 269.616C73.9867 269.669 74.3227 269.781 74.6214 269.952C74.92 270.112 75.16 270.341 75.3414 270.64C75.5227 270.939 75.6134 271.328 75.6134 271.808V276.064C75.6134 276.384 75.6294 276.619 75.6614 276.768C75.704 276.917 75.832 276.992 76.0454 276.992C76.1627 276.992 76.3014 276.965 76.4614 276.912V277.968ZM74.2534 273.728C74.0827 273.856 73.8587 273.952 73.5814 274.016C73.304 274.069 73.0107 274.117 72.7014 274.16C72.4027 274.192 72.0987 274.235 71.7894 274.288C71.48 274.331 71.2027 274.405 70.9574 274.512C70.712 274.619 70.5094 274.773 70.3494 274.976C70.2 275.168 70.1254 275.435 70.1254 275.776C70.1254 276 70.168 276.192 70.2534 276.352C70.3494 276.501 70.4667 276.624 70.6054 276.72C70.7547 276.816 70.9254 276.885 71.1174 276.928C71.3094 276.971 71.512 276.992 71.7254 276.992C72.1734 276.992 72.5574 276.933 72.8774 276.816C73.1974 276.688 73.4587 276.533 73.6614 276.352C73.864 276.16 74.0134 275.957 74.1094 275.744C74.2054 275.52 74.2534 275.312 74.2534 275.12V273.728Z" fill="#333333"/>
<path d="M265.978 275.52L262.727 272.078C262.348 271.677 261.715 271.658 261.313 272.038C260.912 272.417 260.894 273.05 261.273 273.451L265.273 277.687C265.676 278.113 266.358 278.103 266.747 277.664L274.747 268.664C275.114 268.252 275.077 267.62 274.664 267.253C274.252 266.886 273.619 266.923 273.253 267.336L265.978 275.52Z" fill="#008767"/>
<rect width="295" height="44" transform="translate(1 294)" fill="white"/>
<path d="M23.768 320.72V311.856H26.328C27.032 311.856 27.624 311.957 28.104 312.16C28.584 312.352 28.9733 312.64 29.272 313.024C29.5813 313.397 29.8 313.856 29.928 314.4C30.0667 314.933 30.136 315.541 30.136 316.224C30.136 316.928 30.0613 317.531 29.912 318.032C29.7733 318.523 29.592 318.933 29.368 319.264C29.144 319.595 28.888 319.856 28.6 320.048C28.3227 320.24 28.04 320.389 27.752 320.496C27.464 320.592 27.192 320.656 26.936 320.688C26.68 320.709 26.4667 320.72 26.296 320.72H23.768ZM22.248 310.576V322H26.168C27.1173 322 27.9387 321.867 28.632 321.6C29.3253 321.333 29.896 320.949 30.344 320.448C30.792 319.936 31.1227 319.312 31.336 318.576C31.5493 317.829 31.656 316.976 31.656 316.016C31.656 314.181 31.1813 312.816 30.232 311.92C29.2827 311.024 27.928 310.576 26.168 310.576H22.248ZM39.0336 317.072H34.2816C34.303 316.752 34.3723 316.453 34.4896 316.176C34.607 315.888 34.767 315.637 34.9696 315.424C35.1723 315.211 35.4123 315.045 35.6896 314.928C35.9776 314.8 36.2976 314.736 36.6496 314.736C36.991 314.736 37.3003 314.8 37.5776 314.928C37.8656 315.045 38.111 315.211 38.3136 315.424C38.527 315.627 38.6923 315.872 38.8096 316.16C38.9376 316.448 39.0123 316.752 39.0336 317.072ZM40.3456 319.376H39.0016C38.8843 319.92 38.639 320.325 38.2656 320.592C37.903 320.859 37.4336 320.992 36.8576 320.992C36.4096 320.992 36.0203 320.917 35.6896 320.768C35.359 320.619 35.087 320.421 34.8736 320.176C34.6603 319.92 34.5056 319.632 34.4096 319.312C34.3136 318.981 34.271 318.635 34.2816 318.272H40.4736C40.495 317.771 40.447 317.243 40.3296 316.688C40.223 316.133 40.0203 315.621 39.7216 315.152C39.4336 314.683 39.0443 314.299 38.5536 314C38.0736 313.691 37.4656 313.536 36.7296 313.536C36.1643 313.536 35.6416 313.643 35.1616 313.856C34.6923 314.069 34.2816 314.368 33.9296 314.752C33.5883 315.136 33.3216 315.589 33.1296 316.112C32.9376 316.635 32.8416 317.211 32.8416 317.84C32.863 318.469 32.9536 319.051 33.1136 319.584C33.2843 320.117 33.535 320.576 33.8656 320.96C34.1963 321.344 34.6016 321.643 35.0816 321.856C35.5723 322.069 36.1483 322.176 36.8096 322.176C37.7483 322.176 38.527 321.941 39.1456 321.472C39.7643 321.003 40.1643 320.304 40.3456 319.376ZM41.8834 313.728V322H43.2434V317.328C43.2434 316.955 43.2914 316.613 43.3874 316.304C43.494 315.984 43.6487 315.707 43.8514 315.472C44.054 315.237 44.3047 315.056 44.6034 314.928C44.9127 314.8 45.2754 314.736 45.6914 314.736C46.214 314.736 46.6247 314.885 46.9234 315.184C47.222 315.483 47.3714 315.888 47.3714 316.4V322H48.7314V316.56C48.7314 316.112 48.6834 315.707 48.5874 315.344C48.502 314.971 48.3474 314.651 48.1234 314.384C47.8994 314.117 47.606 313.909 47.2434 313.76C46.8807 313.611 46.4274 313.536 45.8834 313.536C44.6567 313.536 43.7607 314.037 43.1954 315.04H43.1634V313.728H41.8834ZM50.774 313.728V322H52.134V316.848C52.134 316.688 52.1713 316.491 52.246 316.256C52.3313 316.011 52.4593 315.776 52.63 315.552C52.8113 315.328 53.0407 315.136 53.318 314.976C53.606 314.816 53.9473 314.736 54.342 314.736C54.6513 314.736 54.902 314.784 55.094 314.88C55.2967 314.965 55.4567 315.093 55.574 315.264C55.6913 315.424 55.7713 315.616 55.814 315.84C55.8673 316.064 55.894 316.309 55.894 316.576V322H57.254V316.848C57.254 316.208 57.446 315.696 57.83 315.312C58.214 314.928 58.742 314.736 59.414 314.736C59.7447 314.736 60.0113 314.784 60.214 314.88C60.4273 314.976 60.5927 315.109 60.71 315.28C60.8273 315.44 60.9073 315.632 60.95 315.856C60.9927 316.08 61.014 316.32 61.014 316.576V322H62.374V315.936C62.374 315.509 62.3047 315.147 62.166 314.848C62.038 314.539 61.8513 314.288 61.606 314.096C61.3713 313.904 61.0833 313.765 60.742 313.68C60.4113 313.584 60.038 313.536 59.622 313.536C59.078 313.536 58.5767 313.659 58.118 313.904C57.67 314.149 57.3073 314.496 57.03 314.944C56.8593 314.432 56.566 314.069 56.15 313.856C55.734 313.643 55.27 313.536 54.758 313.536C53.5953 313.536 52.7047 314.005 52.086 314.944H52.054V313.728H50.774ZM71.7426 321.968C71.508 322.107 71.1826 322.176 70.7666 322.176C70.4146 322.176 70.132 322.08 69.9186 321.888C69.716 321.685 69.6146 321.36 69.6146 320.912C69.2413 321.36 68.804 321.685 68.3026 321.888C67.812 322.08 67.2786 322.176 66.7026 322.176C66.3293 322.176 65.972 322.133 65.6306 322.048C65.3 321.963 65.012 321.829 64.7666 321.648C64.5213 321.467 64.324 321.232 64.1746 320.944C64.036 320.645 63.9666 320.288 63.9666 319.872C63.9666 319.403 64.0466 319.019 64.2066 318.72C64.3666 318.421 64.5746 318.181 64.8306 318C65.0973 317.808 65.396 317.664 65.7266 317.568C66.068 317.472 66.4146 317.392 66.7666 317.328C67.14 317.253 67.492 317.2 67.8226 317.168C68.164 317.125 68.4626 317.072 68.7186 317.008C68.9746 316.933 69.1773 316.832 69.3266 316.704C69.476 316.565 69.5506 316.368 69.5506 316.112C69.5506 315.813 69.492 315.573 69.3746 315.392C69.268 315.211 69.124 315.072 68.9426 314.976C68.772 314.88 68.5746 314.816 68.3506 314.784C68.1373 314.752 67.924 314.736 67.7106 314.736C67.1346 314.736 66.6546 314.848 66.2706 315.072C65.8866 315.285 65.6786 315.696 65.6466 316.304H64.2866C64.308 315.792 64.4146 315.36 64.6066 315.008C64.7986 314.656 65.0546 314.373 65.3746 314.16C65.6946 313.936 66.0573 313.776 66.4626 313.68C66.8786 313.584 67.3213 313.536 67.7906 313.536C68.164 313.536 68.532 313.563 68.8946 313.616C69.268 313.669 69.604 313.781 69.9026 313.952C70.2013 314.112 70.4413 314.341 70.6226 314.64C70.804 314.939 70.8946 315.328 70.8946 315.808V320.064C70.8946 320.384 70.9106 320.619 70.9426 320.768C70.9853 320.917 71.1133 320.992 71.3266 320.992C71.444 320.992 71.5826 320.965 71.7426 320.912V321.968ZM69.5346 317.728C69.364 317.856 69.14 317.952 68.8626 318.016C68.5853 318.069 68.292 318.117 67.9826 318.16C67.684 318.192 67.38 318.235 67.0706 318.288C66.7613 318.331 66.484 318.405 66.2386 318.512C65.9933 318.619 65.7906 318.773 65.6306 318.976C65.4813 319.168 65.4066 319.435 65.4066 319.776C65.4066 320 65.4493 320.192 65.5346 320.352C65.6306 320.501 65.748 320.624 65.8866 320.72C66.036 320.816 66.2066 320.885 66.3986 320.928C66.5906 320.971 66.7933 320.992 67.0066 320.992C67.4546 320.992 67.8386 320.933 68.1586 320.816C68.4786 320.688 68.74 320.533 68.9426 320.352C69.1453 320.16 69.2946 319.957 69.3906 319.744C69.4866 319.52 69.5346 319.312 69.5346 319.12V317.728ZM72.9604 313.728V322H74.3204V318.32C74.3204 317.787 74.3737 317.317 74.4804 316.912C74.587 316.496 74.7577 316.144 74.9924 315.856C75.227 315.568 75.5364 315.349 75.9204 315.2C76.3044 315.051 76.7684 314.976 77.3124 314.976V313.536C76.5764 313.515 75.9684 313.664 75.4884 313.984C75.0084 314.304 74.603 314.8 74.2724 315.472H74.2404V313.728H72.9604ZM78.4165 310.576V322H79.7765V318.864L81.0565 317.68L83.8885 322H85.6165L82.0965 316.736L85.3765 313.728H83.5525L79.7765 317.344V310.576H78.4165Z" fill="#333333"/>
<rect width="295" height="44" transform="translate(1 338)" fill="white"/>
<path d="M22.248 354.576V366H23.768V360.768H29.016V359.488H23.768V355.856H29.752V354.576H22.248ZM32.6515 356.24V354.576H31.2915V356.24H32.6515ZM31.2915 357.728V366H32.6515V357.728H31.2915ZM34.7584 357.728V366H36.1184V361.328C36.1184 360.955 36.1664 360.613 36.2624 360.304C36.369 359.984 36.5237 359.707 36.7264 359.472C36.929 359.237 37.1797 359.056 37.4784 358.928C37.7877 358.8 38.1504 358.736 38.5664 358.736C39.089 358.736 39.4997 358.885 39.7984 359.184C40.097 359.483 40.2464 359.888 40.2464 360.4V366H41.6064V360.56C41.6064 360.112 41.5584 359.707 41.4624 359.344C41.377 358.971 41.2224 358.651 40.9984 358.384C40.7744 358.117 40.481 357.909 40.1184 357.76C39.7557 357.611 39.3024 357.536 38.7584 357.536C37.5317 357.536 36.6357 358.037 36.0704 359.04H36.0384V357.728H34.7584ZM43.729 354.576V366H45.089V354.576H43.729ZM54.5239 365.968C54.2892 366.107 53.9639 366.176 53.5479 366.176C53.1959 366.176 52.9132 366.08 52.6999 365.888C52.4972 365.685 52.3959 365.36 52.3959 364.912C52.0225 365.36 51.5852 365.685 51.0839 365.888C50.5932 366.08 50.0599 366.176 49.4839 366.176C49.1105 366.176 48.7532 366.133 48.4119 366.048C48.0812 365.963 47.7932 365.829 47.5479 365.648C47.3025 365.467 47.1052 365.232 46.9559 364.944C46.8172 364.645 46.7479 364.288 46.7479 363.872C46.7479 363.403 46.8279 363.019 46.9879 362.72C47.1479 362.421 47.3559 362.181 47.6119 362C47.8785 361.808 48.1772 361.664 48.5079 361.568C48.8492 361.472 49.1959 361.392 49.5479 361.328C49.9212 361.253 50.2732 361.2 50.6039 361.168C50.9452 361.125 51.2439 361.072 51.4999 361.008C51.7559 360.933 51.9585 360.832 52.1079 360.704C52.2572 360.565 52.3319 360.368 52.3319 360.112C52.3319 359.813 52.2732 359.573 52.1559 359.392C52.0492 359.211 51.9052 359.072 51.7239 358.976C51.5532 358.88 51.3559 358.816 51.1319 358.784C50.9185 358.752 50.7052 358.736 50.4919 358.736C49.9159 358.736 49.4359 358.848 49.0519 359.072C48.6679 359.285 48.4599 359.696 48.4279 360.304H47.0679C47.0892 359.792 47.1959 359.36 47.3879 359.008C47.5799 358.656 47.8359 358.373 48.1559 358.16C48.4759 357.936 48.8385 357.776 49.2439 357.68C49.6599 357.584 50.1025 357.536 50.5719 357.536C50.9452 357.536 51.3132 357.563 51.6759 357.616C52.0492 357.669 52.3852 357.781 52.6839 357.952C52.9825 358.112 53.2225 358.341 53.4039 358.64C53.5852 358.939 53.6759 359.328 53.6759 359.808V364.064C53.6759 364.384 53.6919 364.619 53.7239 364.768C53.7665 364.917 53.8945 364.992 54.1079 364.992C54.2252 364.992 54.3639 364.965 54.5239 364.912V365.968ZM52.3159 361.728C52.1452 361.856 51.9212 361.952 51.6439 362.016C51.3665 362.069 51.0732 362.117 50.7639 362.16C50.4652 362.192 50.1612 362.235 49.8519 362.288C49.5425 362.331 49.2652 362.405 49.0199 362.512C48.7745 362.619 48.5719 362.773 48.4119 362.976C48.2625 363.168 48.1879 363.435 48.1879 363.776C48.1879 364 48.2305 364.192 48.3159 364.352C48.4119 364.501 48.5292 364.624 48.6679 364.72C48.8172 364.816 48.9879 364.885 49.1799 364.928C49.3719 364.971 49.5745 364.992 49.7879 364.992C50.2359 364.992 50.6199 364.933 50.9399 364.816C51.2599 364.688 51.5212 364.533 51.7239 364.352C51.9265 364.16 52.0759 363.957 52.1719 363.744C52.2679 363.52 52.3159 363.312 52.3159 363.12V361.728ZM55.7896 357.728V366H57.1496V361.328C57.1496 360.955 57.1976 360.613 57.2936 360.304C57.4003 359.984 57.555 359.707 57.7576 359.472C57.9603 359.237 58.211 359.056 58.5096 358.928C58.819 358.8 59.1816 358.736 59.5976 358.736C60.1203 358.736 60.531 358.885 60.8296 359.184C61.1283 359.483 61.2776 359.888 61.2776 360.4V366H62.6376V360.56C62.6376 360.112 62.5896 359.707 62.4936 359.344C62.4083 358.971 62.2536 358.651 62.0296 358.384C61.8056 358.117 61.5123 357.909 61.1496 357.76C60.787 357.611 60.3336 357.536 59.7896 357.536C58.563 357.536 57.667 358.037 57.1016 359.04H57.0696V357.728H55.7896ZM65.6723 361.936C65.6723 361.531 65.7149 361.136 65.8003 360.752C65.8856 360.368 66.0243 360.027 66.2163 359.728C66.4083 359.429 66.6643 359.189 66.9843 359.008C67.3043 358.827 67.6936 358.736 68.1523 358.736C68.6216 358.736 69.0216 358.827 69.3523 359.008C69.6829 359.179 69.9496 359.408 70.1523 359.696C70.3656 359.984 70.5203 360.32 70.6163 360.704C70.7123 361.077 70.7603 361.467 70.7603 361.872C70.7603 362.256 70.7123 362.635 70.6163 363.008C70.5309 363.381 70.3869 363.717 70.1843 364.016C69.9816 364.304 69.7203 364.539 69.4003 364.72C69.0803 364.901 68.6909 364.992 68.2323 364.992C67.7949 364.992 67.4109 364.907 67.0803 364.736C66.7603 364.565 66.4936 364.336 66.2803 364.048C66.0776 363.76 65.9229 363.435 65.8163 363.072C65.7203 362.699 65.6723 362.32 65.6723 361.936ZM72.0723 366V354.576H70.7123V358.832H70.6803C70.5309 358.587 70.3443 358.384 70.1203 358.224C69.9069 358.053 69.6776 357.92 69.4323 357.824C69.1869 357.717 68.9416 357.643 68.6963 357.6C68.4509 357.557 68.2216 357.536 68.0083 357.536C67.3789 357.536 66.8243 357.653 66.3443 357.888C65.8749 358.112 65.4803 358.421 65.1603 358.816C64.8509 359.2 64.6163 359.653 64.4563 360.176C64.3069 360.699 64.2323 361.253 64.2323 361.84C64.2323 362.427 64.3123 362.981 64.4723 363.504C64.6323 364.027 64.8669 364.485 65.1763 364.88C65.4963 365.275 65.8909 365.589 66.3603 365.824C66.8403 366.059 67.4003 366.176 68.0403 366.176C68.6163 366.176 69.1443 366.075 69.6243 365.872C70.1043 365.669 70.4563 365.339 70.6803 364.88H70.7123V366H72.0723Z" fill="#333333"/>
<rect width="295" height="44" transform="translate(1 382)" fill="white"/>
<path d="M22.248 398.576V410H23.768V404.768H29.016V403.488H23.768V399.856H29.752V398.576H22.248ZM31.1635 401.728V410H32.5235V406.32C32.5235 405.787 32.5768 405.317 32.6835 404.912C32.7902 404.496 32.9608 404.144 33.1955 403.856C33.4302 403.568 33.7395 403.349 34.1235 403.2C34.5075 403.051 34.9715 402.976 35.5155 402.976V401.536C34.7795 401.515 34.1715 401.664 33.6915 401.984C33.2115 402.304 32.8062 402.8 32.4755 403.472H32.4435V401.728H31.1635ZM43.8676 409.968C43.633 410.107 43.3076 410.176 42.8916 410.176C42.5396 410.176 42.257 410.08 42.0436 409.888C41.841 409.685 41.7396 409.36 41.7396 408.912C41.3663 409.36 40.929 409.685 40.4276 409.888C39.937 410.08 39.4036 410.176 38.8276 410.176C38.4543 410.176 38.097 410.133 37.7556 410.048C37.425 409.963 37.137 409.829 36.8916 409.648C36.6463 409.467 36.449 409.232 36.2996 408.944C36.161 408.645 36.0916 408.288 36.0916 407.872C36.0916 407.403 36.1716 407.019 36.3316 406.72C36.4916 406.421 36.6996 406.181 36.9556 406C37.2223 405.808 37.521 405.664 37.8516 405.568C38.193 405.472 38.5396 405.392 38.8916 405.328C39.265 405.253 39.617 405.2 39.9476 405.168C40.289 405.125 40.5876 405.072 40.8436 405.008C41.0996 404.933 41.3023 404.832 41.4516 404.704C41.601 404.565 41.6756 404.368 41.6756 404.112C41.6756 403.813 41.617 403.573 41.4996 403.392C41.393 403.211 41.249 403.072 41.0676 402.976C40.897 402.88 40.6996 402.816 40.4756 402.784C40.2623 402.752 40.049 402.736 39.8356 402.736C39.2596 402.736 38.7796 402.848 38.3956 403.072C38.0116 403.285 37.8036 403.696 37.7716 404.304H36.4116C36.433 403.792 36.5396 403.36 36.7316 403.008C36.9236 402.656 37.1796 402.373 37.4996 402.16C37.8196 401.936 38.1823 401.776 38.5876 401.68C39.0036 401.584 39.4463 401.536 39.9156 401.536C40.289 401.536 40.657 401.563 41.0196 401.616C41.393 401.669 41.729 401.781 42.0276 401.952C42.3263 402.112 42.5663 402.341 42.7476 402.64C42.929 402.939 43.0196 403.328 43.0196 403.808V408.064C43.0196 408.384 43.0356 408.619 43.0676 408.768C43.1103 408.917 43.2383 408.992 43.4516 408.992C43.569 408.992 43.7076 408.965 43.8676 408.912V409.968ZM41.6596 405.728C41.489 405.856 41.265 405.952 40.9876 406.016C40.7103 406.069 40.417 406.117 40.1076 406.16C39.809 406.192 39.505 406.235 39.1956 406.288C38.8863 406.331 38.609 406.405 38.3636 406.512C38.1183 406.619 37.9156 406.773 37.7556 406.976C37.6063 407.168 37.5316 407.435 37.5316 407.776C37.5316 408 37.5743 408.192 37.6596 408.352C37.7556 408.501 37.873 408.624 38.0116 408.72C38.161 408.816 38.3316 408.885 38.5236 408.928C38.7156 408.971 38.9183 408.992 39.1316 408.992C39.5796 408.992 39.9636 408.933 40.2836 408.816C40.6036 408.688 40.865 408.533 41.0676 408.352C41.2703 408.16 41.4196 407.957 41.5156 407.744C41.6116 407.52 41.6596 407.312 41.6596 407.12V405.728ZM45.1334 401.728V410H46.4934V405.328C46.4934 404.955 46.5414 404.613 46.6374 404.304C46.744 403.984 46.8987 403.707 47.1014 403.472C47.304 403.237 47.5547 403.056 47.8534 402.928C48.1627 402.8 48.5254 402.736 48.9414 402.736C49.464 402.736 49.8747 402.885 50.1734 403.184C50.472 403.483 50.6214 403.888 50.6214 404.4V410H51.9814V404.56C51.9814 404.112 51.9334 403.707 51.8374 403.344C51.752 402.971 51.5974 402.651 51.3734 402.384C51.1494 402.117 50.856 401.909 50.4934 401.76C50.1307 401.611 49.6774 401.536 49.1334 401.536C47.9067 401.536 47.0107 402.037 46.4454 403.04H46.4134V401.728H45.1334ZM59.64 404.384H61.048C60.9947 403.893 60.8667 403.472 60.664 403.12C60.4613 402.757 60.2 402.459 59.88 402.224C59.5707 401.989 59.208 401.819 58.792 401.712C58.3867 401.595 57.9493 401.536 57.48 401.536C56.8293 401.536 56.2587 401.653 55.768 401.888C55.2773 402.112 54.8667 402.427 54.536 402.832C54.216 403.227 53.976 403.696 53.816 404.24C53.656 404.773 53.576 405.349 53.576 405.968C53.576 406.587 53.656 407.157 53.816 407.68C53.9867 408.192 54.232 408.635 54.552 409.008C54.8827 409.381 55.288 409.669 55.768 409.872C56.2587 410.075 56.8187 410.176 57.448 410.176C58.504 410.176 59.336 409.899 59.944 409.344C60.5627 408.789 60.9467 408 61.096 406.976H59.704C59.6187 407.616 59.384 408.112 59 408.464C58.6267 408.816 58.104 408.992 57.432 408.992C57.0053 408.992 56.6373 408.907 56.328 408.736C56.0187 408.565 55.768 408.341 55.576 408.064C55.384 407.776 55.24 407.451 55.144 407.088C55.0587 406.725 55.016 406.352 55.016 405.968C55.016 405.552 55.0587 405.152 55.144 404.768C55.2293 404.373 55.368 404.027 55.56 403.728C55.7627 403.429 56.0293 403.189 56.36 403.008C56.6907 402.827 57.1013 402.736 57.592 402.736C58.168 402.736 58.6267 402.88 58.968 403.168C59.3093 403.456 59.5333 403.861 59.64 404.384ZM68.3618 405.072H63.6098C63.6311 404.752 63.7004 404.453 63.8178 404.176C63.9351 403.888 64.0951 403.637 64.2978 403.424C64.5004 403.211 64.7404 403.045 65.0178 402.928C65.3058 402.8 65.6258 402.736 65.9778 402.736C66.3191 402.736 66.6284 402.8 66.9058 402.928C67.1938 403.045 67.4391 403.211 67.6418 403.424C67.8551 403.627 68.0204 403.872 68.1378 404.16C68.2658 404.448 68.3404 404.752 68.3618 405.072ZM69.6737 407.376H68.3298C68.2124 407.92 67.9671 408.325 67.5938 408.592C67.2311 408.859 66.7618 408.992 66.1858 408.992C65.7378 408.992 65.3484 408.917 65.0178 408.768C64.6871 408.619 64.4151 408.421 64.2018 408.176C63.9884 407.92 63.8338 407.632 63.7378 407.312C63.6418 406.981 63.5991 406.635 63.6098 406.272H69.8018C69.8231 405.771 69.7751 405.243 69.6578 404.688C69.5511 404.133 69.3484 403.621 69.0498 403.152C68.7618 402.683 68.3724 402.299 67.8818 402C67.4018 401.691 66.7938 401.536 66.0578 401.536C65.4924 401.536 64.9698 401.643 64.4898 401.856C64.0204 402.069 63.6098 402.368 63.2578 402.752C62.9164 403.136 62.6498 403.589 62.4578 404.112C62.2658 404.635 62.1698 405.211 62.1698 405.84C62.1911 406.469 62.2818 407.051 62.4418 407.584C62.6124 408.117 62.8631 408.576 63.1938 408.96C63.5244 409.344 63.9298 409.643 64.4098 409.856C64.9004 410.069 65.4764 410.176 66.1378 410.176C67.0764 410.176 67.8551 409.941 68.4738 409.472C69.0924 409.003 69.4924 408.304 69.6737 407.376Z" fill="#333333"/>
<rect width="295" height="44" transform="translate(1 426)" fill="white"/>
<path d="M30.792 452.576L31.192 454H32.152V447.984H27.144V449.264H30.792C30.8133 449.787 30.744 450.277 30.584 450.736C30.424 451.184 30.184 451.579 29.864 451.92C29.5547 452.251 29.1707 452.512 28.712 452.704C28.2533 452.896 27.7253 452.992 27.128 452.992C26.488 452.992 25.9227 452.869 25.432 452.624C24.952 452.368 24.5467 452.032 24.216 451.616C23.8853 451.189 23.6347 450.704 23.464 450.16C23.2933 449.605 23.208 449.029 23.208 448.432C23.208 447.824 23.2827 447.232 23.432 446.656C23.5813 446.069 23.8107 445.552 24.12 445.104C24.44 444.645 24.8453 444.277 25.336 444C25.8373 443.723 26.4347 443.584 27.128 443.584C27.5547 443.584 27.9547 443.637 28.328 443.744C28.712 443.84 29.0533 443.989 29.352 444.192C29.6507 444.395 29.9013 444.656 30.104 444.976C30.3067 445.285 30.4453 445.659 30.52 446.096H32.04C31.9333 445.424 31.7307 444.853 31.432 444.384C31.144 443.904 30.7813 443.509 30.344 443.2C29.9173 442.891 29.4267 442.667 28.872 442.528C28.328 442.379 27.7467 442.304 27.128 442.304C26.2213 442.304 25.4267 442.475 24.744 442.816C24.072 443.147 23.5067 443.595 23.048 444.16C22.6 444.725 22.2587 445.387 22.024 446.144C21.8 446.891 21.688 447.68 21.688 448.512C21.688 449.259 21.8107 449.979 22.056 450.672C22.3013 451.365 22.6587 451.979 23.128 452.512C23.5973 453.045 24.168 453.472 24.84 453.792C25.512 454.101 26.2747 454.256 27.128 454.256C27.8 454.256 28.4667 454.128 29.128 453.872C29.7893 453.605 30.344 453.173 30.792 452.576ZM39.9086 449.072H35.1566C35.178 448.752 35.2473 448.453 35.3646 448.176C35.482 447.888 35.642 447.637 35.8446 447.424C36.0473 447.211 36.2873 447.045 36.5646 446.928C36.8526 446.8 37.1726 446.736 37.5246 446.736C37.866 446.736 38.1753 446.8 38.4526 446.928C38.7406 447.045 38.986 447.211 39.1886 447.424C39.402 447.627 39.5673 447.872 39.6846 448.16C39.8126 448.448 39.8873 448.752 39.9086 449.072ZM41.2206 451.376H39.8766C39.7593 451.92 39.514 452.325 39.1406 452.592C38.778 452.859 38.3086 452.992 37.7326 452.992C37.2846 452.992 36.8953 452.917 36.5646 452.768C36.234 452.619 35.962 452.421 35.7486 452.176C35.5353 451.92 35.3806 451.632 35.2846 451.312C35.1886 450.981 35.146 450.635 35.1566 450.272H41.3486C41.37 449.771 41.322 449.243 41.2046 448.688C41.098 448.133 40.8953 447.621 40.5966 447.152C40.3086 446.683 39.9193 446.299 39.4286 446C38.9486 445.691 38.3406 445.536 37.6046 445.536C37.0393 445.536 36.5166 445.643 36.0366 445.856C35.5673 446.069 35.1566 446.368 34.8046 446.752C34.4633 447.136 34.1966 447.589 34.0046 448.112C33.8126 448.635 33.7166 449.211 33.7166 449.84C33.738 450.469 33.8286 451.051 33.9886 451.584C34.1593 452.117 34.41 452.576 34.7406 452.96C35.0713 453.344 35.4766 453.643 35.9566 453.856C36.4473 454.069 37.0233 454.176 37.6846 454.176C38.6233 454.176 39.402 453.941 40.0206 453.472C40.6393 453.003 41.0393 452.304 41.2206 451.376ZM42.7104 445.728V454H44.0704V450.32C44.0704 449.787 44.1237 449.317 44.2304 448.912C44.337 448.496 44.5077 448.144 44.7424 447.856C44.977 447.568 45.2864 447.349 45.6704 447.2C46.0544 447.051 46.5184 446.976 47.0624 446.976V445.536C46.3264 445.515 45.7184 445.664 45.2384 445.984C44.7584 446.304 44.353 446.8 44.0224 447.472H43.9904V445.728H42.7104ZM48.0865 445.728V454H49.4465V448.848C49.4465 448.688 49.4838 448.491 49.5585 448.256C49.6438 448.011 49.7718 447.776 49.9425 447.552C50.1238 447.328 50.3532 447.136 50.6305 446.976C50.9185 446.816 51.2598 446.736 51.6545 446.736C51.9638 446.736 52.2145 446.784 52.4065 446.88C52.6092 446.965 52.7692 447.093 52.8865 447.264C53.0038 447.424 53.0838 447.616 53.1265 447.84C53.1798 448.064 53.2065 448.309 53.2065 448.576V454H54.5665V448.848C54.5665 448.208 54.7585 447.696 55.1425 447.312C55.5265 446.928 56.0545 446.736 56.7265 446.736C57.0572 446.736 57.3238 446.784 57.5265 446.88C57.7398 446.976 57.9052 447.109 58.0225 447.28C58.1398 447.44 58.2198 447.632 58.2625 447.856C58.3052 448.08 58.3265 448.32 58.3265 448.576V454H59.6865V447.936C59.6865 447.509 59.6172 447.147 59.4785 446.848C59.3505 446.539 59.1638 446.288 58.9185 446.096C58.6838 445.904 58.3958 445.765 58.0545 445.68C57.7238 445.584 57.3505 445.536 56.9345 445.536C56.3905 445.536 55.8892 445.659 55.4305 445.904C54.9825 446.149 54.6198 446.496 54.3425 446.944C54.1718 446.432 53.8785 446.069 53.4625 445.856C53.0465 445.643 52.5825 445.536 52.0705 445.536C50.9078 445.536 50.0172 446.005 49.3985 446.944H49.3665V445.728H48.0865ZM69.0551 453.968C68.8205 454.107 68.4951 454.176 68.0791 454.176C67.7271 454.176 67.4445 454.08 67.2311 453.888C67.0285 453.685 66.9271 453.36 66.9271 452.912C66.5538 453.36 66.1165 453.685 65.6151 453.888C65.1245 454.08 64.5911 454.176 64.0151 454.176C63.6418 454.176 63.2845 454.133 62.9431 454.048C62.6125 453.963 62.3245 453.829 62.0791 453.648C61.8338 453.467 61.6365 453.232 61.4871 452.944C61.3485 452.645 61.2791 452.288 61.2791 451.872C61.2791 451.403 61.3591 451.019 61.5191 450.72C61.6791 450.421 61.8871 450.181 62.1431 450C62.4098 449.808 62.7085 449.664 63.0391 449.568C63.3805 449.472 63.7271 449.392 64.0791 449.328C64.4525 449.253 64.8045 449.2 65.1351 449.168C65.4765 449.125 65.7751 449.072 66.0311 449.008C66.2871 448.933 66.4898 448.832 66.6391 448.704C66.7885 448.565 66.8631 448.368 66.8631 448.112C66.8631 447.813 66.8045 447.573 66.6871 447.392C66.5805 447.211 66.4365 447.072 66.2551 446.976C66.0845 446.88 65.8871 446.816 65.6631 446.784C65.4498 446.752 65.2365 446.736 65.0231 446.736C64.4471 446.736 63.9671 446.848 63.5831 447.072C63.1991 447.285 62.9911 447.696 62.9591 448.304H61.5991C61.6205 447.792 61.7271 447.36 61.9191 447.008C62.1111 446.656 62.3671 446.373 62.6871 446.16C63.0071 445.936 63.3698 445.776 63.7751 445.68C64.1911 445.584 64.6338 445.536 65.1031 445.536C65.4765 445.536 65.8445 445.563 66.2071 445.616C66.5805 445.669 66.9165 445.781 67.2151 445.952C67.5138 446.112 67.7538 446.341 67.9351 446.64C68.1165 446.939 68.2071 447.328 68.2071 447.808V452.064C68.2071 452.384 68.2231 452.619 68.2551 452.768C68.2978 452.917 68.4258 452.992 68.6391 452.992C68.7565 452.992 68.8951 452.965 69.0551 452.912V453.968ZM66.8471 449.728C66.6765 449.856 66.4525 449.952 66.1751 450.016C65.8978 450.069 65.6045 450.117 65.2951 450.16C64.9965 450.192 64.6925 450.235 64.3831 450.288C64.0738 450.331 63.7965 450.405 63.5511 450.512C63.3058 450.619 63.1031 450.773 62.9431 450.976C62.7938 451.168 62.7191 451.435 62.7191 451.776C62.7191 452 62.7618 452.192 62.8471 452.352C62.9431 452.501 63.0605 452.624 63.1991 452.72C63.3485 452.816 63.5191 452.885 63.7111 452.928C63.9031 452.971 64.1058 452.992 64.3191 452.992C64.7671 452.992 65.1511 452.933 65.4711 452.816C65.7911 452.688 66.0525 452.533 66.2551 452.352C66.4578 452.16 66.6071 451.957 66.7031 451.744C66.7991 451.52 66.8471 451.312 66.8471 451.12V449.728ZM70.3209 445.728V454H71.6809V449.328C71.6809 448.955 71.7289 448.613 71.8249 448.304C71.9315 447.984 72.0862 447.707 72.2889 447.472C72.4915 447.237 72.7422 447.056 73.0409 446.928C73.3502 446.8 73.7129 446.736 74.1289 446.736C74.6515 446.736 75.0622 446.885 75.3609 447.184C75.6595 447.483 75.8089 447.888 75.8089 448.4V454H77.1689V448.56C77.1689 448.112 77.1209 447.707 77.0249 447.344C76.9395 446.971 76.7849 446.651 76.5609 446.384C76.3369 446.117 76.0435 445.909 75.6809 445.76C75.3182 445.611 74.8649 445.536 74.3209 445.536C73.0942 445.536 72.1982 446.037 71.6329 447.04H71.6009V445.728H70.3209ZM82.4595 455.104C82.2995 455.509 82.1395 455.851 81.9795 456.128C81.8302 456.405 81.6595 456.629 81.4675 456.8C81.2862 456.981 81.0782 457.109 80.8435 457.184C80.6195 457.269 80.3582 457.312 80.0595 457.312C79.8995 457.312 79.7395 457.301 79.5795 457.28C79.4195 457.259 79.2648 457.221 79.1155 457.168V455.92C79.2328 455.973 79.3662 456.016 79.5155 456.048C79.6755 456.091 79.8088 456.112 79.9155 456.112C80.1928 456.112 80.4222 456.043 80.6035 455.904C80.7955 455.776 80.9395 455.589 81.0355 455.344L81.5955 453.952L78.3155 445.728H79.8515L82.2675 452.496H82.2995L84.6195 445.728H86.0595L82.4595 455.104Z" fill="#333333"/>
<rect width="295" height="44" transform="translate(1 470)" fill="white"/>
<path d="M22.248 486.576V498H23.768V492.768H29.784V498H31.304V486.576H29.784V491.488H23.768V486.576H22.248ZM34.5629 493.872C34.5629 493.371 34.6269 492.928 34.7549 492.544C34.8935 492.149 35.0802 491.819 35.3149 491.552C35.5495 491.285 35.8215 491.083 36.1309 490.944C36.4509 490.805 36.7869 490.736 37.1389 490.736C37.4909 490.736 37.8215 490.805 38.1309 490.944C38.4509 491.083 38.7282 491.285 38.9629 491.552C39.1975 491.819 39.3789 492.149 39.5069 492.544C39.6455 492.928 39.7149 493.371 39.7149 493.872C39.7149 494.373 39.6455 494.821 39.5069 495.216C39.3789 495.6 39.1975 495.925 38.9629 496.192C38.7282 496.448 38.4509 496.645 38.1309 496.784C37.8215 496.923 37.4909 496.992 37.1389 496.992C36.7869 496.992 36.4509 496.923 36.1309 496.784C35.8215 496.645 35.5495 496.448 35.3149 496.192C35.0802 495.925 34.8935 495.6 34.7549 495.216C34.6269 494.821 34.5629 494.373 34.5629 493.872ZM33.1229 493.872C33.1229 494.48 33.2082 495.045 33.3789 495.568C33.5495 496.091 33.8055 496.549 34.1469 496.944C34.4882 497.328 34.9095 497.632 35.4109 497.856C35.9122 498.069 36.4882 498.176 37.1389 498.176C37.8002 498.176 38.3762 498.069 38.8669 497.856C39.3682 497.632 39.7895 497.328 40.1309 496.944C40.4722 496.549 40.7282 496.091 40.8989 495.568C41.0695 495.045 41.1549 494.48 41.1549 493.872C41.1549 493.264 41.0695 492.699 40.8989 492.176C40.7282 491.643 40.4722 491.184 40.1309 490.8C39.7895 490.405 39.3682 490.096 38.8669 489.872C38.3762 489.648 37.8002 489.536 37.1389 489.536C36.4882 489.536 35.9122 489.648 35.4109 489.872C34.9095 490.096 34.4882 490.405 34.1469 490.8C33.8055 491.184 33.5495 491.643 33.3789 492.176C33.2082 492.699 33.1229 493.264 33.1229 493.872ZM42.7584 489.728V498H44.1184V493.328C44.1184 492.955 44.1664 492.613 44.2624 492.304C44.369 491.984 44.5237 491.707 44.7264 491.472C44.929 491.237 45.1797 491.056 45.4784 490.928C45.7877 490.8 46.1504 490.736 46.5664 490.736C47.089 490.736 47.4997 490.885 47.7984 491.184C48.097 491.483 48.2464 491.888 48.2464 492.4V498H49.6064V492.56C49.6064 492.112 49.5584 491.707 49.4624 491.344C49.377 490.971 49.2224 490.651 48.9984 490.384C48.7744 490.117 48.481 489.909 48.1184 489.76C47.7557 489.611 47.3024 489.536 46.7584 489.536C45.5317 489.536 44.6357 490.037 44.0704 491.04H44.0384V489.728H42.7584ZM58.785 497.296V489.728H57.505V490.912H57.489C57.2437 490.453 56.9023 490.112 56.465 489.888C56.0277 489.653 55.5477 489.536 55.025 489.536C54.3103 489.536 53.7077 489.675 53.217 489.952C52.7263 490.219 52.3317 490.565 52.033 490.992C51.7343 491.408 51.521 491.877 51.393 492.4C51.265 492.912 51.201 493.413 51.201 493.904C51.201 494.469 51.2757 495.008 51.425 495.52C51.585 496.021 51.8197 496.464 52.129 496.848C52.4383 497.221 52.8223 497.52 53.281 497.744C53.7397 497.968 54.2783 498.08 54.897 498.08C55.4303 498.08 55.9317 497.963 56.401 497.728C56.881 497.483 57.2383 497.104 57.473 496.592H57.505V497.136C57.505 497.595 57.457 498.016 57.361 498.4C57.2757 498.784 57.1317 499.109 56.929 499.376C56.7263 499.653 56.4703 499.867 56.161 500.016C55.8517 500.176 55.473 500.256 55.025 500.256C54.801 500.256 54.5663 500.229 54.321 500.176C54.0757 500.133 53.8463 500.059 53.633 499.952C53.4303 499.845 53.2543 499.707 53.105 499.536C52.9663 499.365 52.8917 499.157 52.881 498.912H51.521C51.5423 499.36 51.6597 499.739 51.873 500.048C52.0863 500.357 52.353 500.608 52.673 500.8C53.0037 500.992 53.3663 501.131 53.761 501.216C54.1663 501.301 54.561 501.344 54.945 501.344C56.2677 501.344 57.2383 501.008 57.857 500.336C58.4757 499.664 58.785 498.651 58.785 497.296ZM54.977 496.896C54.529 496.896 54.1557 496.805 53.857 496.624C53.5583 496.432 53.3183 496.187 53.137 495.888C52.9557 495.579 52.8277 495.237 52.753 494.864C52.6783 494.491 52.641 494.117 52.641 493.744C52.641 493.349 52.6837 492.971 52.769 492.608C52.865 492.245 53.009 491.925 53.201 491.648C53.4037 491.371 53.6597 491.152 53.969 490.992C54.2783 490.821 54.6517 490.736 55.089 490.736C55.5157 490.736 55.8783 490.821 56.177 490.992C56.4757 491.163 56.7157 491.392 56.897 491.68C57.089 491.957 57.2277 492.272 57.313 492.624C57.3983 492.976 57.441 493.333 57.441 493.696C57.441 494.08 57.393 494.464 57.297 494.848C57.2117 495.232 57.073 495.579 56.881 495.888C56.689 496.187 56.433 496.432 56.113 496.624C55.8037 496.805 55.425 496.896 54.977 496.896ZM65.5136 486.576V498H67.0336V494L68.9376 492.224L73.0656 498H74.9856L69.9776 491.184L74.7936 486.576H72.8256L67.0336 492.272V486.576H65.5136ZM76.9535 493.872C76.9535 493.371 77.0175 492.928 77.1455 492.544C77.2842 492.149 77.4708 491.819 77.7055 491.552C77.9402 491.285 78.2122 491.083 78.5215 490.944C78.8415 490.805 79.1775 490.736 79.5295 490.736C79.8815 490.736 80.2122 490.805 80.5215 490.944C80.8415 491.083 81.1188 491.285 81.3535 491.552C81.5882 491.819 81.7695 492.149 81.8975 492.544C82.0362 492.928 82.1055 493.371 82.1055 493.872C82.1055 494.373 82.0362 494.821 81.8975 495.216C81.7695 495.6 81.5882 495.925 81.3535 496.192C81.1188 496.448 80.8415 496.645 80.5215 496.784C80.2122 496.923 79.8815 496.992 79.5295 496.992C79.1775 496.992 78.8415 496.923 78.5215 496.784C78.2122 496.645 77.9402 496.448 77.7055 496.192C77.4708 495.925 77.2842 495.6 77.1455 495.216C77.0175 494.821 76.9535 494.373 76.9535 493.872ZM75.5135 493.872C75.5135 494.48 75.5988 495.045 75.7695 495.568C75.9402 496.091 76.1962 496.549 76.5375 496.944C76.8788 497.328 77.3002 497.632 77.8015 497.856C78.3028 498.069 78.8788 498.176 79.5295 498.176C80.1908 498.176 80.7668 498.069 81.2575 497.856C81.7588 497.632 82.1802 497.328 82.5215 496.944C82.8628 496.549 83.1188 496.091 83.2895 495.568C83.4602 495.045 83.5455 494.48 83.5455 493.872C83.5455 493.264 83.4602 492.699 83.2895 492.176C83.1188 491.643 82.8628 491.184 82.5215 490.8C82.1802 490.405 81.7588 490.096 81.2575 489.872C80.7668 489.648 80.1908 489.536 79.5295 489.536C78.8788 489.536 78.3028 489.648 77.8015 489.872C77.3002 490.096 76.8788 490.405 76.5375 490.8C76.1962 491.184 75.9402 491.643 75.7695 492.176C75.5988 492.699 75.5135 493.264 75.5135 493.872ZM85.149 489.728V498H86.509V493.328C86.509 492.955 86.557 492.613 86.653 492.304C86.7597 491.984 86.9143 491.707 87.117 491.472C87.3197 491.237 87.5703 491.056 87.869 490.928C88.1783 490.8 88.541 490.736 88.957 490.736C89.4797 490.736 89.8903 490.885 90.189 491.184C90.4877 491.483 90.637 491.888 90.637 492.4V498H91.997V492.56C91.997 492.112 91.949 491.707 91.853 491.344C91.7677 490.971 91.613 490.651 91.389 490.384C91.165 490.117 90.8717 489.909 90.509 489.76C90.1463 489.611 89.693 489.536 89.149 489.536C87.9223 489.536 87.0263 490.037 86.461 491.04H86.429V489.728H85.149ZM101.176 497.296V489.728H99.8956V490.912H99.8796C99.6343 490.453 99.293 490.112 98.8556 489.888C98.4183 489.653 97.9383 489.536 97.4156 489.536C96.701 489.536 96.0983 489.675 95.6076 489.952C95.117 490.219 94.7223 490.565 94.4236 490.992C94.125 491.408 93.9116 491.877 93.7836 492.4C93.6556 492.912 93.5916 493.413 93.5916 493.904C93.5916 494.469 93.6663 495.008 93.8156 495.52C93.9756 496.021 94.2103 496.464 94.5196 496.848C94.829 497.221 95.213 497.52 95.6716 497.744C96.1303 497.968 96.669 498.08 97.2876 498.08C97.821 498.08 98.3223 497.963 98.7916 497.728C99.2716 497.483 99.629 497.104 99.8636 496.592H99.8956V497.136C99.8956 497.595 99.8476 498.016 99.7516 498.4C99.6663 498.784 99.5223 499.109 99.3196 499.376C99.117 499.653 98.861 499.867 98.5516 500.016C98.2423 500.176 97.8636 500.256 97.4156 500.256C97.1916 500.256 96.957 500.229 96.7116 500.176C96.4663 500.133 96.237 500.059 96.0236 499.952C95.821 499.845 95.645 499.707 95.4956 499.536C95.357 499.365 95.2823 499.157 95.2716 498.912H93.9116C93.933 499.36 94.0503 499.739 94.2636 500.048C94.477 500.357 94.7436 500.608 95.0636 500.8C95.3943 500.992 95.757 501.131 96.1516 501.216C96.557 501.301 96.9516 501.344 97.3356 501.344C98.6583 501.344 99.629 501.008 100.248 500.336C100.866 499.664 101.176 498.651 101.176 497.296ZM97.3676 496.896C96.9196 496.896 96.5463 496.805 96.2476 496.624C95.949 496.432 95.709 496.187 95.5276 495.888C95.3463 495.579 95.2183 495.237 95.1436 494.864C95.069 494.491 95.0316 494.117 95.0316 493.744C95.0316 493.349 95.0743 492.971 95.1596 492.608C95.2556 492.245 95.3996 491.925 95.5916 491.648C95.7943 491.371 96.0503 491.152 96.3596 490.992C96.669 490.821 97.0423 490.736 97.4796 490.736C97.9063 490.736 98.269 490.821 98.5676 490.992C98.8663 491.163 99.1063 491.392 99.2876 491.68C99.4796 491.957 99.6183 492.272 99.7036 492.624C99.789 492.976 99.8316 493.333 99.8316 493.696C99.8316 494.08 99.7836 494.464 99.6876 494.848C99.6023 495.232 99.4636 495.579 99.2716 495.888C99.0796 496.187 98.8236 496.432 98.5036 496.624C98.1943 496.805 97.8156 496.896 97.3676 496.896Z" fill="#333333"/>
</g>
<defs>
<filter id="filter0_d_408_7326" x="0" y="0" width="297" height="500" filterUnits="userSpaceOnUse" color-interpolation-filters="sRGB">
<feFlood flood-opacity="0" result="BackgroundImageFix"/>
<feColorMatrix in="SourceAlpha" type="matrix" values="0 0 0 0 0 0 0 0 0 0 0 0 0 0 0 0 0 0 127 0" result="hardAlpha"/>
<feOffset dy="1"/>
<feGaussianBlur stdDeviation="0.5"/>
<feColorMatrix type="matrix" values="0 0 0 0 0 0 0 0 0 0 0 0 0 0 0 0 0 0 0.1 0"/>
<feBlend mode="normal" in2="BackgroundImageFix" result="effect1_dropShadow_408_7326"/>
<feBlend mode="normal" in="SourceGraphic" in2="effect1_dropShadow_408_7326" result="shape"/>
</filter>
<clipPath id="clip0_408_7326">
<rect width="295" height="498" fill="white" transform="translate(1)"/>
</clipPath>
</defs>
</svg>
