<svg width="1771" height="346" viewBox="0 0 1771 346" fill="none" xmlns="http://www.w3.org/2000/svg">
<rect x="0.5" y="0.5" width="1770" height="345" rx="4.5" stroke="#7B61FF" stroke-dasharray="10 5"/>
<path d="M21.104 26.576V38H29.184V35.888H23.616V26.576H21.104ZM30.2524 32.272C30.2844 31.7387 30.4177 31.296 30.6524 30.944C30.887 30.592 31.1857 30.3093 31.5484 30.096C31.911 29.8827 32.3164 29.7333 32.7644 29.648C33.223 29.552 33.6817 29.504 34.1404 29.504C34.5564 29.504 34.9777 29.536 35.4044 29.6C35.831 29.6533 36.2204 29.7653 36.5724 29.936C36.9244 30.1067 37.2124 30.3467 37.4364 30.656C37.6604 30.9547 37.7724 31.3547 37.7724 31.856V36.16C37.7724 36.5333 37.7937 36.8907 37.8364 37.232C37.879 37.5733 37.9537 37.8293 38.0604 38H35.7564C35.7137 37.872 35.6764 37.744 35.6444 37.616C35.623 37.4773 35.607 37.3387 35.5964 37.2C35.2337 37.5733 34.807 37.8347 34.3164 37.984C33.8257 38.1333 33.3244 38.208 32.8124 38.208C32.4177 38.208 32.0497 38.16 31.7084 38.064C31.367 37.968 31.0684 37.8187 30.8124 37.616C30.5564 37.4133 30.3537 37.1573 30.2044 36.848C30.0657 36.5387 29.9964 36.1707 29.9964 35.744C29.9964 35.2747 30.0764 34.8907 30.2364 34.592C30.407 34.2827 30.6204 34.0373 30.8764 33.856C31.143 33.6747 31.4417 33.5413 31.7724 33.456C32.1137 33.36 32.455 33.2853 32.7964 33.232C33.1377 33.1787 33.4737 33.136 33.8044 33.104C34.135 33.072 34.4284 33.024 34.6844 32.96C34.9404 32.896 35.143 32.8053 35.2924 32.688C35.4417 32.56 35.511 32.3787 35.5004 32.144C35.5004 31.8987 35.4577 31.7067 35.3724 31.568C35.2977 31.4187 35.191 31.3067 35.0524 31.232C34.9244 31.1467 34.7697 31.0933 34.5884 31.072C34.4177 31.04 34.231 31.024 34.0284 31.024C33.5804 31.024 33.2284 31.12 32.9724 31.312C32.7164 31.504 32.567 31.824 32.5244 32.272H30.2524ZM35.5004 33.952C35.4044 34.0373 35.2817 34.1067 35.1324 34.16C34.9937 34.2027 34.839 34.24 34.6684 34.272C34.5084 34.304 34.3377 34.3307 34.1564 34.352C33.975 34.3733 33.7937 34.4 33.6124 34.432C33.4417 34.464 33.271 34.5067 33.1004 34.56C32.9404 34.6133 32.7964 34.688 32.6684 34.784C32.551 34.8693 32.455 34.9813 32.3804 35.12C32.3057 35.2587 32.2684 35.4347 32.2684 35.648C32.2684 35.8507 32.3057 36.0213 32.3804 36.16C32.455 36.2987 32.5564 36.4107 32.6844 36.496C32.8124 36.5707 32.9617 36.624 33.1324 36.656C33.303 36.688 33.479 36.704 33.6604 36.704C34.1084 36.704 34.455 36.6293 34.7004 36.48C34.9457 36.3307 35.127 36.1547 35.2444 35.952C35.3617 35.7387 35.431 35.5253 35.4524 35.312C35.4844 35.0987 35.5004 34.928 35.5004 34.8V33.952ZM45.5999 33.872C45.5999 34.2133 45.5625 34.544 45.4879 34.864C45.4132 35.184 45.2959 35.4667 45.1359 35.712C44.9759 35.9573 44.7732 36.1547 44.5279 36.304C44.2932 36.4427 44.0052 36.512 43.6639 36.512C43.3332 36.512 43.0452 36.4427 42.7999 36.304C42.5545 36.1547 42.3519 35.9573 42.1919 35.712C42.0319 35.4667 41.9145 35.184 41.8399 34.864C41.7652 34.544 41.7279 34.2133 41.7279 33.872C41.7279 33.52 41.7652 33.184 41.8399 32.864C41.9145 32.544 42.0319 32.2613 42.1919 32.016C42.3519 31.7707 42.5545 31.5787 42.7999 31.44C43.0452 31.2907 43.3332 31.216 43.6639 31.216C44.0052 31.216 44.2932 31.2907 44.5279 31.44C44.7732 31.5787 44.9759 31.7707 45.1359 32.016C45.2959 32.2613 45.4132 32.544 45.4879 32.864C45.5625 33.184 45.5999 33.52 45.5999 33.872ZM39.5359 26.576V38H41.6959V36.944H41.7279C41.9732 37.4027 42.3359 37.728 42.8159 37.92C43.2959 38.112 43.8399 38.208 44.4479 38.208C44.8639 38.208 45.2745 38.1227 45.6799 37.952C46.0852 37.7813 46.4479 37.52 46.7679 37.168C47.0985 36.816 47.3652 36.368 47.5679 35.824C47.7705 35.2693 47.8719 34.6133 47.8719 33.856C47.8719 33.0987 47.7705 32.448 47.5679 31.904C47.3652 31.3493 47.0985 30.896 46.7679 30.544C46.4479 30.192 46.0852 29.9307 45.6799 29.76C45.2745 29.5893 44.8639 29.504 44.4479 29.504C43.9359 29.504 43.4399 29.6053 42.9599 29.808C42.4905 30 42.1172 30.3093 41.8399 30.736H41.8079V26.576H39.5359ZM54.8851 32.976H51.1891C51.1998 32.816 51.2318 32.6347 51.2851 32.432C51.3491 32.2293 51.4505 32.0373 51.5891 31.856C51.7385 31.6747 51.9305 31.5253 52.1651 31.408C52.4105 31.28 52.7145 31.216 53.0771 31.216C53.6318 31.216 54.0425 31.3653 54.3091 31.664C54.5865 31.9627 54.7785 32.4 54.8851 32.976ZM51.1891 34.416H57.1571C57.1998 33.776 57.1465 33.1627 56.9971 32.576C56.8478 31.9893 56.6025 31.4667 56.2611 31.008C55.9305 30.5493 55.5038 30.1867 54.9811 29.92C54.4585 29.6427 53.8451 29.504 53.1411 29.504C52.5118 29.504 51.9358 29.616 51.4131 29.84C50.9011 30.064 50.4585 30.3733 50.0851 30.768C49.7118 31.152 49.4238 31.6107 49.2211 32.144C49.0185 32.6773 48.9171 33.2533 48.9171 33.872C48.9171 34.512 49.0131 35.0987 49.2051 35.632C49.4078 36.1653 49.6905 36.624 50.0531 37.008C50.4158 37.392 50.8585 37.6907 51.3811 37.904C51.9038 38.1067 52.4905 38.208 53.1411 38.208C54.0798 38.208 54.8798 37.9947 55.5411 37.568C56.2025 37.1413 56.6931 36.432 57.0131 35.44H55.0131C54.9385 35.696 54.7358 35.9413 54.4051 36.176C54.0745 36.4 53.6798 36.512 53.2211 36.512C52.5811 36.512 52.0905 36.3467 51.7491 36.016C51.4078 35.6853 51.2211 35.152 51.1891 34.416ZM58.5686 26.576V38H60.8406V26.576H58.5686ZM69.9628 29.728V27.248H67.6908V29.728H66.3148V31.248H67.6908V36.128C67.6908 36.544 67.7601 36.88 67.8988 37.136C68.0374 37.392 68.2241 37.5893 68.4588 37.728C68.7041 37.8667 68.9814 37.9573 69.2908 38C69.6108 38.0533 69.9468 38.08 70.2988 38.08C70.5228 38.08 70.7521 38.0747 70.9868 38.064C71.2214 38.0533 71.4348 38.032 71.6268 38V36.24C71.5201 36.2613 71.4081 36.2773 71.2908 36.288C71.1734 36.2987 71.0508 36.304 70.9227 36.304C70.5388 36.304 70.2828 36.24 70.1548 36.112C70.0268 35.984 69.9628 35.728 69.9628 35.344V31.248H71.6268V29.728H69.9628ZM78.2758 32.976H74.5798C74.5904 32.816 74.6224 32.6347 74.6758 32.432C74.7398 32.2293 74.8411 32.0373 74.9798 31.856C75.1291 31.6747 75.3211 31.5253 75.5558 31.408C75.8011 31.28 76.1051 31.216 76.4678 31.216C77.0224 31.216 77.4331 31.3653 77.6998 31.664C77.9771 31.9627 78.1691 32.4 78.2758 32.976ZM74.5798 34.416H80.5478C80.5904 33.776 80.5371 33.1627 80.3878 32.576C80.2384 31.9893 79.9931 31.4667 79.6518 31.008C79.3211 30.5493 78.8944 30.1867 78.3718 29.92C77.8491 29.6427 77.2358 29.504 76.5318 29.504C75.9024 29.504 75.3264 29.616 74.8038 29.84C74.2918 30.064 73.8491 30.3733 73.4758 30.768C73.1024 31.152 72.8144 31.6107 72.6118 32.144C72.4091 32.6773 72.3078 33.2533 72.3078 33.872C72.3078 34.512 72.4038 35.0987 72.5958 35.632C72.7984 36.1653 73.0811 36.624 73.4438 37.008C73.8064 37.392 74.2491 37.6907 74.7718 37.904C75.2944 38.1067 75.8811 38.208 76.5318 38.208C77.4704 38.208 78.2704 37.9947 78.9318 37.568C79.5931 37.1413 80.0838 36.432 80.4038 35.44H78.4038C78.3291 35.696 78.1264 35.9413 77.7958 36.176C77.4651 36.4 77.0704 36.512 76.6118 36.512C75.9718 36.512 75.4811 36.3467 75.1398 36.016C74.7984 35.6853 74.6118 35.152 74.5798 34.416ZM84.0073 33.648L81.0312 38H83.5753L85.3033 35.392L87.0313 38H89.6233L86.5673 33.6L89.2873 29.728H86.7753L85.3353 31.888L83.8793 29.728H81.2873L84.0073 33.648ZM93.369 29.728V27.248H91.097V29.728H89.721V31.248H91.097V36.128C91.097 36.544 91.1663 36.88 91.305 37.136C91.4437 37.392 91.6303 37.5893 91.865 37.728C92.1103 37.8667 92.3877 37.9573 92.697 38C93.017 38.0533 93.353 38.08 93.705 38.08C93.929 38.08 94.1583 38.0747 94.393 38.064C94.6277 38.0533 94.841 38.032 95.033 38V36.24C94.9263 36.2613 94.8143 36.2773 94.697 36.288C94.5797 36.2987 94.457 36.304 94.329 36.304C93.945 36.304 93.689 36.24 93.561 36.112C93.433 35.984 93.369 35.728 93.369 35.344V31.248H95.033V29.728H93.369Z" fill="#333333"/>
<rect x="20.5" y="49.5" width="294" height="49" rx="3.5" fill="#F7F8F9"/>
<rect x="20.5" y="49.5" width="294" height="49" rx="3.5" stroke="#8E9092"/>
<path fill-rule="evenodd" clip-rule="evenodd" d="M44.7465 75.7744L50.4236 81.4514C50.6921 81.7197 50.6921 82.1553 50.4236 82.4236C50.2893 82.5579 50.1134 82.625 49.9375 82.625C49.7616 82.625 49.5857 82.5579 49.4514 82.4236L43.7744 76.7465C42.3762 77.9133 40.6578 78.5 38.9375 78.5C37.0021 78.5 35.0667 77.7617 33.59 76.285C30.6367 73.3317 30.6367 68.5433 33.59 65.59C35.0667 64.1133 37.0021 63.375 38.9375 63.375C40.8729 63.375 42.8083 64.1133 44.285 65.59C47.0743 68.3792 47.2258 72.8033 44.7465 75.7744ZM32.75 70.9375C32.75 72.5902 33.3936 74.1441 34.5623 75.3127C35.7309 76.4814 37.2848 77.125 38.9375 77.125C40.5902 77.125 42.1441 76.4814 43.3127 75.3127C44.4814 74.1441 45.125 72.5902 45.125 70.9375C45.125 69.2848 44.4814 67.7309 43.3127 66.5623C42.1441 65.3936 40.5902 64.75 38.9375 64.75C37.2848 64.75 35.7309 65.3936 34.5623 66.5623C33.3936 67.7309 32.75 69.2848 32.75 70.9375Z" fill="#53565A"/>
<path d="M69.856 71.92H71.296C71.2747 71.2907 71.152 70.752 70.928 70.304C70.7147 69.8453 70.416 69.4667 70.032 69.168C69.6587 68.8693 69.2213 68.6507 68.72 68.512C68.2187 68.3733 67.6747 68.304 67.088 68.304C66.5653 68.304 66.0533 68.3733 65.552 68.512C65.0613 68.64 64.6187 68.8427 64.224 69.12C63.84 69.3867 63.5307 69.7333 63.296 70.16C63.0613 70.576 62.944 71.072 62.944 71.648C62.944 72.1707 63.0453 72.608 63.248 72.96C63.4613 73.3013 63.7387 73.584 64.08 73.808C64.432 74.0213 64.8267 74.1973 65.264 74.336C65.7013 74.464 66.144 74.5813 66.592 74.688C67.0507 74.784 67.4987 74.88 67.936 74.976C68.3733 75.072 68.7627 75.2 69.104 75.36C69.456 75.5093 69.7333 75.7067 69.936 75.952C70.1493 76.1973 70.256 76.5173 70.256 76.912C70.256 77.328 70.1707 77.6693 70 77.936C69.8293 78.2027 69.6053 78.416 69.328 78.576C69.0507 78.7253 68.736 78.832 68.384 78.896C68.0427 78.96 67.7013 78.992 67.36 78.992C66.9333 78.992 66.5173 78.9387 66.112 78.832C65.7067 78.7253 65.3493 78.56 65.04 78.336C64.7413 78.112 64.496 77.8293 64.304 77.488C64.1227 77.136 64.032 76.72 64.032 76.24H62.592C62.592 76.9333 62.7147 77.536 62.96 78.048C63.216 78.5493 63.5573 78.9653 63.984 79.296C64.4213 79.616 64.9227 79.856 65.488 80.016C66.064 80.176 66.672 80.256 67.312 80.256C67.8347 80.256 68.3573 80.192 68.88 80.064C69.4133 79.9467 69.8933 79.7547 70.32 79.488C70.7467 79.2107 71.0933 78.8587 71.36 78.432C71.6373 77.9947 71.776 77.472 71.776 76.864C71.776 76.2987 71.6693 75.8293 71.456 75.456C71.2533 75.0827 70.976 74.7733 70.624 74.528C70.2827 74.2827 69.8933 74.0907 69.456 73.952C69.0187 73.8027 68.5707 73.6747 68.112 73.568C67.664 73.4613 67.2213 73.3653 66.784 73.28C66.3467 73.184 65.952 73.0667 65.6 72.928C65.2587 72.7893 64.9813 72.6133 64.768 72.4C64.5653 72.176 64.464 71.888 64.464 71.536C64.464 71.1627 64.5333 70.8533 64.672 70.608C64.8213 70.352 65.0133 70.1493 65.248 70C65.4933 69.8507 65.7707 69.744 66.08 69.68C66.3893 69.616 66.704 69.584 67.024 69.584C67.8133 69.584 68.4587 69.7707 68.96 70.144C69.472 70.5067 69.7707 71.0987 69.856 71.92ZM79.143 75.072H74.391C74.4123 74.752 74.4817 74.4533 74.599 74.176C74.7163 73.888 74.8763 73.6373 75.079 73.424C75.2817 73.2107 75.5217 73.0453 75.799 72.928C76.087 72.8 76.407 72.736 76.759 72.736C77.1003 72.736 77.4097 72.8 77.687 72.928C77.975 73.0453 78.2203 73.2107 78.423 73.424C78.6363 73.6267 78.8017 73.872 78.919 74.16C79.047 74.448 79.1217 74.752 79.143 75.072ZM80.455 77.376H79.111C78.9937 77.92 78.7483 78.3253 78.375 78.592C78.0123 78.8587 77.543 78.992 76.967 78.992C76.519 78.992 76.1297 78.9173 75.799 78.768C75.4683 78.6187 75.1963 78.4213 74.983 78.176C74.7697 77.92 74.615 77.632 74.519 77.312C74.423 76.9813 74.3803 76.6347 74.391 76.272H80.583C80.6043 75.7707 80.5563 75.2427 80.439 74.688C80.3323 74.1333 80.1297 73.6213 79.831 73.152C79.543 72.6827 79.1537 72.2987 78.663 72C78.183 71.6907 77.575 71.536 76.839 71.536C76.2737 71.536 75.751 71.6427 75.271 71.856C74.8017 72.0693 74.391 72.368 74.039 72.752C73.6977 73.136 73.431 73.5893 73.239 74.112C73.047 74.6347 72.951 75.2107 72.951 75.84C72.9723 76.4693 73.063 77.0507 73.223 77.584C73.3937 78.1173 73.6443 78.576 73.975 78.96C74.3057 79.344 74.711 79.6427 75.191 79.856C75.6817 80.0693 76.2577 80.176 76.919 80.176C77.8577 80.176 78.6363 79.9413 79.255 79.472C79.8737 79.0027 80.2737 78.304 80.455 77.376ZM89.3208 79.968C89.0861 80.1067 88.7608 80.176 88.3448 80.176C87.9928 80.176 87.7101 80.08 87.4968 79.888C87.2941 79.6853 87.1928 79.36 87.1928 78.912C86.8194 79.36 86.3821 79.6853 85.8808 79.888C85.3901 80.08 84.8568 80.176 84.2808 80.176C83.9074 80.176 83.5501 80.1333 83.2088 80.048C82.8781 79.9627 82.5901 79.8293 82.3448 79.648C82.0994 79.4667 81.9021 79.232 81.7528 78.944C81.6141 78.6453 81.5448 78.288 81.5448 77.872C81.5448 77.4027 81.6248 77.0187 81.7848 76.72C81.9448 76.4213 82.1528 76.1813 82.4088 76C82.6754 75.808 82.9741 75.664 83.3048 75.568C83.6461 75.472 83.9928 75.392 84.3448 75.328C84.7181 75.2533 85.0701 75.2 85.4008 75.168C85.7421 75.1253 86.0408 75.072 86.2968 75.008C86.5528 74.9333 86.7554 74.832 86.9048 74.704C87.0541 74.5653 87.1288 74.368 87.1288 74.112C87.1288 73.8133 87.0701 73.5733 86.9528 73.392C86.8461 73.2107 86.7021 73.072 86.5208 72.976C86.3501 72.88 86.1528 72.816 85.9288 72.784C85.7154 72.752 85.5021 72.736 85.2888 72.736C84.7128 72.736 84.2328 72.848 83.8488 73.072C83.4648 73.2853 83.2568 73.696 83.2248 74.304H81.8648C81.8861 73.792 81.9928 73.36 82.1848 73.008C82.3768 72.656 82.6328 72.3733 82.9528 72.16C83.2728 71.936 83.6354 71.776 84.0408 71.68C84.4568 71.584 84.8994 71.536 85.3688 71.536C85.7421 71.536 86.1101 71.5627 86.4728 71.616C86.8461 71.6693 87.1821 71.7813 87.4808 71.952C87.7794 72.112 88.0194 72.3413 88.2008 72.64C88.3821 72.9387 88.4728 73.328 88.4728 73.808V78.064C88.4728 78.384 88.4888 78.6187 88.5208 78.768C88.5634 78.9173 88.6914 78.992 88.9048 78.992C89.0221 78.992 89.1608 78.9653 89.3208 78.912V79.968ZM87.1128 75.728C86.9421 75.856 86.7181 75.952 86.4408 76.016C86.1634 76.0693 85.8701 76.1173 85.5608 76.16C85.2621 76.192 84.9581 76.2347 84.6488 76.288C84.3394 76.3307 84.0621 76.4053 83.8168 76.512C83.5714 76.6187 83.3688 76.7733 83.2088 76.976C83.0594 77.168 82.9848 77.4347 82.9848 77.776C82.9848 78 83.0274 78.192 83.1128 78.352C83.2088 78.5013 83.3261 78.624 83.4648 78.72C83.6141 78.816 83.7848 78.8853 83.9768 78.928C84.1688 78.9707 84.3714 78.992 84.5848 78.992C85.0328 78.992 85.4168 78.9333 85.7368 78.816C86.0568 78.688 86.3181 78.5333 86.5208 78.352C86.7234 78.16 86.8728 77.9573 86.9688 77.744C87.0648 77.52 87.1128 77.312 87.1128 77.12V75.728ZM90.5385 71.728V80H91.8985V76.32C91.8985 75.7867 91.9518 75.3173 92.0585 74.912C92.1652 74.496 92.3358 74.144 92.5705 73.856C92.8052 73.568 93.1145 73.3493 93.4985 73.2C93.8825 73.0507 94.3465 72.976 94.8905 72.976V71.536C94.1545 71.5147 93.5465 71.664 93.0665 71.984C92.5865 72.304 92.1812 72.8 91.8505 73.472H91.8185V71.728H90.5385ZM101.249 74.384H102.657C102.604 73.8933 102.476 73.472 102.273 73.12C102.071 72.7573 101.809 72.4587 101.489 72.224C101.18 71.9893 100.817 71.8187 100.401 71.712C99.996 71.5947 99.5587 71.536 99.0894 71.536C98.4387 71.536 97.868 71.6533 97.3774 71.888C96.8867 72.112 96.476 72.4267 96.1454 72.832C95.8254 73.2267 95.5854 73.696 95.4254 74.24C95.2654 74.7733 95.1854 75.3493 95.1854 75.968C95.1854 76.5867 95.2654 77.1573 95.4254 77.68C95.596 78.192 95.8414 78.6347 96.1614 79.008C96.492 79.3813 96.8974 79.6693 97.3774 79.872C97.868 80.0747 98.428 80.176 99.0574 80.176C100.113 80.176 100.945 79.8987 101.553 79.344C102.172 78.7893 102.556 78 102.705 76.976H101.313C101.228 77.616 100.993 78.112 100.609 78.464C100.236 78.816 99.7134 78.992 99.0414 78.992C98.6147 78.992 98.2467 78.9067 97.9374 78.736C97.628 78.5653 97.3774 78.3413 97.1854 78.064C96.9934 77.776 96.8494 77.4507 96.7534 77.088C96.668 76.7253 96.6254 76.352 96.6254 75.968C96.6254 75.552 96.668 75.152 96.7534 74.768C96.8387 74.3733 96.9774 74.0267 97.1694 73.728C97.372 73.4293 97.6387 73.1893 97.9694 73.008C98.3 72.8267 98.7107 72.736 99.2014 72.736C99.7774 72.736 100.236 72.88 100.577 73.168C100.919 73.456 101.143 73.8613 101.249 74.384ZM104.227 68.576V80H105.587V75.328C105.587 74.9547 105.635 74.6133 105.731 74.304C105.838 73.984 105.992 73.7067 106.195 73.472C106.398 73.2373 106.648 73.056 106.947 72.928C107.256 72.8 107.619 72.736 108.035 72.736C108.558 72.736 108.968 72.8853 109.267 73.184C109.566 73.4827 109.715 73.888 109.715 74.4V80H111.075V74.56C111.075 74.112 111.027 73.7067 110.931 73.344C110.846 72.9707 110.691 72.6507 110.467 72.384C110.243 72.1173 109.95 71.9093 109.587 71.76C109.224 71.6107 108.771 71.536 108.227 71.536C107.982 71.536 107.726 71.5627 107.459 71.616C107.203 71.6693 106.952 71.7547 106.707 71.872C106.472 71.9787 106.259 72.1227 106.067 72.304C105.875 72.4747 105.726 72.688 105.619 72.944H105.587V68.576H104.227Z" fill="#53565A"/>
<path d="M380.104 26.576V38H388.184V35.888H382.616V26.576H380.104ZM389.252 32.272C389.284 31.7387 389.418 31.296 389.652 30.944C389.887 30.592 390.186 30.3093 390.548 30.096C390.911 29.8827 391.316 29.7333 391.764 29.648C392.223 29.552 392.682 29.504 393.14 29.504C393.556 29.504 393.978 29.536 394.404 29.6C394.831 29.6533 395.22 29.7653 395.572 29.936C395.924 30.1067 396.212 30.3467 396.436 30.656C396.66 30.9547 396.772 31.3547 396.772 31.856V36.16C396.772 36.5333 396.794 36.8907 396.836 37.232C396.879 37.5733 396.954 37.8293 397.06 38H394.756C394.714 37.872 394.676 37.744 394.644 37.616C394.623 37.4773 394.607 37.3387 394.596 37.2C394.234 37.5733 393.807 37.8347 393.316 37.984C392.826 38.1333 392.324 38.208 391.812 38.208C391.418 38.208 391.05 38.16 390.708 38.064C390.367 37.968 390.068 37.8187 389.812 37.616C389.556 37.4133 389.354 37.1573 389.204 36.848C389.066 36.5387 388.996 36.1707 388.996 35.744C388.996 35.2747 389.076 34.8907 389.236 34.592C389.407 34.2827 389.62 34.0373 389.876 33.856C390.143 33.6747 390.442 33.5413 390.772 33.456C391.114 33.36 391.455 33.2853 391.796 33.232C392.138 33.1787 392.474 33.136 392.804 33.104C393.135 33.072 393.428 33.024 393.684 32.96C393.94 32.896 394.143 32.8053 394.292 32.688C394.442 32.56 394.511 32.3787 394.5 32.144C394.5 31.8987 394.458 31.7067 394.372 31.568C394.298 31.4187 394.191 31.3067 394.052 31.232C393.924 31.1467 393.77 31.0933 393.588 31.072C393.418 31.04 393.231 31.024 393.028 31.024C392.58 31.024 392.228 31.12 391.972 31.312C391.716 31.504 391.567 31.824 391.524 32.272H389.252ZM394.5 33.952C394.404 34.0373 394.282 34.1067 394.132 34.16C393.994 34.2027 393.839 34.24 393.668 34.272C393.508 34.304 393.338 34.3307 393.156 34.352C392.975 34.3733 392.794 34.4 392.612 34.432C392.442 34.464 392.271 34.5067 392.1 34.56C391.94 34.6133 391.796 34.688 391.668 34.784C391.551 34.8693 391.455 34.9813 391.38 35.12C391.306 35.2587 391.268 35.4347 391.268 35.648C391.268 35.8507 391.306 36.0213 391.38 36.16C391.455 36.2987 391.556 36.4107 391.684 36.496C391.812 36.5707 391.962 36.624 392.132 36.656C392.303 36.688 392.479 36.704 392.66 36.704C393.108 36.704 393.455 36.6293 393.7 36.48C393.946 36.3307 394.127 36.1547 394.244 35.952C394.362 35.7387 394.431 35.5253 394.452 35.312C394.484 35.0987 394.5 34.928 394.5 34.8V33.952ZM404.6 33.872C404.6 34.2133 404.563 34.544 404.488 34.864C404.413 35.184 404.296 35.4667 404.136 35.712C403.976 35.9573 403.773 36.1547 403.528 36.304C403.293 36.4427 403.005 36.512 402.664 36.512C402.333 36.512 402.045 36.4427 401.8 36.304C401.555 36.1547 401.352 35.9573 401.192 35.712C401.032 35.4667 400.915 35.184 400.84 34.864C400.765 34.544 400.728 34.2133 400.728 33.872C400.728 33.52 400.765 33.184 400.84 32.864C400.915 32.544 401.032 32.2613 401.192 32.016C401.352 31.7707 401.555 31.5787 401.8 31.44C402.045 31.2907 402.333 31.216 402.664 31.216C403.005 31.216 403.293 31.2907 403.528 31.44C403.773 31.5787 403.976 31.7707 404.136 32.016C404.296 32.2613 404.413 32.544 404.488 32.864C404.563 33.184 404.6 33.52 404.6 33.872ZM398.536 26.576V38H400.696V36.944H400.728C400.973 37.4027 401.336 37.728 401.816 37.92C402.296 38.112 402.84 38.208 403.448 38.208C403.864 38.208 404.275 38.1227 404.68 37.952C405.085 37.7813 405.448 37.52 405.768 37.168C406.099 36.816 406.365 36.368 406.568 35.824C406.771 35.2693 406.872 34.6133 406.872 33.856C406.872 33.0987 406.771 32.448 406.568 31.904C406.365 31.3493 406.099 30.896 405.768 30.544C405.448 30.192 405.085 29.9307 404.68 29.76C404.275 29.5893 403.864 29.504 403.448 29.504C402.936 29.504 402.44 29.6053 401.96 29.808C401.491 30 401.117 30.3093 400.84 30.736H400.808V26.576H398.536ZM413.885 32.976H410.189C410.2 32.816 410.232 32.6347 410.285 32.432C410.349 32.2293 410.45 32.0373 410.589 31.856C410.738 31.6747 410.93 31.5253 411.165 31.408C411.41 31.28 411.714 31.216 412.077 31.216C412.632 31.216 413.042 31.3653 413.309 31.664C413.586 31.9627 413.778 32.4 413.885 32.976ZM410.189 34.416H416.157C416.2 33.776 416.146 33.1627 415.997 32.576C415.848 31.9893 415.602 31.4667 415.261 31.008C414.93 30.5493 414.504 30.1867 413.981 29.92C413.458 29.6427 412.845 29.504 412.141 29.504C411.512 29.504 410.936 29.616 410.413 29.84C409.901 30.064 409.458 30.3733 409.085 30.768C408.712 31.152 408.424 31.6107 408.221 32.144C408.018 32.6773 407.917 33.2533 407.917 33.872C407.917 34.512 408.013 35.0987 408.205 35.632C408.408 36.1653 408.69 36.624 409.053 37.008C409.416 37.392 409.858 37.6907 410.381 37.904C410.904 38.1067 411.49 38.208 412.141 38.208C413.08 38.208 413.88 37.9947 414.541 37.568C415.202 37.1413 415.693 36.432 416.013 35.44H414.013C413.938 35.696 413.736 35.9413 413.405 36.176C413.074 36.4 412.68 36.512 412.221 36.512C411.581 36.512 411.09 36.3467 410.749 36.016C410.408 35.6853 410.221 35.152 410.189 34.416ZM417.569 26.576V38H419.841V26.576H417.569ZM428.963 29.728V27.248H426.691V29.728H425.315V31.248H426.691V36.128C426.691 36.544 426.76 36.88 426.899 37.136C427.037 37.392 427.224 37.5893 427.459 37.728C427.704 37.8667 427.981 37.9573 428.291 38C428.611 38.0533 428.947 38.08 429.299 38.08C429.523 38.08 429.752 38.0747 429.987 38.064C430.221 38.0533 430.435 38.032 430.627 38V36.24C430.52 36.2613 430.408 36.2773 430.291 36.288C430.173 36.2987 430.051 36.304 429.923 36.304C429.539 36.304 429.283 36.24 429.155 36.112C429.027 35.984 428.963 35.728 428.963 35.344V31.248H430.627V29.728H428.963ZM437.276 32.976H433.58C433.59 32.816 433.622 32.6347 433.676 32.432C433.74 32.2293 433.841 32.0373 433.98 31.856C434.129 31.6747 434.321 31.5253 434.556 31.408C434.801 31.28 435.105 31.216 435.468 31.216C436.022 31.216 436.433 31.3653 436.7 31.664C436.977 31.9627 437.169 32.4 437.276 32.976ZM433.58 34.416H439.548C439.59 33.776 439.537 33.1627 439.388 32.576C439.238 31.9893 438.993 31.4667 438.652 31.008C438.321 30.5493 437.894 30.1867 437.372 29.92C436.849 29.6427 436.236 29.504 435.532 29.504C434.902 29.504 434.326 29.616 433.804 29.84C433.292 30.064 432.849 30.3733 432.476 30.768C432.102 31.152 431.814 31.6107 431.612 32.144C431.409 32.6773 431.308 33.2533 431.308 33.872C431.308 34.512 431.404 35.0987 431.596 35.632C431.798 36.1653 432.081 36.624 432.444 37.008C432.806 37.392 433.249 37.6907 433.772 37.904C434.294 38.1067 434.881 38.208 435.532 38.208C436.47 38.208 437.27 37.9947 437.932 37.568C438.593 37.1413 439.084 36.432 439.404 35.44H437.404C437.329 35.696 437.126 35.9413 436.796 36.176C436.465 36.4 436.07 36.512 435.612 36.512C434.972 36.512 434.481 36.3467 434.14 36.016C433.798 35.6853 433.612 35.152 433.58 34.416ZM443.007 33.648L440.031 38H442.575L444.303 35.392L446.031 38H448.623L445.567 33.6L448.287 29.728H445.775L444.335 31.888L442.879 29.728H440.287L443.007 33.648ZM452.369 29.728V27.248H450.097V29.728H448.721V31.248H450.097V36.128C450.097 36.544 450.166 36.88 450.305 37.136C450.444 37.392 450.63 37.5893 450.865 37.728C451.11 37.8667 451.388 37.9573 451.697 38C452.017 38.0533 452.353 38.08 452.705 38.08C452.929 38.08 453.158 38.0747 453.393 38.064C453.628 38.0533 453.841 38.032 454.033 38V36.24C453.926 36.2613 453.814 36.2773 453.697 36.288C453.58 36.2987 453.457 36.304 453.329 36.304C452.945 36.304 452.689 36.24 452.561 36.112C452.433 35.984 452.369 35.728 452.369 35.344V31.248H454.033V29.728H452.369Z" fill="#333333"/>
<rect x="379.5" y="49.5" width="294" height="49" rx="3.5" fill="#F7F8F9"/>
<rect x="379.5" y="49.5" width="294" height="49" rx="3.5" stroke="#006FCF"/>
<path fill-rule="evenodd" clip-rule="evenodd" d="M403.747 75.7744L409.424 81.4514C409.692 81.7197 409.692 82.1553 409.424 82.4236C409.289 82.5579 409.113 82.625 408.937 82.625C408.762 82.625 408.586 82.5579 408.451 82.4236L402.774 76.7465C401.376 77.9133 399.658 78.5 397.937 78.5C396.002 78.5 394.067 77.7617 392.59 76.285C389.637 73.3317 389.637 68.5433 392.59 65.59C394.067 64.1133 396.002 63.375 397.937 63.375C399.873 63.375 401.808 64.1133 403.285 65.59C406.074 68.3792 406.226 72.8033 403.747 75.7744ZM391.75 70.9375C391.75 72.5902 392.394 74.1441 393.562 75.3127C394.731 76.4814 396.285 77.125 397.937 77.125C399.59 77.125 401.144 76.4814 402.313 75.3127C403.481 74.1441 404.125 72.5902 404.125 70.9375C404.125 69.2848 403.481 67.7309 402.313 66.5623C401.144 65.3936 399.59 64.75 397.937 64.75C396.285 64.75 394.731 65.3936 393.562 66.5623C392.394 67.7309 391.75 69.2848 391.75 70.9375Z" fill="#53565A"/>
<path d="M428.856 71.92H430.296C430.275 71.2907 430.152 70.752 429.928 70.304C429.715 69.8453 429.416 69.4667 429.032 69.168C428.659 68.8693 428.221 68.6507 427.72 68.512C427.219 68.3733 426.675 68.304 426.088 68.304C425.565 68.304 425.053 68.3733 424.552 68.512C424.061 68.64 423.619 68.8427 423.224 69.12C422.84 69.3867 422.531 69.7333 422.296 70.16C422.061 70.576 421.944 71.072 421.944 71.648C421.944 72.1707 422.045 72.608 422.248 72.96C422.461 73.3013 422.739 73.584 423.08 73.808C423.432 74.0213 423.827 74.1973 424.264 74.336C424.701 74.464 425.144 74.5813 425.592 74.688C426.051 74.784 426.499 74.88 426.936 74.976C427.373 75.072 427.763 75.2 428.104 75.36C428.456 75.5093 428.733 75.7067 428.936 75.952C429.149 76.1973 429.256 76.5173 429.256 76.912C429.256 77.328 429.171 77.6693 429 77.936C428.829 78.2027 428.605 78.416 428.328 78.576C428.051 78.7253 427.736 78.832 427.384 78.896C427.043 78.96 426.701 78.992 426.36 78.992C425.933 78.992 425.517 78.9387 425.112 78.832C424.707 78.7253 424.349 78.56 424.04 78.336C423.741 78.112 423.496 77.8293 423.304 77.488C423.123 77.136 423.032 76.72 423.032 76.24H421.592C421.592 76.9333 421.715 77.536 421.96 78.048C422.216 78.5493 422.557 78.9653 422.984 79.296C423.421 79.616 423.923 79.856 424.488 80.016C425.064 80.176 425.672 80.256 426.312 80.256C426.835 80.256 427.357 80.192 427.88 80.064C428.413 79.9467 428.893 79.7547 429.32 79.488C429.747 79.2107 430.093 78.8587 430.36 78.432C430.637 77.9947 430.776 77.472 430.776 76.864C430.776 76.2987 430.669 75.8293 430.456 75.456C430.253 75.0827 429.976 74.7733 429.624 74.528C429.283 74.2827 428.893 74.0907 428.456 73.952C428.019 73.8027 427.571 73.6747 427.112 73.568C426.664 73.4613 426.221 73.3653 425.784 73.28C425.347 73.184 424.952 73.0667 424.6 72.928C424.259 72.7893 423.981 72.6133 423.768 72.4C423.565 72.176 423.464 71.888 423.464 71.536C423.464 71.1627 423.533 70.8533 423.672 70.608C423.821 70.352 424.013 70.1493 424.248 70C424.493 69.8507 424.771 69.744 425.08 69.68C425.389 69.616 425.704 69.584 426.024 69.584C426.813 69.584 427.459 69.7707 427.96 70.144C428.472 70.5067 428.771 71.0987 428.856 71.92ZM432.399 68.576V80H433.759V75.328C433.759 74.9547 433.807 74.6133 433.903 74.304C434.01 73.984 434.164 73.7067 434.367 73.472C434.57 73.2373 434.82 73.056 435.119 72.928C435.428 72.8 435.791 72.736 436.207 72.736C436.73 72.736 437.14 72.8853 437.439 73.184C437.738 73.4827 437.887 73.888 437.887 74.4V80H439.247V74.56C439.247 74.112 439.199 73.7067 439.103 73.344C439.018 72.9707 438.863 72.6507 438.639 72.384C438.415 72.1173 438.122 71.9093 437.759 71.76C437.396 71.6107 436.943 71.536 436.399 71.536C436.154 71.536 435.898 71.5627 435.631 71.616C435.375 71.6693 435.124 71.7547 434.879 71.872C434.644 71.9787 434.431 72.1227 434.239 72.304C434.047 72.4747 433.898 72.688 433.791 72.944H433.759V68.576H432.399ZM442.282 75.872C442.282 75.3707 442.346 74.928 442.474 74.544C442.612 74.1493 442.799 73.8187 443.034 73.552C443.268 73.2853 443.54 73.0827 443.85 72.944C444.17 72.8053 444.506 72.736 444.858 72.736C445.21 72.736 445.54 72.8053 445.85 72.944C446.17 73.0827 446.447 73.2853 446.682 73.552C446.916 73.8187 447.098 74.1493 447.226 74.544C447.364 74.928 447.434 75.3707 447.434 75.872C447.434 76.3733 447.364 76.8213 447.226 77.216C447.098 77.6 446.916 77.9253 446.682 78.192C446.447 78.448 446.17 78.6453 445.85 78.784C445.54 78.9227 445.21 78.992 444.858 78.992C444.506 78.992 444.17 78.9227 443.85 78.784C443.54 78.6453 443.268 78.448 443.034 78.192C442.799 77.9253 442.612 77.6 442.474 77.216C442.346 76.8213 442.282 76.3733 442.282 75.872ZM440.842 75.872C440.842 76.48 440.927 77.0453 441.098 77.568C441.268 78.0907 441.524 78.5493 441.866 78.944C442.207 79.328 442.628 79.632 443.13 79.856C443.631 80.0693 444.207 80.176 444.858 80.176C445.519 80.176 446.095 80.0693 446.586 79.856C447.087 79.632 447.508 79.328 447.85 78.944C448.191 78.5493 448.447 78.0907 448.618 77.568C448.788 77.0453 448.874 76.48 448.874 75.872C448.874 75.264 448.788 74.6987 448.618 74.176C448.447 73.6427 448.191 73.184 447.85 72.8C447.508 72.4053 447.087 72.096 446.586 71.872C446.095 71.648 445.519 71.536 444.858 71.536C444.207 71.536 443.631 71.648 443.13 71.872C442.628 72.096 442.207 72.4053 441.866 72.8C441.524 73.184 441.268 73.6427 441.098 74.176C440.927 74.6987 440.842 75.264 440.842 75.872ZM450.525 71.728V83.152H451.885V78.896H451.917C452.066 79.1413 452.248 79.3493 452.461 79.52C452.685 79.68 452.92 79.808 453.165 79.904C453.41 80 453.656 80.0693 453.901 80.112C454.157 80.1547 454.386 80.176 454.589 80.176C455.218 80.176 455.768 80.064 456.237 79.84C456.717 79.616 457.112 79.312 457.421 78.928C457.741 78.5333 457.976 78.0747 458.125 77.552C458.285 77.0293 458.365 76.4747 458.365 75.888C458.365 75.3013 458.285 74.7467 458.125 74.224C457.965 73.7013 457.725 73.2427 457.405 72.848C457.096 72.4427 456.701 72.1227 456.221 71.888C455.752 71.6533 455.197 71.536 454.557 71.536C453.981 71.536 453.453 71.6427 452.973 71.856C452.493 72.0587 452.141 72.3893 451.917 72.848H451.885V71.728H450.525ZM456.925 75.792C456.925 76.1973 456.882 76.592 456.797 76.976C456.712 77.36 456.573 77.7013 456.381 78C456.189 78.2987 455.933 78.5387 455.613 78.72C455.304 78.9013 454.914 78.992 454.445 78.992C453.976 78.992 453.576 78.9067 453.245 78.736C452.914 78.5547 452.642 78.32 452.429 78.032C452.226 77.744 452.077 77.4133 451.981 77.04C451.885 76.656 451.837 76.2613 451.837 75.856C451.837 75.472 451.88 75.0933 451.965 74.72C452.061 74.3467 452.21 74.016 452.413 73.728C452.616 73.4293 452.877 73.1893 453.197 73.008C453.517 72.8267 453.906 72.736 454.365 72.736C454.802 72.736 455.181 72.8213 455.501 72.992C455.832 73.1627 456.098 73.392 456.301 73.68C456.514 73.968 456.669 74.2987 456.765 74.672C456.872 75.0347 456.925 75.408 456.925 75.792ZM471.247 71.92H472.687C472.665 71.2907 472.543 70.752 472.319 70.304C472.105 69.8453 471.807 69.4667 471.423 69.168C471.049 68.8693 470.612 68.6507 470.111 68.512C469.609 68.3733 469.065 68.304 468.479 68.304C467.956 68.304 467.444 68.3733 466.943 68.512C466.452 68.64 466.009 68.8427 465.615 69.12C465.231 69.3867 464.921 69.7333 464.687 70.16C464.452 70.576 464.335 71.072 464.335 71.648C464.335 72.1707 464.436 72.608 464.639 72.96C464.852 73.3013 465.129 73.584 465.471 73.808C465.823 74.0213 466.217 74.1973 466.655 74.336C467.092 74.464 467.535 74.5813 467.983 74.688C468.441 74.784 468.889 74.88 469.327 74.976C469.764 75.072 470.153 75.2 470.495 75.36C470.847 75.5093 471.124 75.7067 471.327 75.952C471.54 76.1973 471.647 76.5173 471.647 76.912C471.647 77.328 471.561 77.6693 471.391 77.936C471.22 78.2027 470.996 78.416 470.719 78.576C470.441 78.7253 470.127 78.832 469.775 78.896C469.433 78.96 469.092 78.992 468.751 78.992C468.324 78.992 467.908 78.9387 467.503 78.832C467.097 78.7253 466.74 78.56 466.431 78.336C466.132 78.112 465.887 77.8293 465.695 77.488C465.513 77.136 465.423 76.72 465.423 76.24H463.983C463.983 76.9333 464.105 77.536 464.351 78.048C464.607 78.5493 464.948 78.9653 465.375 79.296C465.812 79.616 466.313 79.856 466.879 80.016C467.455 80.176 468.063 80.256 468.703 80.256C469.225 80.256 469.748 80.192 470.271 80.064C470.804 79.9467 471.284 79.7547 471.711 79.488C472.137 79.2107 472.484 78.8587 472.751 78.432C473.028 77.9947 473.167 77.472 473.167 76.864C473.167 76.2987 473.06 75.8293 472.847 75.456C472.644 75.0827 472.367 74.7733 472.015 74.528C471.673 74.2827 471.284 74.0907 470.847 73.952C470.409 73.8027 469.961 73.6747 469.503 73.568C469.055 73.4613 468.612 73.3653 468.175 73.28C467.737 73.184 467.343 73.0667 466.991 72.928C466.649 72.7893 466.372 72.6133 466.159 72.4C465.956 72.176 465.855 71.888 465.855 71.536C465.855 71.1627 465.924 70.8533 466.063 70.608C466.212 70.352 466.404 70.1493 466.639 70C466.884 69.8507 467.161 69.744 467.471 69.68C467.78 69.616 468.095 69.584 468.415 69.584C469.204 69.584 469.849 69.7707 470.351 70.144C470.863 70.5067 471.161 71.0987 471.247 71.92ZM474.79 71.728V80H476.15V74.848C476.15 74.688 476.187 74.4907 476.262 74.256C476.347 74.0107 476.475 73.776 476.646 73.552C476.827 73.328 477.056 73.136 477.334 72.976C477.622 72.816 477.963 72.736 478.358 72.736C478.667 72.736 478.918 72.784 479.11 72.88C479.312 72.9653 479.472 73.0933 479.59 73.264C479.707 73.424 479.787 73.616 479.83 73.84C479.883 74.064 479.91 74.3093 479.91 74.576V80H481.27V74.848C481.27 74.208 481.462 73.696 481.846 73.312C482.23 72.928 482.758 72.736 483.43 72.736C483.76 72.736 484.027 72.784 484.23 72.88C484.443 72.976 484.608 73.1093 484.726 73.28C484.843 73.44 484.923 73.632 484.966 73.856C485.008 74.08 485.03 74.32 485.03 74.576V80H486.39V73.936C486.39 73.5093 486.32 73.1467 486.182 72.848C486.054 72.5387 485.867 72.288 485.622 72.096C485.387 71.904 485.099 71.7653 484.758 71.68C484.427 71.584 484.054 71.536 483.638 71.536C483.094 71.536 482.592 71.6587 482.134 71.904C481.686 72.1493 481.323 72.496 481.046 72.944C480.875 72.432 480.582 72.0693 480.166 71.856C479.75 71.6427 479.286 71.536 478.774 71.536C477.611 71.536 476.72 72.0053 476.102 72.944H476.07V71.728H474.79ZM495.758 79.968C495.524 80.1067 495.198 80.176 494.782 80.176C494.43 80.176 494.148 80.08 493.934 79.888C493.732 79.6853 493.63 79.36 493.63 78.912C493.257 79.36 492.82 79.6853 492.318 79.888C491.828 80.08 491.294 80.176 490.718 80.176C490.345 80.176 489.988 80.1333 489.646 80.048C489.316 79.9627 489.028 79.8293 488.782 79.648C488.537 79.4667 488.34 79.232 488.19 78.944C488.052 78.6453 487.982 78.288 487.982 77.872C487.982 77.4027 488.062 77.0187 488.222 76.72C488.382 76.4213 488.59 76.1813 488.846 76C489.113 75.808 489.412 75.664 489.742 75.568C490.084 75.472 490.43 75.392 490.782 75.328C491.156 75.2533 491.508 75.2 491.838 75.168C492.18 75.1253 492.478 75.072 492.734 75.008C492.99 74.9333 493.193 74.832 493.342 74.704C493.492 74.5653 493.566 74.368 493.566 74.112C493.566 73.8133 493.508 73.5733 493.39 73.392C493.284 73.2107 493.14 73.072 492.958 72.976C492.788 72.88 492.59 72.816 492.366 72.784C492.153 72.752 491.94 72.736 491.726 72.736C491.15 72.736 490.67 72.848 490.286 73.072C489.902 73.2853 489.694 73.696 489.662 74.304H488.302C488.324 73.792 488.43 73.36 488.622 73.008C488.814 72.656 489.07 72.3733 489.39 72.16C489.71 71.936 490.073 71.776 490.478 71.68C490.894 71.584 491.337 71.536 491.806 71.536C492.18 71.536 492.548 71.5627 492.91 71.616C493.284 71.6693 493.62 71.7813 493.918 71.952C494.217 72.112 494.457 72.3413 494.638 72.64C494.82 72.9387 494.91 73.328 494.91 73.808V78.064C494.91 78.384 494.926 78.6187 494.958 78.768C495.001 78.9173 495.129 78.992 495.342 78.992C495.46 78.992 495.598 78.9653 495.758 78.912V79.968ZM493.55 75.728C493.38 75.856 493.156 75.952 492.878 76.016C492.601 76.0693 492.308 76.1173 491.998 76.16C491.7 76.192 491.396 76.2347 491.086 76.288C490.777 76.3307 490.5 76.4053 490.254 76.512C490.009 76.6187 489.806 76.7733 489.646 76.976C489.497 77.168 489.422 77.4347 489.422 77.776C489.422 78 489.465 78.192 489.55 78.352C489.646 78.5013 489.764 78.624 489.902 78.72C490.052 78.816 490.222 78.8853 490.414 78.928C490.606 78.9707 490.809 78.992 491.022 78.992C491.47 78.992 491.854 78.9333 492.174 78.816C492.494 78.688 492.756 78.5333 492.958 78.352C493.161 78.16 493.31 77.9573 493.406 77.744C493.502 77.52 493.55 77.312 493.55 77.12V75.728ZM497.104 68.576V80H498.464V68.576H497.104ZM500.651 68.576V80H502.011V68.576H500.651Z" fill="#333333"/>
<path d="M653 72.0279L660.076 64.9514C660.345 64.6829 660.78 64.6829 661.049 64.9514C661.3 65.2031 661.316 65.6014 661.096 65.8714L661.049 65.9236L653.972 73L661.049 80.0764C661.3 80.3281 661.316 80.7264 661.096 80.9964L661.049 81.0486C660.797 81.3003 660.399 81.3161 660.129 81.0958L660.076 81.0486L653 73.9721L645.924 81.0486C645.672 81.3003 645.274 81.3161 645.004 81.0958L644.951 81.0486C644.7 80.7969 644.684 80.3986 644.904 80.1286L644.951 80.0764L652.028 73L644.951 65.9236C644.7 65.6719 644.684 65.2736 644.904 65.0036L644.951 64.9514C645.203 64.6997 645.601 64.6839 645.871 64.9042L645.924 64.9514L653 72.0279L660.076 64.9514L653 72.0279Z" fill="#53565A"/>
<path d="M739.104 26.576V38H747.184V35.888H741.616V26.576H739.104ZM748.252 32.272C748.284 31.7387 748.418 31.296 748.652 30.944C748.887 30.592 749.186 30.3093 749.548 30.096C749.911 29.8827 750.316 29.7333 750.764 29.648C751.223 29.552 751.682 29.504 752.14 29.504C752.556 29.504 752.978 29.536 753.404 29.6C753.831 29.6533 754.22 29.7653 754.572 29.936C754.924 30.1067 755.212 30.3467 755.436 30.656C755.66 30.9547 755.772 31.3547 755.772 31.856V36.16C755.772 36.5333 755.794 36.8907 755.836 37.232C755.879 37.5733 755.954 37.8293 756.06 38H753.756C753.714 37.872 753.676 37.744 753.644 37.616C753.623 37.4773 753.607 37.3387 753.596 37.2C753.234 37.5733 752.807 37.8347 752.316 37.984C751.826 38.1333 751.324 38.208 750.812 38.208C750.418 38.208 750.05 38.16 749.708 38.064C749.367 37.968 749.068 37.8187 748.812 37.616C748.556 37.4133 748.354 37.1573 748.204 36.848C748.066 36.5387 747.996 36.1707 747.996 35.744C747.996 35.2747 748.076 34.8907 748.236 34.592C748.407 34.2827 748.62 34.0373 748.876 33.856C749.143 33.6747 749.442 33.5413 749.772 33.456C750.114 33.36 750.455 33.2853 750.796 33.232C751.138 33.1787 751.474 33.136 751.804 33.104C752.135 33.072 752.428 33.024 752.684 32.96C752.94 32.896 753.143 32.8053 753.292 32.688C753.442 32.56 753.511 32.3787 753.5 32.144C753.5 31.8987 753.458 31.7067 753.372 31.568C753.298 31.4187 753.191 31.3067 753.052 31.232C752.924 31.1467 752.77 31.0933 752.588 31.072C752.418 31.04 752.231 31.024 752.028 31.024C751.58 31.024 751.228 31.12 750.972 31.312C750.716 31.504 750.567 31.824 750.524 32.272H748.252ZM753.5 33.952C753.404 34.0373 753.282 34.1067 753.132 34.16C752.994 34.2027 752.839 34.24 752.668 34.272C752.508 34.304 752.338 34.3307 752.156 34.352C751.975 34.3733 751.794 34.4 751.612 34.432C751.442 34.464 751.271 34.5067 751.1 34.56C750.94 34.6133 750.796 34.688 750.668 34.784C750.551 34.8693 750.455 34.9813 750.38 35.12C750.306 35.2587 750.268 35.4347 750.268 35.648C750.268 35.8507 750.306 36.0213 750.38 36.16C750.455 36.2987 750.556 36.4107 750.684 36.496C750.812 36.5707 750.962 36.624 751.132 36.656C751.303 36.688 751.479 36.704 751.66 36.704C752.108 36.704 752.455 36.6293 752.7 36.48C752.946 36.3307 753.127 36.1547 753.244 35.952C753.362 35.7387 753.431 35.5253 753.452 35.312C753.484 35.0987 753.5 34.928 753.5 34.8V33.952ZM763.6 33.872C763.6 34.2133 763.563 34.544 763.488 34.864C763.413 35.184 763.296 35.4667 763.136 35.712C762.976 35.9573 762.773 36.1547 762.528 36.304C762.293 36.4427 762.005 36.512 761.664 36.512C761.333 36.512 761.045 36.4427 760.8 36.304C760.555 36.1547 760.352 35.9573 760.192 35.712C760.032 35.4667 759.915 35.184 759.84 34.864C759.765 34.544 759.728 34.2133 759.728 33.872C759.728 33.52 759.765 33.184 759.84 32.864C759.915 32.544 760.032 32.2613 760.192 32.016C760.352 31.7707 760.555 31.5787 760.8 31.44C761.045 31.2907 761.333 31.216 761.664 31.216C762.005 31.216 762.293 31.2907 762.528 31.44C762.773 31.5787 762.976 31.7707 763.136 32.016C763.296 32.2613 763.413 32.544 763.488 32.864C763.563 33.184 763.6 33.52 763.6 33.872ZM757.536 26.576V38H759.696V36.944H759.728C759.973 37.4027 760.336 37.728 760.816 37.92C761.296 38.112 761.84 38.208 762.448 38.208C762.864 38.208 763.275 38.1227 763.68 37.952C764.085 37.7813 764.448 37.52 764.768 37.168C765.099 36.816 765.365 36.368 765.568 35.824C765.771 35.2693 765.872 34.6133 765.872 33.856C765.872 33.0987 765.771 32.448 765.568 31.904C765.365 31.3493 765.099 30.896 764.768 30.544C764.448 30.192 764.085 29.9307 763.68 29.76C763.275 29.5893 762.864 29.504 762.448 29.504C761.936 29.504 761.44 29.6053 760.96 29.808C760.491 30 760.117 30.3093 759.84 30.736H759.808V26.576H757.536ZM772.885 32.976H769.189C769.2 32.816 769.232 32.6347 769.285 32.432C769.349 32.2293 769.45 32.0373 769.589 31.856C769.738 31.6747 769.93 31.5253 770.165 31.408C770.41 31.28 770.714 31.216 771.077 31.216C771.632 31.216 772.042 31.3653 772.309 31.664C772.586 31.9627 772.778 32.4 772.885 32.976ZM769.189 34.416H775.157C775.2 33.776 775.146 33.1627 774.997 32.576C774.848 31.9893 774.602 31.4667 774.261 31.008C773.93 30.5493 773.504 30.1867 772.981 29.92C772.458 29.6427 771.845 29.504 771.141 29.504C770.512 29.504 769.936 29.616 769.413 29.84C768.901 30.064 768.458 30.3733 768.085 30.768C767.712 31.152 767.424 31.6107 767.221 32.144C767.018 32.6773 766.917 33.2533 766.917 33.872C766.917 34.512 767.013 35.0987 767.205 35.632C767.408 36.1653 767.69 36.624 768.053 37.008C768.416 37.392 768.858 37.6907 769.381 37.904C769.904 38.1067 770.49 38.208 771.141 38.208C772.08 38.208 772.88 37.9947 773.541 37.568C774.202 37.1413 774.693 36.432 775.013 35.44H773.013C772.938 35.696 772.736 35.9413 772.405 36.176C772.074 36.4 771.68 36.512 771.221 36.512C770.581 36.512 770.09 36.3467 769.749 36.016C769.408 35.6853 769.221 35.152 769.189 34.416ZM776.569 26.576V38H778.841V26.576H776.569ZM787.963 29.728V27.248H785.691V29.728H784.315V31.248H785.691V36.128C785.691 36.544 785.76 36.88 785.899 37.136C786.037 37.392 786.224 37.5893 786.459 37.728C786.704 37.8667 786.981 37.9573 787.291 38C787.611 38.0533 787.947 38.08 788.299 38.08C788.523 38.08 788.752 38.0747 788.987 38.064C789.221 38.0533 789.435 38.032 789.627 38V36.24C789.52 36.2613 789.408 36.2773 789.291 36.288C789.173 36.2987 789.051 36.304 788.923 36.304C788.539 36.304 788.283 36.24 788.155 36.112C788.027 35.984 787.963 35.728 787.963 35.344V31.248H789.627V29.728H787.963ZM796.276 32.976H792.58C792.59 32.816 792.622 32.6347 792.676 32.432C792.74 32.2293 792.841 32.0373 792.98 31.856C793.129 31.6747 793.321 31.5253 793.556 31.408C793.801 31.28 794.105 31.216 794.468 31.216C795.022 31.216 795.433 31.3653 795.7 31.664C795.977 31.9627 796.169 32.4 796.276 32.976ZM792.58 34.416H798.548C798.59 33.776 798.537 33.1627 798.388 32.576C798.238 31.9893 797.993 31.4667 797.652 31.008C797.321 30.5493 796.894 30.1867 796.372 29.92C795.849 29.6427 795.236 29.504 794.532 29.504C793.902 29.504 793.326 29.616 792.804 29.84C792.292 30.064 791.849 30.3733 791.476 30.768C791.102 31.152 790.814 31.6107 790.612 32.144C790.409 32.6773 790.308 33.2533 790.308 33.872C790.308 34.512 790.404 35.0987 790.596 35.632C790.798 36.1653 791.081 36.624 791.444 37.008C791.806 37.392 792.249 37.6907 792.772 37.904C793.294 38.1067 793.881 38.208 794.532 38.208C795.47 38.208 796.27 37.9947 796.932 37.568C797.593 37.1413 798.084 36.432 798.404 35.44H796.404C796.329 35.696 796.126 35.9413 795.796 36.176C795.465 36.4 795.07 36.512 794.612 36.512C793.972 36.512 793.481 36.3467 793.14 36.016C792.798 35.6853 792.612 35.152 792.58 34.416ZM802.007 33.648L799.031 38H801.575L803.303 35.392L805.031 38H807.623L804.567 33.6L807.287 29.728H804.775L803.335 31.888L801.879 29.728H799.287L802.007 33.648ZM811.369 29.728V27.248H809.097V29.728H807.721V31.248H809.097V36.128C809.097 36.544 809.166 36.88 809.305 37.136C809.444 37.392 809.63 37.5893 809.865 37.728C810.11 37.8667 810.388 37.9573 810.697 38C811.017 38.0533 811.353 38.08 811.705 38.08C811.929 38.08 812.158 38.0747 812.393 38.064C812.628 38.0533 812.841 38.032 813.033 38V36.24C812.926 36.2613 812.814 36.2773 812.697 36.288C812.58 36.2987 812.457 36.304 812.329 36.304C811.945 36.304 811.689 36.24 811.561 36.112C811.433 35.984 811.369 35.728 811.369 35.344V31.248H813.033V29.728H811.369Z" fill="#333333"/>
<rect x="738.5" y="49.5" width="294" height="49" rx="3.5" fill="#F7F8F9"/>
<rect x="738.5" y="49.5" width="294" height="49" rx="3.5" stroke="#8E9092"/>
<path fill-rule="evenodd" clip-rule="evenodd" d="M762.747 75.7744L768.424 81.4514C768.692 81.7197 768.692 82.1553 768.424 82.4236C768.289 82.5579 768.113 82.625 767.937 82.625C767.762 82.625 767.586 82.5579 767.451 82.4236L761.774 76.7465C760.376 77.9133 758.658 78.5 756.937 78.5C755.002 78.5 753.067 77.7617 751.59 76.285C748.637 73.3317 748.637 68.5433 751.59 65.59C753.067 64.1133 755.002 63.375 756.937 63.375C758.873 63.375 760.808 64.1133 762.285 65.59C765.074 68.3792 765.226 72.8033 762.747 75.7744ZM750.75 70.9375C750.75 72.5902 751.394 74.1441 752.562 75.3127C753.731 76.4814 755.285 77.125 756.937 77.125C758.59 77.125 760.144 76.4814 761.313 75.3127C762.481 74.1441 763.125 72.5902 763.125 70.9375C763.125 69.2848 762.481 67.7309 761.313 66.5623C760.144 65.3936 758.59 64.75 756.937 64.75C755.285 64.75 753.731 65.3936 752.562 66.5623C751.394 67.7309 750.75 69.2848 750.75 70.9375Z" fill="#53565A"/>
<path d="M787.856 71.92H789.296C789.275 71.2907 789.152 70.752 788.928 70.304C788.715 69.8453 788.416 69.4667 788.032 69.168C787.659 68.8693 787.221 68.6507 786.72 68.512C786.219 68.3733 785.675 68.304 785.088 68.304C784.565 68.304 784.053 68.3733 783.552 68.512C783.061 68.64 782.619 68.8427 782.224 69.12C781.84 69.3867 781.531 69.7333 781.296 70.16C781.061 70.576 780.944 71.072 780.944 71.648C780.944 72.1707 781.045 72.608 781.248 72.96C781.461 73.3013 781.739 73.584 782.08 73.808C782.432 74.0213 782.827 74.1973 783.264 74.336C783.701 74.464 784.144 74.5813 784.592 74.688C785.051 74.784 785.499 74.88 785.936 74.976C786.373 75.072 786.763 75.2 787.104 75.36C787.456 75.5093 787.733 75.7067 787.936 75.952C788.149 76.1973 788.256 76.5173 788.256 76.912C788.256 77.328 788.171 77.6693 788 77.936C787.829 78.2027 787.605 78.416 787.328 78.576C787.051 78.7253 786.736 78.832 786.384 78.896C786.043 78.96 785.701 78.992 785.36 78.992C784.933 78.992 784.517 78.9387 784.112 78.832C783.707 78.7253 783.349 78.56 783.04 78.336C782.741 78.112 782.496 77.8293 782.304 77.488C782.123 77.136 782.032 76.72 782.032 76.24H780.592C780.592 76.9333 780.715 77.536 780.96 78.048C781.216 78.5493 781.557 78.9653 781.984 79.296C782.421 79.616 782.923 79.856 783.488 80.016C784.064 80.176 784.672 80.256 785.312 80.256C785.835 80.256 786.357 80.192 786.88 80.064C787.413 79.9467 787.893 79.7547 788.32 79.488C788.747 79.2107 789.093 78.8587 789.36 78.432C789.637 77.9947 789.776 77.472 789.776 76.864C789.776 76.2987 789.669 75.8293 789.456 75.456C789.253 75.0827 788.976 74.7733 788.624 74.528C788.283 74.2827 787.893 74.0907 787.456 73.952C787.019 73.8027 786.571 73.6747 786.112 73.568C785.664 73.4613 785.221 73.3653 784.784 73.28C784.347 73.184 783.952 73.0667 783.6 72.928C783.259 72.7893 782.981 72.6133 782.768 72.4C782.565 72.176 782.464 71.888 782.464 71.536C782.464 71.1627 782.533 70.8533 782.672 70.608C782.821 70.352 783.013 70.1493 783.248 70C783.493 69.8507 783.771 69.744 784.08 69.68C784.389 69.616 784.704 69.584 785.024 69.584C785.813 69.584 786.459 69.7707 786.96 70.144C787.472 70.5067 787.771 71.0987 787.856 71.92ZM791.399 68.576V80H792.759V75.328C792.759 74.9547 792.807 74.6133 792.903 74.304C793.01 73.984 793.164 73.7067 793.367 73.472C793.57 73.2373 793.82 73.056 794.119 72.928C794.428 72.8 794.791 72.736 795.207 72.736C795.73 72.736 796.14 72.8853 796.439 73.184C796.738 73.4827 796.887 73.888 796.887 74.4V80H798.247V74.56C798.247 74.112 798.199 73.7067 798.103 73.344C798.018 72.9707 797.863 72.6507 797.639 72.384C797.415 72.1173 797.122 71.9093 796.759 71.76C796.396 71.6107 795.943 71.536 795.399 71.536C795.154 71.536 794.898 71.5627 794.631 71.616C794.375 71.6693 794.124 71.7547 793.879 71.872C793.644 71.9787 793.431 72.1227 793.239 72.304C793.047 72.4747 792.898 72.688 792.791 72.944H792.759V68.576H791.399ZM801.282 75.872C801.282 75.3707 801.346 74.928 801.474 74.544C801.612 74.1493 801.799 73.8187 802.034 73.552C802.268 73.2853 802.54 73.0827 802.85 72.944C803.17 72.8053 803.506 72.736 803.858 72.736C804.21 72.736 804.54 72.8053 804.85 72.944C805.17 73.0827 805.447 73.2853 805.682 73.552C805.916 73.8187 806.098 74.1493 806.226 74.544C806.364 74.928 806.434 75.3707 806.434 75.872C806.434 76.3733 806.364 76.8213 806.226 77.216C806.098 77.6 805.916 77.9253 805.682 78.192C805.447 78.448 805.17 78.6453 804.85 78.784C804.54 78.9227 804.21 78.992 803.858 78.992C803.506 78.992 803.17 78.9227 802.85 78.784C802.54 78.6453 802.268 78.448 802.034 78.192C801.799 77.9253 801.612 77.6 801.474 77.216C801.346 76.8213 801.282 76.3733 801.282 75.872ZM799.842 75.872C799.842 76.48 799.927 77.0453 800.098 77.568C800.268 78.0907 800.524 78.5493 800.866 78.944C801.207 79.328 801.628 79.632 802.13 79.856C802.631 80.0693 803.207 80.176 803.858 80.176C804.519 80.176 805.095 80.0693 805.586 79.856C806.087 79.632 806.508 79.328 806.85 78.944C807.191 78.5493 807.447 78.0907 807.618 77.568C807.788 77.0453 807.874 76.48 807.874 75.872C807.874 75.264 807.788 74.6987 807.618 74.176C807.447 73.6427 807.191 73.184 806.85 72.8C806.508 72.4053 806.087 72.096 805.586 71.872C805.095 71.648 804.519 71.536 803.858 71.536C803.207 71.536 802.631 71.648 802.13 71.872C801.628 72.096 801.207 72.4053 800.866 72.8C800.524 73.184 800.268 73.6427 800.098 74.176C799.927 74.6987 799.842 75.264 799.842 75.872ZM809.525 71.728V83.152H810.885V78.896H810.917C811.066 79.1413 811.248 79.3493 811.461 79.52C811.685 79.68 811.92 79.808 812.165 79.904C812.41 80 812.656 80.0693 812.901 80.112C813.157 80.1547 813.386 80.176 813.589 80.176C814.218 80.176 814.768 80.064 815.237 79.84C815.717 79.616 816.112 79.312 816.421 78.928C816.741 78.5333 816.976 78.0747 817.125 77.552C817.285 77.0293 817.365 76.4747 817.365 75.888C817.365 75.3013 817.285 74.7467 817.125 74.224C816.965 73.7013 816.725 73.2427 816.405 72.848C816.096 72.4427 815.701 72.1227 815.221 71.888C814.752 71.6533 814.197 71.536 813.557 71.536C812.981 71.536 812.453 71.6427 811.973 71.856C811.493 72.0587 811.141 72.3893 810.917 72.848H810.885V71.728H809.525ZM815.925 75.792C815.925 76.1973 815.882 76.592 815.797 76.976C815.712 77.36 815.573 77.7013 815.381 78C815.189 78.2987 814.933 78.5387 814.613 78.72C814.304 78.9013 813.914 78.992 813.445 78.992C812.976 78.992 812.576 78.9067 812.245 78.736C811.914 78.5547 811.642 78.32 811.429 78.032C811.226 77.744 811.077 77.4133 810.981 77.04C810.885 76.656 810.837 76.2613 810.837 75.856C810.837 75.472 810.88 75.0933 810.965 74.72C811.061 74.3467 811.21 74.016 811.413 73.728C811.616 73.4293 811.877 73.1893 812.197 73.008C812.517 72.8267 812.906 72.736 813.365 72.736C813.802 72.736 814.181 72.8213 814.501 72.992C814.832 73.1627 815.098 73.392 815.301 73.68C815.514 73.968 815.669 74.2987 815.765 74.672C815.872 75.0347 815.925 75.408 815.925 75.792ZM830.247 71.92H831.687C831.665 71.2907 831.543 70.752 831.319 70.304C831.105 69.8453 830.807 69.4667 830.423 69.168C830.049 68.8693 829.612 68.6507 829.111 68.512C828.609 68.3733 828.065 68.304 827.479 68.304C826.956 68.304 826.444 68.3733 825.943 68.512C825.452 68.64 825.009 68.8427 824.615 69.12C824.231 69.3867 823.921 69.7333 823.687 70.16C823.452 70.576 823.335 71.072 823.335 71.648C823.335 72.1707 823.436 72.608 823.639 72.96C823.852 73.3013 824.129 73.584 824.471 73.808C824.823 74.0213 825.217 74.1973 825.655 74.336C826.092 74.464 826.535 74.5813 826.983 74.688C827.441 74.784 827.889 74.88 828.327 74.976C828.764 75.072 829.153 75.2 829.495 75.36C829.847 75.5093 830.124 75.7067 830.327 75.952C830.54 76.1973 830.647 76.5173 830.647 76.912C830.647 77.328 830.561 77.6693 830.391 77.936C830.22 78.2027 829.996 78.416 829.719 78.576C829.441 78.7253 829.127 78.832 828.775 78.896C828.433 78.96 828.092 78.992 827.751 78.992C827.324 78.992 826.908 78.9387 826.503 78.832C826.097 78.7253 825.74 78.56 825.431 78.336C825.132 78.112 824.887 77.8293 824.695 77.488C824.513 77.136 824.423 76.72 824.423 76.24H822.983C822.983 76.9333 823.105 77.536 823.351 78.048C823.607 78.5493 823.948 78.9653 824.375 79.296C824.812 79.616 825.313 79.856 825.879 80.016C826.455 80.176 827.063 80.256 827.703 80.256C828.225 80.256 828.748 80.192 829.271 80.064C829.804 79.9467 830.284 79.7547 830.711 79.488C831.137 79.2107 831.484 78.8587 831.751 78.432C832.028 77.9947 832.167 77.472 832.167 76.864C832.167 76.2987 832.06 75.8293 831.847 75.456C831.644 75.0827 831.367 74.7733 831.015 74.528C830.673 74.2827 830.284 74.0907 829.847 73.952C829.409 73.8027 828.961 73.6747 828.503 73.568C828.055 73.4613 827.612 73.3653 827.175 73.28C826.737 73.184 826.343 73.0667 825.991 72.928C825.649 72.7893 825.372 72.6133 825.159 72.4C824.956 72.176 824.855 71.888 824.855 71.536C824.855 71.1627 824.924 70.8533 825.063 70.608C825.212 70.352 825.404 70.1493 825.639 70C825.884 69.8507 826.161 69.744 826.471 69.68C826.78 69.616 827.095 69.584 827.415 69.584C828.204 69.584 828.849 69.7707 829.351 70.144C829.863 70.5067 830.161 71.0987 830.247 71.92ZM833.79 71.728V80H835.15V74.848C835.15 74.688 835.187 74.4907 835.262 74.256C835.347 74.0107 835.475 73.776 835.646 73.552C835.827 73.328 836.056 73.136 836.334 72.976C836.622 72.816 836.963 72.736 837.358 72.736C837.667 72.736 837.918 72.784 838.11 72.88C838.312 72.9653 838.472 73.0933 838.59 73.264C838.707 73.424 838.787 73.616 838.83 73.84C838.883 74.064 838.91 74.3093 838.91 74.576V80H840.27V74.848C840.27 74.208 840.462 73.696 840.846 73.312C841.23 72.928 841.758 72.736 842.43 72.736C842.76 72.736 843.027 72.784 843.23 72.88C843.443 72.976 843.608 73.1093 843.726 73.28C843.843 73.44 843.923 73.632 843.966 73.856C844.008 74.08 844.03 74.32 844.03 74.576V80H845.39V73.936C845.39 73.5093 845.32 73.1467 845.182 72.848C845.054 72.5387 844.867 72.288 844.622 72.096C844.387 71.904 844.099 71.7653 843.758 71.68C843.427 71.584 843.054 71.536 842.638 71.536C842.094 71.536 841.592 71.6587 841.134 71.904C840.686 72.1493 840.323 72.496 840.046 72.944C839.875 72.432 839.582 72.0693 839.166 71.856C838.75 71.6427 838.286 71.536 837.774 71.536C836.611 71.536 835.72 72.0053 835.102 72.944H835.07V71.728H833.79ZM854.758 79.968C854.524 80.1067 854.198 80.176 853.782 80.176C853.43 80.176 853.148 80.08 852.934 79.888C852.732 79.6853 852.63 79.36 852.63 78.912C852.257 79.36 851.82 79.6853 851.318 79.888C850.828 80.08 850.294 80.176 849.718 80.176C849.345 80.176 848.988 80.1333 848.646 80.048C848.316 79.9627 848.028 79.8293 847.782 79.648C847.537 79.4667 847.34 79.232 847.19 78.944C847.052 78.6453 846.982 78.288 846.982 77.872C846.982 77.4027 847.062 77.0187 847.222 76.72C847.382 76.4213 847.59 76.1813 847.846 76C848.113 75.808 848.412 75.664 848.742 75.568C849.084 75.472 849.43 75.392 849.782 75.328C850.156 75.2533 850.508 75.2 850.838 75.168C851.18 75.1253 851.478 75.072 851.734 75.008C851.99 74.9333 852.193 74.832 852.342 74.704C852.492 74.5653 852.566 74.368 852.566 74.112C852.566 73.8133 852.508 73.5733 852.39 73.392C852.284 73.2107 852.14 73.072 851.958 72.976C851.788 72.88 851.59 72.816 851.366 72.784C851.153 72.752 850.94 72.736 850.726 72.736C850.15 72.736 849.67 72.848 849.286 73.072C848.902 73.2853 848.694 73.696 848.662 74.304H847.302C847.324 73.792 847.43 73.36 847.622 73.008C847.814 72.656 848.07 72.3733 848.39 72.16C848.71 71.936 849.073 71.776 849.478 71.68C849.894 71.584 850.337 71.536 850.806 71.536C851.18 71.536 851.548 71.5627 851.91 71.616C852.284 71.6693 852.62 71.7813 852.918 71.952C853.217 72.112 853.457 72.3413 853.638 72.64C853.82 72.9387 853.91 73.328 853.91 73.808V78.064C853.91 78.384 853.926 78.6187 853.958 78.768C854.001 78.9173 854.129 78.992 854.342 78.992C854.46 78.992 854.598 78.9653 854.758 78.912V79.968ZM852.55 75.728C852.38 75.856 852.156 75.952 851.878 76.016C851.601 76.0693 851.308 76.1173 850.998 76.16C850.7 76.192 850.396 76.2347 850.086 76.288C849.777 76.3307 849.5 76.4053 849.254 76.512C849.009 76.6187 848.806 76.7733 848.646 76.976C848.497 77.168 848.422 77.4347 848.422 77.776C848.422 78 848.465 78.192 848.55 78.352C848.646 78.5013 848.764 78.624 848.902 78.72C849.052 78.816 849.222 78.8853 849.414 78.928C849.606 78.9707 849.809 78.992 850.022 78.992C850.47 78.992 850.854 78.9333 851.174 78.816C851.494 78.688 851.756 78.5333 851.958 78.352C852.161 78.16 852.31 77.9573 852.406 77.744C852.502 77.52 852.55 77.312 852.55 77.12V75.728ZM856.104 68.576V80H857.464V68.576H856.104ZM859.651 68.576V80H861.011V68.576H859.651Z" fill="#333333"/>
<path d="M1012 72.0279L1019.08 64.9514C1019.34 64.6829 1019.78 64.6829 1020.05 64.9514C1020.3 65.2031 1020.32 65.6014 1020.1 65.8714L1020.05 65.9236L1012.97 73L1020.05 80.0764C1020.3 80.3281 1020.32 80.7264 1020.1 80.9964L1020.05 81.0486C1019.8 81.3003 1019.4 81.3161 1019.13 81.0958L1019.08 81.0486L1012 73.9721L1004.92 81.0486C1004.67 81.3003 1004.27 81.3161 1004 81.0958L1003.95 81.0486C1003.7 80.7969 1003.68 80.3986 1003.9 80.1286L1003.95 80.0764L1011.03 73L1003.95 65.9236C1003.7 65.6719 1003.68 65.2736 1003.9 65.0036L1003.95 64.9514C1004.2 64.6997 1004.6 64.6839 1004.87 64.9042L1004.92 64.9514L1012 72.0279L1019.08 64.9514L1012 72.0279Z" fill="#53565A"/>
<path d="M1098.1 26.576V38H1106.18V35.888H1100.62V26.576H1098.1ZM1107.25 32.272C1107.28 31.7387 1107.42 31.296 1107.65 30.944C1107.89 30.592 1108.19 30.3093 1108.55 30.096C1108.91 29.8827 1109.32 29.7333 1109.76 29.648C1110.22 29.552 1110.68 29.504 1111.14 29.504C1111.56 29.504 1111.98 29.536 1112.4 29.6C1112.83 29.6533 1113.22 29.7653 1113.57 29.936C1113.92 30.1067 1114.21 30.3467 1114.44 30.656C1114.66 30.9547 1114.77 31.3547 1114.77 31.856V36.16C1114.77 36.5333 1114.79 36.8907 1114.84 37.232C1114.88 37.5733 1114.95 37.8293 1115.06 38H1112.76C1112.71 37.872 1112.68 37.744 1112.64 37.616C1112.62 37.4773 1112.61 37.3387 1112.6 37.2C1112.23 37.5733 1111.81 37.8347 1111.32 37.984C1110.83 38.1333 1110.32 38.208 1109.81 38.208C1109.42 38.208 1109.05 38.16 1108.71 38.064C1108.37 37.968 1108.07 37.8187 1107.81 37.616C1107.56 37.4133 1107.35 37.1573 1107.2 36.848C1107.07 36.5387 1107 36.1707 1107 35.744C1107 35.2747 1107.08 34.8907 1107.24 34.592C1107.41 34.2827 1107.62 34.0373 1107.88 33.856C1108.14 33.6747 1108.44 33.5413 1108.77 33.456C1109.11 33.36 1109.46 33.2853 1109.8 33.232C1110.14 33.1787 1110.47 33.136 1110.8 33.104C1111.14 33.072 1111.43 33.024 1111.68 32.96C1111.94 32.896 1112.14 32.8053 1112.29 32.688C1112.44 32.56 1112.51 32.3787 1112.5 32.144C1112.5 31.8987 1112.46 31.7067 1112.37 31.568C1112.3 31.4187 1112.19 31.3067 1112.05 31.232C1111.92 31.1467 1111.77 31.0933 1111.59 31.072C1111.42 31.04 1111.23 31.024 1111.03 31.024C1110.58 31.024 1110.23 31.12 1109.97 31.312C1109.72 31.504 1109.57 31.824 1109.52 32.272H1107.25ZM1112.5 33.952C1112.4 34.0373 1112.28 34.1067 1112.13 34.16C1111.99 34.2027 1111.84 34.24 1111.67 34.272C1111.51 34.304 1111.34 34.3307 1111.16 34.352C1110.98 34.3733 1110.79 34.4 1110.61 34.432C1110.44 34.464 1110.27 34.5067 1110.1 34.56C1109.94 34.6133 1109.8 34.688 1109.67 34.784C1109.55 34.8693 1109.46 34.9813 1109.38 35.12C1109.31 35.2587 1109.27 35.4347 1109.27 35.648C1109.27 35.8507 1109.31 36.0213 1109.38 36.16C1109.46 36.2987 1109.56 36.4107 1109.68 36.496C1109.81 36.5707 1109.96 36.624 1110.13 36.656C1110.3 36.688 1110.48 36.704 1110.66 36.704C1111.11 36.704 1111.46 36.6293 1111.7 36.48C1111.95 36.3307 1112.13 36.1547 1112.24 35.952C1112.36 35.7387 1112.43 35.5253 1112.45 35.312C1112.48 35.0987 1112.5 34.928 1112.5 34.8V33.952ZM1122.6 33.872C1122.6 34.2133 1122.56 34.544 1122.49 34.864C1122.41 35.184 1122.3 35.4667 1122.14 35.712C1121.98 35.9573 1121.77 36.1547 1121.53 36.304C1121.29 36.4427 1121.01 36.512 1120.66 36.512C1120.33 36.512 1120.05 36.4427 1119.8 36.304C1119.55 36.1547 1119.35 35.9573 1119.19 35.712C1119.03 35.4667 1118.91 35.184 1118.84 34.864C1118.77 34.544 1118.73 34.2133 1118.73 33.872C1118.73 33.52 1118.77 33.184 1118.84 32.864C1118.91 32.544 1119.03 32.2613 1119.19 32.016C1119.35 31.7707 1119.55 31.5787 1119.8 31.44C1120.05 31.2907 1120.33 31.216 1120.66 31.216C1121.01 31.216 1121.29 31.2907 1121.53 31.44C1121.77 31.5787 1121.98 31.7707 1122.14 32.016C1122.3 32.2613 1122.41 32.544 1122.49 32.864C1122.56 33.184 1122.6 33.52 1122.6 33.872ZM1116.54 26.576V38H1118.7V36.944H1118.73C1118.97 37.4027 1119.34 37.728 1119.82 37.92C1120.3 38.112 1120.84 38.208 1121.45 38.208C1121.86 38.208 1122.27 38.1227 1122.68 37.952C1123.09 37.7813 1123.45 37.52 1123.77 37.168C1124.1 36.816 1124.37 36.368 1124.57 35.824C1124.77 35.2693 1124.87 34.6133 1124.87 33.856C1124.87 33.0987 1124.77 32.448 1124.57 31.904C1124.37 31.3493 1124.1 30.896 1123.77 30.544C1123.45 30.192 1123.09 29.9307 1122.68 29.76C1122.27 29.5893 1121.86 29.504 1121.45 29.504C1120.94 29.504 1120.44 29.6053 1119.96 29.808C1119.49 30 1119.12 30.3093 1118.84 30.736H1118.81V26.576H1116.54ZM1131.89 32.976H1128.19C1128.2 32.816 1128.23 32.6347 1128.29 32.432C1128.35 32.2293 1128.45 32.0373 1128.59 31.856C1128.74 31.6747 1128.93 31.5253 1129.17 31.408C1129.41 31.28 1129.71 31.216 1130.08 31.216C1130.63 31.216 1131.04 31.3653 1131.31 31.664C1131.59 31.9627 1131.78 32.4 1131.89 32.976ZM1128.19 34.416H1134.16C1134.2 33.776 1134.15 33.1627 1134 32.576C1133.85 31.9893 1133.6 31.4667 1133.26 31.008C1132.93 30.5493 1132.5 30.1867 1131.98 29.92C1131.46 29.6427 1130.85 29.504 1130.14 29.504C1129.51 29.504 1128.94 29.616 1128.41 29.84C1127.9 30.064 1127.46 30.3733 1127.09 30.768C1126.71 31.152 1126.42 31.6107 1126.22 32.144C1126.02 32.6773 1125.92 33.2533 1125.92 33.872C1125.92 34.512 1126.01 35.0987 1126.21 35.632C1126.41 36.1653 1126.69 36.624 1127.05 37.008C1127.42 37.392 1127.86 37.6907 1128.38 37.904C1128.9 38.1067 1129.49 38.208 1130.14 38.208C1131.08 38.208 1131.88 37.9947 1132.54 37.568C1133.2 37.1413 1133.69 36.432 1134.01 35.44H1132.01C1131.94 35.696 1131.74 35.9413 1131.41 36.176C1131.07 36.4 1130.68 36.512 1130.22 36.512C1129.58 36.512 1129.09 36.3467 1128.75 36.016C1128.41 35.6853 1128.22 35.152 1128.19 34.416ZM1135.57 26.576V38H1137.84V26.576H1135.57ZM1146.96 29.728V27.248H1144.69V29.728H1143.31V31.248H1144.69V36.128C1144.69 36.544 1144.76 36.88 1144.9 37.136C1145.04 37.392 1145.22 37.5893 1145.46 37.728C1145.7 37.8667 1145.98 37.9573 1146.29 38C1146.61 38.0533 1146.95 38.08 1147.3 38.08C1147.52 38.08 1147.75 38.0747 1147.99 38.064C1148.22 38.0533 1148.43 38.032 1148.63 38V36.24C1148.52 36.2613 1148.41 36.2773 1148.29 36.288C1148.17 36.2987 1148.05 36.304 1147.92 36.304C1147.54 36.304 1147.28 36.24 1147.15 36.112C1147.03 35.984 1146.96 35.728 1146.96 35.344V31.248H1148.63V29.728H1146.96ZM1155.28 32.976H1151.58C1151.59 32.816 1151.62 32.6347 1151.68 32.432C1151.74 32.2293 1151.84 32.0373 1151.98 31.856C1152.13 31.6747 1152.32 31.5253 1152.56 31.408C1152.8 31.28 1153.11 31.216 1153.47 31.216C1154.02 31.216 1154.43 31.3653 1154.7 31.664C1154.98 31.9627 1155.17 32.4 1155.28 32.976ZM1151.58 34.416H1157.55C1157.59 33.776 1157.54 33.1627 1157.39 32.576C1157.24 31.9893 1156.99 31.4667 1156.65 31.008C1156.32 30.5493 1155.89 30.1867 1155.37 29.92C1154.85 29.6427 1154.24 29.504 1153.53 29.504C1152.9 29.504 1152.33 29.616 1151.8 29.84C1151.29 30.064 1150.85 30.3733 1150.48 30.768C1150.1 31.152 1149.81 31.6107 1149.61 32.144C1149.41 32.6773 1149.31 33.2533 1149.31 33.872C1149.31 34.512 1149.4 35.0987 1149.6 35.632C1149.8 36.1653 1150.08 36.624 1150.44 37.008C1150.81 37.392 1151.25 37.6907 1151.77 37.904C1152.29 38.1067 1152.88 38.208 1153.53 38.208C1154.47 38.208 1155.27 37.9947 1155.93 37.568C1156.59 37.1413 1157.08 36.432 1157.4 35.44H1155.4C1155.33 35.696 1155.13 35.9413 1154.8 36.176C1154.47 36.4 1154.07 36.512 1153.61 36.512C1152.97 36.512 1152.48 36.3467 1152.14 36.016C1151.8 35.6853 1151.61 35.152 1151.58 34.416ZM1161.01 33.648L1158.03 38H1160.58L1162.3 35.392L1164.03 38H1166.62L1163.57 33.6L1166.29 29.728H1163.78L1162.34 31.888L1160.88 29.728H1158.29L1161.01 33.648ZM1170.37 29.728V27.248H1168.1V29.728H1166.72V31.248H1168.1V36.128C1168.1 36.544 1168.17 36.88 1168.31 37.136C1168.44 37.392 1168.63 37.5893 1168.87 37.728C1169.11 37.8667 1169.39 37.9573 1169.7 38C1170.02 38.0533 1170.35 38.08 1170.71 38.08C1170.93 38.08 1171.16 38.0747 1171.39 38.064C1171.63 38.0533 1171.84 38.032 1172.03 38V36.24C1171.93 36.2613 1171.81 36.2773 1171.7 36.288C1171.58 36.2987 1171.46 36.304 1171.33 36.304C1170.95 36.304 1170.69 36.24 1170.56 36.112C1170.43 35.984 1170.37 35.728 1170.37 35.344V31.248H1172.03V29.728H1170.37Z" fill="#333333"/>
<rect x="1097.5" y="49.5" width="294" height="49" rx="3.5" fill="#F7F8F9"/>
<rect x="1097.5" y="49.5" width="294" height="49" rx="3.5" stroke="#C8C9C7"/>
<path fill-rule="evenodd" clip-rule="evenodd" d="M1121.75 75.7744L1127.42 81.4514C1127.69 81.7197 1127.69 82.1553 1127.42 82.4236C1127.29 82.5579 1127.11 82.625 1126.94 82.625C1126.76 82.625 1126.59 82.5579 1126.45 82.4236L1120.77 76.7465C1119.38 77.9133 1117.66 78.5 1115.94 78.5C1114 78.5 1112.07 77.7617 1110.59 76.285C1107.64 73.3317 1107.64 68.5433 1110.59 65.59C1112.07 64.1133 1114 63.375 1115.94 63.375C1117.87 63.375 1119.81 64.1133 1121.29 65.59C1124.07 68.3792 1124.23 72.8033 1121.75 75.7744ZM1109.75 70.9375C1109.75 72.5902 1110.39 74.1441 1111.56 75.3127C1112.73 76.4814 1114.28 77.125 1115.94 77.125C1117.59 77.125 1119.14 76.4814 1120.31 75.3127C1121.48 74.1441 1122.12 72.5902 1122.12 70.9375C1122.12 69.2848 1121.48 67.7309 1120.31 66.5623C1119.14 65.3936 1117.59 64.75 1115.94 64.75C1114.28 64.75 1112.73 65.3936 1111.56 66.5623C1110.39 67.7309 1109.75 69.2848 1109.75 70.9375Z" fill="#C8C9C7"/>
<path d="M1146.86 71.92H1148.3C1148.27 71.2907 1148.15 70.752 1147.93 70.304C1147.71 69.8453 1147.42 69.4667 1147.03 69.168C1146.66 68.8693 1146.22 68.6507 1145.72 68.512C1145.22 68.3733 1144.67 68.304 1144.09 68.304C1143.57 68.304 1143.05 68.3733 1142.55 68.512C1142.06 68.64 1141.62 68.8427 1141.22 69.12C1140.84 69.3867 1140.53 69.7333 1140.3 70.16C1140.06 70.576 1139.94 71.072 1139.94 71.648C1139.94 72.1707 1140.05 72.608 1140.25 72.96C1140.46 73.3013 1140.74 73.584 1141.08 73.808C1141.43 74.0213 1141.83 74.1973 1142.26 74.336C1142.7 74.464 1143.14 74.5813 1143.59 74.688C1144.05 74.784 1144.5 74.88 1144.94 74.976C1145.37 75.072 1145.76 75.2 1146.1 75.36C1146.46 75.5093 1146.73 75.7067 1146.94 75.952C1147.15 76.1973 1147.26 76.5173 1147.26 76.912C1147.26 77.328 1147.17 77.6693 1147 77.936C1146.83 78.2027 1146.61 78.416 1146.33 78.576C1146.05 78.7253 1145.74 78.832 1145.38 78.896C1145.04 78.96 1144.7 78.992 1144.36 78.992C1143.93 78.992 1143.52 78.9387 1143.11 78.832C1142.71 78.7253 1142.35 78.56 1142.04 78.336C1141.74 78.112 1141.5 77.8293 1141.3 77.488C1141.12 77.136 1141.03 76.72 1141.03 76.24H1139.59C1139.59 76.9333 1139.71 77.536 1139.96 78.048C1140.22 78.5493 1140.56 78.9653 1140.98 79.296C1141.42 79.616 1141.92 79.856 1142.49 80.016C1143.06 80.176 1143.67 80.256 1144.31 80.256C1144.83 80.256 1145.36 80.192 1145.88 80.064C1146.41 79.9467 1146.89 79.7547 1147.32 79.488C1147.75 79.2107 1148.09 78.8587 1148.36 78.432C1148.64 77.9947 1148.78 77.472 1148.78 76.864C1148.78 76.2987 1148.67 75.8293 1148.46 75.456C1148.25 75.0827 1147.98 74.7733 1147.62 74.528C1147.28 74.2827 1146.89 74.0907 1146.46 73.952C1146.02 73.8027 1145.57 73.6747 1145.11 73.568C1144.66 73.4613 1144.22 73.3653 1143.78 73.28C1143.35 73.184 1142.95 73.0667 1142.6 72.928C1142.26 72.7893 1141.98 72.6133 1141.77 72.4C1141.57 72.176 1141.46 71.888 1141.46 71.536C1141.46 71.1627 1141.53 70.8533 1141.67 70.608C1141.82 70.352 1142.01 70.1493 1142.25 70C1142.49 69.8507 1142.77 69.744 1143.08 69.68C1143.39 69.616 1143.7 69.584 1144.02 69.584C1144.81 69.584 1145.46 69.7707 1145.96 70.144C1146.47 70.5067 1146.77 71.0987 1146.86 71.92ZM1156.14 75.072H1151.39C1151.41 74.752 1151.48 74.4533 1151.6 74.176C1151.72 73.888 1151.88 73.6373 1152.08 73.424C1152.28 73.2107 1152.52 73.0453 1152.8 72.928C1153.09 72.8 1153.41 72.736 1153.76 72.736C1154.1 72.736 1154.41 72.8 1154.69 72.928C1154.98 73.0453 1155.22 73.2107 1155.42 73.424C1155.64 73.6267 1155.8 73.872 1155.92 74.16C1156.05 74.448 1156.12 74.752 1156.14 75.072ZM1157.45 77.376H1156.11C1155.99 77.92 1155.75 78.3253 1155.38 78.592C1155.01 78.8587 1154.54 78.992 1153.97 78.992C1153.52 78.992 1153.13 78.9173 1152.8 78.768C1152.47 78.6187 1152.2 78.4213 1151.98 78.176C1151.77 77.92 1151.62 77.632 1151.52 77.312C1151.42 76.9813 1151.38 76.6347 1151.39 76.272H1157.58C1157.6 75.7707 1157.56 75.2427 1157.44 74.688C1157.33 74.1333 1157.13 73.6213 1156.83 73.152C1156.54 72.6827 1156.15 72.2987 1155.66 72C1155.18 71.6907 1154.58 71.536 1153.84 71.536C1153.27 71.536 1152.75 71.6427 1152.27 71.856C1151.8 72.0693 1151.39 72.368 1151.04 72.752C1150.7 73.136 1150.43 73.5893 1150.24 74.112C1150.05 74.6347 1149.95 75.2107 1149.95 75.84C1149.97 76.4693 1150.06 77.0507 1150.22 77.584C1150.39 78.1173 1150.64 78.576 1150.98 78.96C1151.31 79.344 1151.71 79.6427 1152.19 79.856C1152.68 80.0693 1153.26 80.176 1153.92 80.176C1154.86 80.176 1155.64 79.9413 1156.26 79.472C1156.87 79.0027 1157.27 78.304 1157.45 77.376ZM1166.32 79.968C1166.09 80.1067 1165.76 80.176 1165.34 80.176C1164.99 80.176 1164.71 80.08 1164.5 79.888C1164.29 79.6853 1164.19 79.36 1164.19 78.912C1163.82 79.36 1163.38 79.6853 1162.88 79.888C1162.39 80.08 1161.86 80.176 1161.28 80.176C1160.91 80.176 1160.55 80.1333 1160.21 80.048C1159.88 79.9627 1159.59 79.8293 1159.34 79.648C1159.1 79.4667 1158.9 79.232 1158.75 78.944C1158.61 78.6453 1158.54 78.288 1158.54 77.872C1158.54 77.4027 1158.62 77.0187 1158.78 76.72C1158.94 76.4213 1159.15 76.1813 1159.41 76C1159.68 75.808 1159.97 75.664 1160.3 75.568C1160.65 75.472 1160.99 75.392 1161.34 75.328C1161.72 75.2533 1162.07 75.2 1162.4 75.168C1162.74 75.1253 1163.04 75.072 1163.3 75.008C1163.55 74.9333 1163.76 74.832 1163.9 74.704C1164.05 74.5653 1164.13 74.368 1164.13 74.112C1164.13 73.8133 1164.07 73.5733 1163.95 73.392C1163.85 73.2107 1163.7 73.072 1163.52 72.976C1163.35 72.88 1163.15 72.816 1162.93 72.784C1162.72 72.752 1162.5 72.736 1162.29 72.736C1161.71 72.736 1161.23 72.848 1160.85 73.072C1160.46 73.2853 1160.26 73.696 1160.22 74.304H1158.86C1158.89 73.792 1158.99 73.36 1159.18 73.008C1159.38 72.656 1159.63 72.3733 1159.95 72.16C1160.27 71.936 1160.64 71.776 1161.04 71.68C1161.46 71.584 1161.9 71.536 1162.37 71.536C1162.74 71.536 1163.11 71.5627 1163.47 71.616C1163.85 71.6693 1164.18 71.7813 1164.48 71.952C1164.78 72.112 1165.02 72.3413 1165.2 72.64C1165.38 72.9387 1165.47 73.328 1165.47 73.808V78.064C1165.47 78.384 1165.49 78.6187 1165.52 78.768C1165.56 78.9173 1165.69 78.992 1165.9 78.992C1166.02 78.992 1166.16 78.9653 1166.32 78.912V79.968ZM1164.11 75.728C1163.94 75.856 1163.72 75.952 1163.44 76.016C1163.16 76.0693 1162.87 76.1173 1162.56 76.16C1162.26 76.192 1161.96 76.2347 1161.65 76.288C1161.34 76.3307 1161.06 76.4053 1160.82 76.512C1160.57 76.6187 1160.37 76.7733 1160.21 76.976C1160.06 77.168 1159.98 77.4347 1159.98 77.776C1159.98 78 1160.03 78.192 1160.11 78.352C1160.21 78.5013 1160.33 78.624 1160.46 78.72C1160.61 78.816 1160.78 78.8853 1160.98 78.928C1161.17 78.9707 1161.37 78.992 1161.58 78.992C1162.03 78.992 1162.42 78.9333 1162.74 78.816C1163.06 78.688 1163.32 78.5333 1163.52 78.352C1163.72 78.16 1163.87 77.9573 1163.97 77.744C1164.06 77.52 1164.11 77.312 1164.11 77.12V75.728ZM1167.54 71.728V80H1168.9V76.32C1168.9 75.7867 1168.95 75.3173 1169.06 74.912C1169.17 74.496 1169.34 74.144 1169.57 73.856C1169.81 73.568 1170.11 73.3493 1170.5 73.2C1170.88 73.0507 1171.35 72.976 1171.89 72.976V71.536C1171.15 71.5147 1170.55 71.664 1170.07 71.984C1169.59 72.304 1169.18 72.8 1168.85 73.472H1168.82V71.728H1167.54ZM1178.25 74.384H1179.66C1179.6 73.8933 1179.48 73.472 1179.27 73.12C1179.07 72.7573 1178.81 72.4587 1178.49 72.224C1178.18 71.9893 1177.82 71.8187 1177.4 71.712C1177 71.5947 1176.56 71.536 1176.09 71.536C1175.44 71.536 1174.87 71.6533 1174.38 71.888C1173.89 72.112 1173.48 72.4267 1173.15 72.832C1172.83 73.2267 1172.59 73.696 1172.43 74.24C1172.27 74.7733 1172.19 75.3493 1172.19 75.968C1172.19 76.5867 1172.27 77.1573 1172.43 77.68C1172.6 78.192 1172.84 78.6347 1173.16 79.008C1173.49 79.3813 1173.9 79.6693 1174.38 79.872C1174.87 80.0747 1175.43 80.176 1176.06 80.176C1177.11 80.176 1177.95 79.8987 1178.55 79.344C1179.17 78.7893 1179.56 78 1179.71 76.976H1178.31C1178.23 77.616 1177.99 78.112 1177.61 78.464C1177.24 78.816 1176.71 78.992 1176.04 78.992C1175.61 78.992 1175.25 78.9067 1174.94 78.736C1174.63 78.5653 1174.38 78.3413 1174.19 78.064C1173.99 77.776 1173.85 77.4507 1173.75 77.088C1173.67 76.7253 1173.63 76.352 1173.63 75.968C1173.63 75.552 1173.67 75.152 1173.75 74.768C1173.84 74.3733 1173.98 74.0267 1174.17 73.728C1174.37 73.4293 1174.64 73.1893 1174.97 73.008C1175.3 72.8267 1175.71 72.736 1176.2 72.736C1176.78 72.736 1177.24 72.88 1177.58 73.168C1177.92 73.456 1178.14 73.8613 1178.25 74.384ZM1181.23 68.576V80H1182.59V75.328C1182.59 74.9547 1182.64 74.6133 1182.73 74.304C1182.84 73.984 1182.99 73.7067 1183.2 73.472C1183.4 73.2373 1183.65 73.056 1183.95 72.928C1184.26 72.8 1184.62 72.736 1185.04 72.736C1185.56 72.736 1185.97 72.8853 1186.27 73.184C1186.57 73.4827 1186.72 73.888 1186.72 74.4V80H1188.08V74.56C1188.08 74.112 1188.03 73.7067 1187.93 73.344C1187.85 72.9707 1187.69 72.6507 1187.47 72.384C1187.24 72.1173 1186.95 71.9093 1186.59 71.76C1186.22 71.6107 1185.77 71.536 1185.23 71.536C1184.98 71.536 1184.73 71.5627 1184.46 71.616C1184.2 71.6693 1183.95 71.7547 1183.71 71.872C1183.47 71.9787 1183.26 72.1227 1183.07 72.304C1182.88 72.4747 1182.73 72.688 1182.62 72.944H1182.59V68.576H1181.23Z" fill="#8E9092"/>
<path d="M1457.1 26.576V38H1465.18V35.888H1459.62V26.576H1457.1ZM1466.25 32.272C1466.28 31.7387 1466.42 31.296 1466.65 30.944C1466.89 30.592 1467.19 30.3093 1467.55 30.096C1467.91 29.8827 1468.32 29.7333 1468.76 29.648C1469.22 29.552 1469.68 29.504 1470.14 29.504C1470.56 29.504 1470.98 29.536 1471.4 29.6C1471.83 29.6533 1472.22 29.7653 1472.57 29.936C1472.92 30.1067 1473.21 30.3467 1473.44 30.656C1473.66 30.9547 1473.77 31.3547 1473.77 31.856V36.16C1473.77 36.5333 1473.79 36.8907 1473.84 37.232C1473.88 37.5733 1473.95 37.8293 1474.06 38H1471.76C1471.71 37.872 1471.68 37.744 1471.64 37.616C1471.62 37.4773 1471.61 37.3387 1471.6 37.2C1471.23 37.5733 1470.81 37.8347 1470.32 37.984C1469.83 38.1333 1469.32 38.208 1468.81 38.208C1468.42 38.208 1468.05 38.16 1467.71 38.064C1467.37 37.968 1467.07 37.8187 1466.81 37.616C1466.56 37.4133 1466.35 37.1573 1466.2 36.848C1466.07 36.5387 1466 36.1707 1466 35.744C1466 35.2747 1466.08 34.8907 1466.24 34.592C1466.41 34.2827 1466.62 34.0373 1466.88 33.856C1467.14 33.6747 1467.44 33.5413 1467.77 33.456C1468.11 33.36 1468.46 33.2853 1468.8 33.232C1469.14 33.1787 1469.47 33.136 1469.8 33.104C1470.14 33.072 1470.43 33.024 1470.68 32.96C1470.94 32.896 1471.14 32.8053 1471.29 32.688C1471.44 32.56 1471.51 32.3787 1471.5 32.144C1471.5 31.8987 1471.46 31.7067 1471.37 31.568C1471.3 31.4187 1471.19 31.3067 1471.05 31.232C1470.92 31.1467 1470.77 31.0933 1470.59 31.072C1470.42 31.04 1470.23 31.024 1470.03 31.024C1469.58 31.024 1469.23 31.12 1468.97 31.312C1468.72 31.504 1468.57 31.824 1468.52 32.272H1466.25ZM1471.5 33.952C1471.4 34.0373 1471.28 34.1067 1471.13 34.16C1470.99 34.2027 1470.84 34.24 1470.67 34.272C1470.51 34.304 1470.34 34.3307 1470.16 34.352C1469.98 34.3733 1469.79 34.4 1469.61 34.432C1469.44 34.464 1469.27 34.5067 1469.1 34.56C1468.94 34.6133 1468.8 34.688 1468.67 34.784C1468.55 34.8693 1468.46 34.9813 1468.38 35.12C1468.31 35.2587 1468.27 35.4347 1468.27 35.648C1468.27 35.8507 1468.31 36.0213 1468.38 36.16C1468.46 36.2987 1468.56 36.4107 1468.68 36.496C1468.81 36.5707 1468.96 36.624 1469.13 36.656C1469.3 36.688 1469.48 36.704 1469.66 36.704C1470.11 36.704 1470.46 36.6293 1470.7 36.48C1470.95 36.3307 1471.13 36.1547 1471.24 35.952C1471.36 35.7387 1471.43 35.5253 1471.45 35.312C1471.48 35.0987 1471.5 34.928 1471.5 34.8V33.952ZM1481.6 33.872C1481.6 34.2133 1481.56 34.544 1481.49 34.864C1481.41 35.184 1481.3 35.4667 1481.14 35.712C1480.98 35.9573 1480.77 36.1547 1480.53 36.304C1480.29 36.4427 1480.01 36.512 1479.66 36.512C1479.33 36.512 1479.05 36.4427 1478.8 36.304C1478.55 36.1547 1478.35 35.9573 1478.19 35.712C1478.03 35.4667 1477.91 35.184 1477.84 34.864C1477.77 34.544 1477.73 34.2133 1477.73 33.872C1477.73 33.52 1477.77 33.184 1477.84 32.864C1477.91 32.544 1478.03 32.2613 1478.19 32.016C1478.35 31.7707 1478.55 31.5787 1478.8 31.44C1479.05 31.2907 1479.33 31.216 1479.66 31.216C1480.01 31.216 1480.29 31.2907 1480.53 31.44C1480.77 31.5787 1480.98 31.7707 1481.14 32.016C1481.3 32.2613 1481.41 32.544 1481.49 32.864C1481.56 33.184 1481.6 33.52 1481.6 33.872ZM1475.54 26.576V38H1477.7V36.944H1477.73C1477.97 37.4027 1478.34 37.728 1478.82 37.92C1479.3 38.112 1479.84 38.208 1480.45 38.208C1480.86 38.208 1481.27 38.1227 1481.68 37.952C1482.09 37.7813 1482.45 37.52 1482.77 37.168C1483.1 36.816 1483.37 36.368 1483.57 35.824C1483.77 35.2693 1483.87 34.6133 1483.87 33.856C1483.87 33.0987 1483.77 32.448 1483.57 31.904C1483.37 31.3493 1483.1 30.896 1482.77 30.544C1482.45 30.192 1482.09 29.9307 1481.68 29.76C1481.27 29.5893 1480.86 29.504 1480.45 29.504C1479.94 29.504 1479.44 29.6053 1478.96 29.808C1478.49 30 1478.12 30.3093 1477.84 30.736H1477.81V26.576H1475.54ZM1490.89 32.976H1487.19C1487.2 32.816 1487.23 32.6347 1487.29 32.432C1487.35 32.2293 1487.45 32.0373 1487.59 31.856C1487.74 31.6747 1487.93 31.5253 1488.17 31.408C1488.41 31.28 1488.71 31.216 1489.08 31.216C1489.63 31.216 1490.04 31.3653 1490.31 31.664C1490.59 31.9627 1490.78 32.4 1490.89 32.976ZM1487.19 34.416H1493.16C1493.2 33.776 1493.15 33.1627 1493 32.576C1492.85 31.9893 1492.6 31.4667 1492.26 31.008C1491.93 30.5493 1491.5 30.1867 1490.98 29.92C1490.46 29.6427 1489.85 29.504 1489.14 29.504C1488.51 29.504 1487.94 29.616 1487.41 29.84C1486.9 30.064 1486.46 30.3733 1486.09 30.768C1485.71 31.152 1485.42 31.6107 1485.22 32.144C1485.02 32.6773 1484.92 33.2533 1484.92 33.872C1484.92 34.512 1485.01 35.0987 1485.21 35.632C1485.41 36.1653 1485.69 36.624 1486.05 37.008C1486.42 37.392 1486.86 37.6907 1487.38 37.904C1487.9 38.1067 1488.49 38.208 1489.14 38.208C1490.08 38.208 1490.88 37.9947 1491.54 37.568C1492.2 37.1413 1492.69 36.432 1493.01 35.44H1491.01C1490.94 35.696 1490.74 35.9413 1490.41 36.176C1490.07 36.4 1489.68 36.512 1489.22 36.512C1488.58 36.512 1488.09 36.3467 1487.75 36.016C1487.41 35.6853 1487.22 35.152 1487.19 34.416ZM1494.57 26.576V38H1496.84V26.576H1494.57ZM1505.96 29.728V27.248H1503.69V29.728H1502.31V31.248H1503.69V36.128C1503.69 36.544 1503.76 36.88 1503.9 37.136C1504.04 37.392 1504.22 37.5893 1504.46 37.728C1504.7 37.8667 1504.98 37.9573 1505.29 38C1505.61 38.0533 1505.95 38.08 1506.3 38.08C1506.52 38.08 1506.75 38.0747 1506.99 38.064C1507.22 38.0533 1507.43 38.032 1507.63 38V36.24C1507.52 36.2613 1507.41 36.2773 1507.29 36.288C1507.17 36.2987 1507.05 36.304 1506.92 36.304C1506.54 36.304 1506.28 36.24 1506.15 36.112C1506.03 35.984 1505.96 35.728 1505.96 35.344V31.248H1507.63V29.728H1505.96ZM1514.28 32.976H1510.58C1510.59 32.816 1510.62 32.6347 1510.68 32.432C1510.74 32.2293 1510.84 32.0373 1510.98 31.856C1511.13 31.6747 1511.32 31.5253 1511.56 31.408C1511.8 31.28 1512.11 31.216 1512.47 31.216C1513.02 31.216 1513.43 31.3653 1513.7 31.664C1513.98 31.9627 1514.17 32.4 1514.28 32.976ZM1510.58 34.416H1516.55C1516.59 33.776 1516.54 33.1627 1516.39 32.576C1516.24 31.9893 1515.99 31.4667 1515.65 31.008C1515.32 30.5493 1514.89 30.1867 1514.37 29.92C1513.85 29.6427 1513.24 29.504 1512.53 29.504C1511.9 29.504 1511.33 29.616 1510.8 29.84C1510.29 30.064 1509.85 30.3733 1509.48 30.768C1509.1 31.152 1508.81 31.6107 1508.61 32.144C1508.41 32.6773 1508.31 33.2533 1508.31 33.872C1508.31 34.512 1508.4 35.0987 1508.6 35.632C1508.8 36.1653 1509.08 36.624 1509.44 37.008C1509.81 37.392 1510.25 37.6907 1510.77 37.904C1511.29 38.1067 1511.88 38.208 1512.53 38.208C1513.47 38.208 1514.27 37.9947 1514.93 37.568C1515.59 37.1413 1516.08 36.432 1516.4 35.44H1514.4C1514.33 35.696 1514.13 35.9413 1513.8 36.176C1513.47 36.4 1513.07 36.512 1512.61 36.512C1511.97 36.512 1511.48 36.3467 1511.14 36.016C1510.8 35.6853 1510.61 35.152 1510.58 34.416ZM1520.01 33.648L1517.03 38H1519.58L1521.3 35.392L1523.03 38H1525.62L1522.57 33.6L1525.29 29.728H1522.78L1521.34 31.888L1519.88 29.728H1517.29L1520.01 33.648ZM1529.37 29.728V27.248H1527.1V29.728H1525.72V31.248H1527.1V36.128C1527.1 36.544 1527.17 36.88 1527.31 37.136C1527.44 37.392 1527.63 37.5893 1527.87 37.728C1528.11 37.8667 1528.39 37.9573 1528.7 38C1529.02 38.0533 1529.35 38.08 1529.71 38.08C1529.93 38.08 1530.16 38.0747 1530.39 38.064C1530.63 38.0533 1530.84 38.032 1531.03 38V36.24C1530.93 36.2613 1530.81 36.2773 1530.7 36.288C1530.58 36.2987 1530.46 36.304 1530.33 36.304C1529.95 36.304 1529.69 36.24 1529.56 36.112C1529.43 35.984 1529.37 35.728 1529.37 35.344V31.248H1531.03V29.728H1529.37Z" fill="#333333"/>
<rect x="1456.5" y="49.5" width="294" height="49" rx="3.5" fill="#F7F8F9"/>
<rect x="1456.5" y="49.5" width="294" height="49" rx="3.5" stroke="#006FCF"/>
<path fill-rule="evenodd" clip-rule="evenodd" d="M1480.75 75.7744L1486.42 81.4514C1486.69 81.7197 1486.69 82.1553 1486.42 82.4236C1486.29 82.5579 1486.11 82.625 1485.94 82.625C1485.76 82.625 1485.59 82.5579 1485.45 82.4236L1479.77 76.7465C1478.38 77.9133 1476.66 78.5 1474.94 78.5C1473 78.5 1471.07 77.7617 1469.59 76.285C1466.64 73.3317 1466.64 68.5433 1469.59 65.59C1471.07 64.1133 1473 63.375 1474.94 63.375C1476.87 63.375 1478.81 64.1133 1480.29 65.59C1483.07 68.3792 1483.23 72.8033 1480.75 75.7744ZM1468.75 70.9375C1468.75 72.5902 1469.39 74.1441 1470.56 75.3127C1471.73 76.4814 1473.28 77.125 1474.94 77.125C1476.59 77.125 1478.14 76.4814 1479.31 75.3127C1480.48 74.1441 1481.12 72.5902 1481.12 70.9375C1481.12 69.2848 1480.48 67.7309 1479.31 66.5623C1478.14 65.3936 1476.59 64.75 1474.94 64.75C1473.28 64.75 1471.73 65.3936 1470.56 66.5623C1469.39 67.7309 1468.75 69.2848 1468.75 70.9375Z" fill="#53565A"/>
<path d="M1505.86 71.92H1507.3C1507.27 71.2907 1507.15 70.752 1506.93 70.304C1506.71 69.8453 1506.42 69.4667 1506.03 69.168C1505.66 68.8693 1505.22 68.6507 1504.72 68.512C1504.22 68.3733 1503.67 68.304 1503.09 68.304C1502.57 68.304 1502.05 68.3733 1501.55 68.512C1501.06 68.64 1500.62 68.8427 1500.22 69.12C1499.84 69.3867 1499.53 69.7333 1499.3 70.16C1499.06 70.576 1498.94 71.072 1498.94 71.648C1498.94 72.1707 1499.05 72.608 1499.25 72.96C1499.46 73.3013 1499.74 73.584 1500.08 73.808C1500.43 74.0213 1500.83 74.1973 1501.26 74.336C1501.7 74.464 1502.14 74.5813 1502.59 74.688C1503.05 74.784 1503.5 74.88 1503.94 74.976C1504.37 75.072 1504.76 75.2 1505.1 75.36C1505.46 75.5093 1505.73 75.7067 1505.94 75.952C1506.15 76.1973 1506.26 76.5173 1506.26 76.912C1506.26 77.328 1506.17 77.6693 1506 77.936C1505.83 78.2027 1505.61 78.416 1505.33 78.576C1505.05 78.7253 1504.74 78.832 1504.38 78.896C1504.04 78.96 1503.7 78.992 1503.36 78.992C1502.93 78.992 1502.52 78.9387 1502.11 78.832C1501.71 78.7253 1501.35 78.56 1501.04 78.336C1500.74 78.112 1500.5 77.8293 1500.3 77.488C1500.12 77.136 1500.03 76.72 1500.03 76.24H1498.59C1498.59 76.9333 1498.71 77.536 1498.96 78.048C1499.22 78.5493 1499.56 78.9653 1499.98 79.296C1500.42 79.616 1500.92 79.856 1501.49 80.016C1502.06 80.176 1502.67 80.256 1503.31 80.256C1503.83 80.256 1504.36 80.192 1504.88 80.064C1505.41 79.9467 1505.89 79.7547 1506.32 79.488C1506.75 79.2107 1507.09 78.8587 1507.36 78.432C1507.64 77.9947 1507.78 77.472 1507.78 76.864C1507.78 76.2987 1507.67 75.8293 1507.46 75.456C1507.25 75.0827 1506.98 74.7733 1506.62 74.528C1506.28 74.2827 1505.89 74.0907 1505.46 73.952C1505.02 73.8027 1504.57 73.6747 1504.11 73.568C1503.66 73.4613 1503.22 73.3653 1502.78 73.28C1502.35 73.184 1501.95 73.0667 1501.6 72.928C1501.26 72.7893 1500.98 72.6133 1500.77 72.4C1500.57 72.176 1500.46 71.888 1500.46 71.536C1500.46 71.1627 1500.53 70.8533 1500.67 70.608C1500.82 70.352 1501.01 70.1493 1501.25 70C1501.49 69.8507 1501.77 69.744 1502.08 69.68C1502.39 69.616 1502.7 69.584 1503.02 69.584C1503.81 69.584 1504.46 69.7707 1504.96 70.144C1505.47 70.5067 1505.77 71.0987 1505.86 71.92ZM1509.4 68.576V80H1510.76V75.328C1510.76 74.9547 1510.81 74.6133 1510.9 74.304C1511.01 73.984 1511.16 73.7067 1511.37 73.472C1511.57 73.2373 1511.82 73.056 1512.12 72.928C1512.43 72.8 1512.79 72.736 1513.21 72.736C1513.73 72.736 1514.14 72.8853 1514.44 73.184C1514.74 73.4827 1514.89 73.888 1514.89 74.4V80H1516.25V74.56C1516.25 74.112 1516.2 73.7067 1516.1 73.344C1516.02 72.9707 1515.86 72.6507 1515.64 72.384C1515.42 72.1173 1515.12 71.9093 1514.76 71.76C1514.4 71.6107 1513.94 71.536 1513.4 71.536C1513.15 71.536 1512.9 71.5627 1512.63 71.616C1512.38 71.6693 1512.12 71.7547 1511.88 71.872C1511.64 71.9787 1511.43 72.1227 1511.24 72.304C1511.05 72.4747 1510.9 72.688 1510.79 72.944H1510.76V68.576H1509.4ZM1519.28 75.872C1519.28 75.3707 1519.35 74.928 1519.47 74.544C1519.61 74.1493 1519.8 73.8187 1520.03 73.552C1520.27 73.2853 1520.54 73.0827 1520.85 72.944C1521.17 72.8053 1521.51 72.736 1521.86 72.736C1522.21 72.736 1522.54 72.8053 1522.85 72.944C1523.17 73.0827 1523.45 73.2853 1523.68 73.552C1523.92 73.8187 1524.1 74.1493 1524.23 74.544C1524.36 74.928 1524.43 75.3707 1524.43 75.872C1524.43 76.3733 1524.36 76.8213 1524.23 77.216C1524.1 77.6 1523.92 77.9253 1523.68 78.192C1523.45 78.448 1523.17 78.6453 1522.85 78.784C1522.54 78.9227 1522.21 78.992 1521.86 78.992C1521.51 78.992 1521.17 78.9227 1520.85 78.784C1520.54 78.6453 1520.27 78.448 1520.03 78.192C1519.8 77.9253 1519.61 77.6 1519.47 77.216C1519.35 76.8213 1519.28 76.3733 1519.28 75.872ZM1517.84 75.872C1517.84 76.48 1517.93 77.0453 1518.1 77.568C1518.27 78.0907 1518.52 78.5493 1518.87 78.944C1519.21 79.328 1519.63 79.632 1520.13 79.856C1520.63 80.0693 1521.21 80.176 1521.86 80.176C1522.52 80.176 1523.09 80.0693 1523.59 79.856C1524.09 79.632 1524.51 79.328 1524.85 78.944C1525.19 78.5493 1525.45 78.0907 1525.62 77.568C1525.79 77.0453 1525.87 76.48 1525.87 75.872C1525.87 75.264 1525.79 74.6987 1525.62 74.176C1525.45 73.6427 1525.19 73.184 1524.85 72.8C1524.51 72.4053 1524.09 72.096 1523.59 71.872C1523.09 71.648 1522.52 71.536 1521.86 71.536C1521.21 71.536 1520.63 71.648 1520.13 71.872C1519.63 72.096 1519.21 72.4053 1518.87 72.8C1518.52 73.184 1518.27 73.6427 1518.1 74.176C1517.93 74.6987 1517.84 75.264 1517.84 75.872ZM1527.53 71.728V83.152H1528.89V78.896H1528.92C1529.07 79.1413 1529.25 79.3493 1529.46 79.52C1529.69 79.68 1529.92 79.808 1530.17 79.904C1530.41 80 1530.66 80.0693 1530.9 80.112C1531.16 80.1547 1531.39 80.176 1531.59 80.176C1532.22 80.176 1532.77 80.064 1533.24 79.84C1533.72 79.616 1534.11 79.312 1534.42 78.928C1534.74 78.5333 1534.98 78.0747 1535.13 77.552C1535.29 77.0293 1535.37 76.4747 1535.37 75.888C1535.37 75.3013 1535.29 74.7467 1535.13 74.224C1534.97 73.7013 1534.73 73.2427 1534.41 72.848C1534.1 72.4427 1533.7 72.1227 1533.22 71.888C1532.75 71.6533 1532.2 71.536 1531.56 71.536C1530.98 71.536 1530.45 71.6427 1529.97 71.856C1529.49 72.0587 1529.14 72.3893 1528.92 72.848H1528.89V71.728H1527.53ZM1533.93 75.792C1533.93 76.1973 1533.88 76.592 1533.8 76.976C1533.71 77.36 1533.57 77.7013 1533.38 78C1533.19 78.2987 1532.93 78.5387 1532.61 78.72C1532.3 78.9013 1531.91 78.992 1531.45 78.992C1530.98 78.992 1530.58 78.9067 1530.25 78.736C1529.91 78.5547 1529.64 78.32 1529.43 78.032C1529.23 77.744 1529.08 77.4133 1528.98 77.04C1528.89 76.656 1528.84 76.2613 1528.84 75.856C1528.84 75.472 1528.88 75.0933 1528.97 74.72C1529.06 74.3467 1529.21 74.016 1529.41 73.728C1529.62 73.4293 1529.88 73.1893 1530.2 73.008C1530.52 72.8267 1530.91 72.736 1531.37 72.736C1531.8 72.736 1532.18 72.8213 1532.5 72.992C1532.83 73.1627 1533.1 73.392 1533.3 73.68C1533.51 73.968 1533.67 74.2987 1533.77 74.672C1533.87 75.0347 1533.93 75.408 1533.93 75.792ZM1548.25 71.92H1549.69C1549.67 71.2907 1549.54 70.752 1549.32 70.304C1549.11 69.8453 1548.81 69.4667 1548.42 69.168C1548.05 68.8693 1547.61 68.6507 1547.11 68.512C1546.61 68.3733 1546.07 68.304 1545.48 68.304C1544.96 68.304 1544.44 68.3733 1543.94 68.512C1543.45 68.64 1543.01 68.8427 1542.61 69.12C1542.23 69.3867 1541.92 69.7333 1541.69 70.16C1541.45 70.576 1541.33 71.072 1541.33 71.648C1541.33 72.1707 1541.44 72.608 1541.64 72.96C1541.85 73.3013 1542.13 73.584 1542.47 73.808C1542.82 74.0213 1543.22 74.1973 1543.65 74.336C1544.09 74.464 1544.53 74.5813 1544.98 74.688C1545.44 74.784 1545.89 74.88 1546.33 74.976C1546.76 75.072 1547.15 75.2 1547.49 75.36C1547.85 75.5093 1548.12 75.7067 1548.33 75.952C1548.54 76.1973 1548.65 76.5173 1548.65 76.912C1548.65 77.328 1548.56 77.6693 1548.39 77.936C1548.22 78.2027 1548 78.416 1547.72 78.576C1547.44 78.7253 1547.13 78.832 1546.77 78.896C1546.43 78.96 1546.09 78.992 1545.75 78.992C1545.32 78.992 1544.91 78.9387 1544.5 78.832C1544.1 78.7253 1543.74 78.56 1543.43 78.336C1543.13 78.112 1542.89 77.8293 1542.69 77.488C1542.51 77.136 1542.42 76.72 1542.42 76.24H1540.98C1540.98 76.9333 1541.11 77.536 1541.35 78.048C1541.61 78.5493 1541.95 78.9653 1542.37 79.296C1542.81 79.616 1543.31 79.856 1543.88 80.016C1544.45 80.176 1545.06 80.256 1545.7 80.256C1546.23 80.256 1546.75 80.192 1547.27 80.064C1547.8 79.9467 1548.28 79.7547 1548.71 79.488C1549.14 79.2107 1549.48 78.8587 1549.75 78.432C1550.03 77.9947 1550.17 77.472 1550.17 76.864C1550.17 76.2987 1550.06 75.8293 1549.85 75.456C1549.64 75.0827 1549.37 74.7733 1549.01 74.528C1548.67 74.2827 1548.28 74.0907 1547.85 73.952C1547.41 73.8027 1546.96 73.6747 1546.5 73.568C1546.05 73.4613 1545.61 73.3653 1545.17 73.28C1544.74 73.184 1544.34 73.0667 1543.99 72.928C1543.65 72.7893 1543.37 72.6133 1543.16 72.4C1542.96 72.176 1542.85 71.888 1542.85 71.536C1542.85 71.1627 1542.92 70.8533 1543.06 70.608C1543.21 70.352 1543.4 70.1493 1543.64 70C1543.88 69.8507 1544.16 69.744 1544.47 69.68C1544.78 69.616 1545.09 69.584 1545.41 69.584C1546.2 69.584 1546.85 69.7707 1547.35 70.144C1547.86 70.5067 1548.16 71.0987 1548.25 71.92ZM1551.79 71.728V80H1553.15V74.848C1553.15 74.688 1553.19 74.4907 1553.26 74.256C1553.35 74.0107 1553.47 73.776 1553.65 73.552C1553.83 73.328 1554.06 73.136 1554.33 72.976C1554.62 72.816 1554.96 72.736 1555.36 72.736C1555.67 72.736 1555.92 72.784 1556.11 72.88C1556.31 72.9653 1556.47 73.0933 1556.59 73.264C1556.71 73.424 1556.79 73.616 1556.83 73.84C1556.88 74.064 1556.91 74.3093 1556.91 74.576V80H1558.27V74.848C1558.27 74.208 1558.46 73.696 1558.85 73.312C1559.23 72.928 1559.76 72.736 1560.43 72.736C1560.76 72.736 1561.03 72.784 1561.23 72.88C1561.44 72.976 1561.61 73.1093 1561.73 73.28C1561.84 73.44 1561.92 73.632 1561.97 73.856C1562.01 74.08 1562.03 74.32 1562.03 74.576V80H1563.39V73.936C1563.39 73.5093 1563.32 73.1467 1563.18 72.848C1563.05 72.5387 1562.87 72.288 1562.62 72.096C1562.39 71.904 1562.1 71.7653 1561.76 71.68C1561.43 71.584 1561.05 71.536 1560.64 71.536C1560.09 71.536 1559.59 71.6587 1559.13 71.904C1558.69 72.1493 1558.32 72.496 1558.05 72.944C1557.87 72.432 1557.58 72.0693 1557.17 71.856C1556.75 71.6427 1556.29 71.536 1555.77 71.536C1554.61 71.536 1553.72 72.0053 1553.1 72.944H1553.07V71.728H1551.79ZM1572.76 79.968C1572.52 80.1067 1572.2 80.176 1571.78 80.176C1571.43 80.176 1571.15 80.08 1570.93 79.888C1570.73 79.6853 1570.63 79.36 1570.63 78.912C1570.26 79.36 1569.82 79.6853 1569.32 79.888C1568.83 80.08 1568.29 80.176 1567.72 80.176C1567.34 80.176 1566.99 80.1333 1566.65 80.048C1566.32 79.9627 1566.03 79.8293 1565.78 79.648C1565.54 79.4667 1565.34 79.232 1565.19 78.944C1565.05 78.6453 1564.98 78.288 1564.98 77.872C1564.98 77.4027 1565.06 77.0187 1565.22 76.72C1565.38 76.4213 1565.59 76.1813 1565.85 76C1566.11 75.808 1566.41 75.664 1566.74 75.568C1567.08 75.472 1567.43 75.392 1567.78 75.328C1568.16 75.2533 1568.51 75.2 1568.84 75.168C1569.18 75.1253 1569.48 75.072 1569.73 75.008C1569.99 74.9333 1570.19 74.832 1570.34 74.704C1570.49 74.5653 1570.57 74.368 1570.57 74.112C1570.57 73.8133 1570.51 73.5733 1570.39 73.392C1570.28 73.2107 1570.14 73.072 1569.96 72.976C1569.79 72.88 1569.59 72.816 1569.37 72.784C1569.15 72.752 1568.94 72.736 1568.73 72.736C1568.15 72.736 1567.67 72.848 1567.29 73.072C1566.9 73.2853 1566.69 73.696 1566.66 74.304H1565.3C1565.32 73.792 1565.43 73.36 1565.62 73.008C1565.81 72.656 1566.07 72.3733 1566.39 72.16C1566.71 71.936 1567.07 71.776 1567.48 71.68C1567.89 71.584 1568.34 71.536 1568.81 71.536C1569.18 71.536 1569.55 71.5627 1569.91 71.616C1570.28 71.6693 1570.62 71.7813 1570.92 71.952C1571.22 72.112 1571.46 72.3413 1571.64 72.64C1571.82 72.9387 1571.91 73.328 1571.91 73.808V78.064C1571.91 78.384 1571.93 78.6187 1571.96 78.768C1572 78.9173 1572.13 78.992 1572.34 78.992C1572.46 78.992 1572.6 78.9653 1572.76 78.912V79.968ZM1570.55 75.728C1570.38 75.856 1570.16 75.952 1569.88 76.016C1569.6 76.0693 1569.31 76.1173 1569 76.16C1568.7 76.192 1568.4 76.2347 1568.09 76.288C1567.78 76.3307 1567.5 76.4053 1567.25 76.512C1567.01 76.6187 1566.81 76.7733 1566.65 76.976C1566.5 77.168 1566.42 77.4347 1566.42 77.776C1566.42 78 1566.46 78.192 1566.55 78.352C1566.65 78.5013 1566.76 78.624 1566.9 78.72C1567.05 78.816 1567.22 78.8853 1567.41 78.928C1567.61 78.9707 1567.81 78.992 1568.02 78.992C1568.47 78.992 1568.85 78.9333 1569.17 78.816C1569.49 78.688 1569.76 78.5333 1569.96 78.352C1570.16 78.16 1570.31 77.9573 1570.41 77.744C1570.5 77.52 1570.55 77.312 1570.55 77.12V75.728ZM1574.1 68.576V80H1575.46V68.576H1574.1ZM1577.65 68.576V80H1579.01V68.576H1577.65Z" fill="#333333"/>
<rect x="1456.5" y="102.5" width="294" height="223" rx="3.5" fill="white"/>
<rect x="1456.5" y="102.5" width="294" height="223" rx="3.5" stroke="#ECEDEE"/>
<rect x="1457" y="103" width="293" height="44" rx="4" fill="white"/>
<path d="M1468.17 120.29H1469.6V129.8H1475.26V131H1468.17V120.29ZM1477.64 121.85H1476.37V120.29H1477.64V121.85ZM1476.37 123.245H1477.64V131H1476.37V123.245ZM1479.62 123.245H1480.82V124.475H1480.85C1481.38 123.535 1482.22 123.065 1483.37 123.065C1483.88 123.065 1484.31 123.135 1484.65 123.275C1484.99 123.415 1485.26 123.61 1485.47 123.86C1485.68 124.11 1485.83 124.41 1485.91 124.76C1486 125.1 1486.04 125.48 1486.04 125.9V131H1484.77V125.75C1484.77 125.27 1484.63 124.89 1484.35 124.61C1484.07 124.33 1483.68 124.19 1483.19 124.19C1482.8 124.19 1482.46 124.25 1482.17 124.37C1481.89 124.49 1481.66 124.66 1481.47 124.88C1481.28 125.1 1481.13 125.36 1481.03 125.66C1480.94 125.95 1480.9 126.27 1480.9 126.62V131H1479.62V123.245ZM1488.03 120.29H1489.31V126.635L1492.85 123.245H1494.56L1491.48 126.065L1494.78 131H1493.16L1490.51 126.95L1489.31 128.06V131H1488.03V120.29Z" fill="#006FCF"/>
<path d="M1467 132.875H1475.34V133.625H1467V132.875ZM1475.33 132.875H1478.66V133.625H1475.33V132.875ZM1478.66 132.875H1487V133.625H1478.66V132.875ZM1487 132.875H1494.78V133.625H1487V132.875Z" fill="#006FCF"/>
<rect x="1457" y="147" width="293" height="44" rx="4" fill="white"/>
<path d="M1468.17 164.29H1469.6V173.8H1475.26V175H1468.17V164.29ZM1477.64 165.85H1476.37V164.29H1477.64V165.85ZM1476.37 167.245H1477.64V175H1476.37V167.245ZM1479.62 167.245H1480.82V168.475H1480.85C1481.38 167.535 1482.22 167.065 1483.37 167.065C1483.88 167.065 1484.31 167.135 1484.65 167.275C1484.99 167.415 1485.26 167.61 1485.47 167.86C1485.68 168.11 1485.83 168.41 1485.91 168.76C1486 169.1 1486.04 169.48 1486.04 169.9V175H1484.77V169.75C1484.77 169.27 1484.63 168.89 1484.35 168.61C1484.07 168.33 1483.68 168.19 1483.19 168.19C1482.8 168.19 1482.46 168.25 1482.17 168.37C1481.89 168.49 1481.66 168.66 1481.47 168.88C1481.28 169.1 1481.13 169.36 1481.03 169.66C1480.94 169.95 1480.9 170.27 1480.9 170.62V175H1479.62V167.245ZM1488.03 164.29H1489.31V170.635L1492.85 167.245H1494.56L1491.48 170.065L1494.78 175H1493.16L1490.51 170.95L1489.31 172.06V175H1488.03V164.29Z" fill="#006FCF"/>
<path d="M1467 176.875H1475.34V177.625H1467V176.875ZM1475.33 176.875H1478.66V177.625H1475.33V176.875ZM1478.66 176.875H1487V177.625H1478.66V176.875ZM1487 176.875H1494.78V177.625H1487V176.875Z" fill="#006FCF"/>
<rect x="1457" y="191" width="293" height="44" rx="4" fill="white"/>
<path d="M1468.17 208.29H1469.6V217.8H1475.26V219H1468.17V208.29ZM1477.64 209.85H1476.37V208.29H1477.64V209.85ZM1476.37 211.245H1477.64V219H1476.37V211.245ZM1479.62 211.245H1480.82V212.475H1480.85C1481.38 211.535 1482.22 211.065 1483.37 211.065C1483.88 211.065 1484.31 211.135 1484.65 211.275C1484.99 211.415 1485.26 211.61 1485.47 211.86C1485.68 212.11 1485.83 212.41 1485.91 212.76C1486 213.1 1486.04 213.48 1486.04 213.9V219H1484.77V213.75C1484.77 213.27 1484.63 212.89 1484.35 212.61C1484.07 212.33 1483.68 212.19 1483.19 212.19C1482.8 212.19 1482.46 212.25 1482.17 212.37C1481.89 212.49 1481.66 212.66 1481.47 212.88C1481.28 213.1 1481.13 213.36 1481.03 213.66C1480.94 213.95 1480.9 214.27 1480.9 214.62V219H1479.62V211.245ZM1488.03 208.29H1489.31V214.635L1492.85 211.245H1494.56L1491.48 214.065L1494.78 219H1493.16L1490.51 214.95L1489.31 216.06V219H1488.03V208.29Z" fill="#006FCF"/>
<path d="M1467 220.875H1475.34V221.625H1467V220.875ZM1475.33 220.875H1478.66V221.625H1475.33V220.875ZM1478.66 220.875H1487V221.625H1478.66V220.875ZM1487 220.875H1494.78V221.625H1487V220.875Z" fill="#006FCF"/>
<rect x="1457" y="235" width="293" height="44" rx="4" fill="white"/>
<path d="M1468.17 252.29H1469.6V261.8H1475.26V263H1468.17V252.29ZM1477.64 253.85H1476.37V252.29H1477.64V253.85ZM1476.37 255.245H1477.64V263H1476.37V255.245ZM1479.62 255.245H1480.82V256.475H1480.85C1481.38 255.535 1482.22 255.065 1483.37 255.065C1483.88 255.065 1484.31 255.135 1484.65 255.275C1484.99 255.415 1485.26 255.61 1485.47 255.86C1485.68 256.11 1485.83 256.41 1485.91 256.76C1486 257.1 1486.04 257.48 1486.04 257.9V263H1484.77V257.75C1484.77 257.27 1484.63 256.89 1484.35 256.61C1484.07 256.33 1483.68 256.19 1483.19 256.19C1482.8 256.19 1482.46 256.25 1482.17 256.37C1481.89 256.49 1481.66 256.66 1481.47 256.88C1481.28 257.1 1481.13 257.36 1481.03 257.66C1480.94 257.95 1480.9 258.27 1480.9 258.62V263H1479.62V255.245ZM1488.03 252.29H1489.31V258.635L1492.85 255.245H1494.56L1491.48 258.065L1494.78 263H1493.16L1490.51 258.95L1489.31 260.06V263H1488.03V252.29Z" fill="#006FCF"/>
<path d="M1467 264.875H1475.34V265.625H1467V264.875ZM1475.33 264.875H1478.66V265.625H1475.33V264.875ZM1478.66 264.875H1487V265.625H1478.66V264.875ZM1487 264.875H1494.78V265.625H1487V264.875Z" fill="#006FCF"/>
<rect x="1457" y="279" width="293" height="44" rx="4" fill="white"/>
<path d="M1468.17 296.29H1469.6V305.8H1475.26V307H1468.17V296.29ZM1477.64 297.85H1476.37V296.29H1477.64V297.85ZM1476.37 299.245H1477.64V307H1476.37V299.245ZM1479.62 299.245H1480.82V300.475H1480.85C1481.38 299.535 1482.22 299.065 1483.37 299.065C1483.88 299.065 1484.31 299.135 1484.65 299.275C1484.99 299.415 1485.26 299.61 1485.47 299.86C1485.68 300.11 1485.83 300.41 1485.91 300.76C1486 301.1 1486.04 301.48 1486.04 301.9V307H1484.77V301.75C1484.77 301.27 1484.63 300.89 1484.35 300.61C1484.07 300.33 1483.68 300.19 1483.19 300.19C1482.8 300.19 1482.46 300.25 1482.17 300.37C1481.89 300.49 1481.66 300.66 1481.47 300.88C1481.28 301.1 1481.13 301.36 1481.03 301.66C1480.94 301.95 1480.9 302.27 1480.9 302.62V307H1479.62V299.245ZM1488.03 296.29H1489.31V302.635L1492.85 299.245H1494.56L1491.48 302.065L1494.78 307H1493.16L1490.51 302.95L1489.31 304.06V307H1488.03V296.29Z" fill="#006FCF"/>
<path d="M1467 308.875H1475.34V309.625H1467V308.875ZM1475.33 308.875H1478.66V309.625H1475.33V308.875ZM1478.66 308.875H1487V309.625H1478.66V308.875ZM1487 308.875H1494.78V309.625H1487V308.875Z" fill="#006FCF"/>
</svg>
