<svg width="309" height="138" viewBox="0 0 309 138" fill="none" xmlns="http://www.w3.org/2000/svg">
<g filter="url(#filter0_d_191_3168)">
<rect x="7" y="5" width="295" height="124" rx="6" fill="#868686"/>
<rect x="8" y="47" width="293.068" height="20" fill="#509AFF"/>
<path d="M23.2578 24H24.4883V14.1357H23.2578V24ZM29.4717 24.0547C29.7041 24.0547 29.9297 24.0273 30.1621 23.9863V22.9746C29.9434 22.9951 29.8271 23.002 29.6152 23.002C28.8496 23.002 28.5488 22.6533 28.5488 21.7852V17.6152H30.1621V16.6309H28.5488V14.7236H27.3184V16.6309H26.1562V17.6152H27.3184V22.0859C27.3184 23.4941 27.9541 24.0547 29.4717 24.0547ZM34.8379 24.1299C36.5742 24.1299 37.627 23.1455 37.8799 22.1475L37.8936 22.0928H36.7041L36.6768 22.1543C36.4785 22.5986 35.8633 23.0703 34.8652 23.0703C33.5527 23.0703 32.7119 22.1816 32.6777 20.6572H37.9824V20.1924C37.9824 17.9912 36.7656 16.501 34.7627 16.501C32.7598 16.501 31.4609 18.0596 31.4609 20.3359V20.3428C31.4609 22.6533 32.7324 24.1299 34.8379 24.1299ZM34.7559 17.5605C35.8428 17.5605 36.6494 18.251 36.7725 19.707H32.6982C32.8281 18.3057 33.6621 17.5605 34.7559 17.5605ZM39.8281 24H41.0176V19.4336C41.0176 18.3945 41.749 17.5537 42.7129 17.5537C43.6426 17.5537 44.2441 18.1211 44.2441 18.9961V24H45.4336V19.2627C45.4336 18.3262 46.1104 17.5537 47.1357 17.5537C48.1748 17.5537 48.6738 18.0938 48.6738 19.1807V24H49.8633V18.9072C49.8633 17.3623 49.0225 16.501 47.5186 16.501C46.5 16.501 45.6592 17.0137 45.2627 17.793H45.1533C44.8115 17.0273 44.1143 16.501 43.1162 16.501C42.1523 16.501 41.4551 16.959 41.127 17.752H41.0176V16.6309H39.8281V24ZM58.3535 24H59.584V14.1357H58.3604L55.7354 16.0225V17.3213L58.2441 15.5029H58.3535V24ZM23.2578 43H24.4883V33.1357H23.2578V43ZM29.4717 43.0547C29.7041 43.0547 29.9297 43.0273 30.1621 42.9863V41.9746C29.9434 41.9951 29.8271 42.002 29.6152 42.002C28.8496 42.002 28.5488 41.6533 28.5488 40.7852V36.6152H30.1621V35.6309H28.5488V33.7236H27.3184V35.6309H26.1562V36.6152H27.3184V41.0859C27.3184 42.4941 27.9541 43.0547 29.4717 43.0547ZM34.8379 43.1299C36.5742 43.1299 37.627 42.1455 37.8799 41.1475L37.8936 41.0928H36.7041L36.6768 41.1543C36.4785 41.5986 35.8633 42.0703 34.8652 42.0703C33.5527 42.0703 32.7119 41.1816 32.6777 39.6572H37.9824V39.1924C37.9824 36.9912 36.7656 35.501 34.7627 35.501C32.7598 35.501 31.4609 37.0596 31.4609 39.3359V39.3428C31.4609 41.6533 32.7324 43.1299 34.8379 43.1299ZM34.7559 36.5605C35.8428 36.5605 36.6494 37.251 36.7725 38.707H32.6982C32.8281 37.3057 33.6621 36.5605 34.7559 36.5605ZM39.8281 43H41.0176V38.4336C41.0176 37.3945 41.749 36.5537 42.7129 36.5537C43.6426 36.5537 44.2441 37.1211 44.2441 37.9961V43H45.4336V38.2627C45.4336 37.3262 46.1104 36.5537 47.1357 36.5537C48.1748 36.5537 48.6738 37.0938 48.6738 38.1807V43H49.8633V37.9072C49.8633 36.3623 49.0225 35.501 47.5186 35.501C46.5 35.501 45.6592 36.0137 45.2627 36.793H45.1533C44.8115 36.0273 44.1143 35.501 43.1162 35.501C42.1523 35.501 41.4551 35.959 41.127 36.752H41.0176V35.6309H39.8281V43ZM55.9404 43H62.3252V41.8926H57.6494V41.7832L59.8916 39.4658C61.6758 37.627 62.1611 36.8066 62.1611 35.6787V35.665C62.1611 34.0723 60.8418 32.9033 59.1191 32.9033C57.2324 32.9033 55.8789 34.1611 55.8721 35.9111L55.8857 35.918L57.0615 35.9248L57.0684 35.9111C57.0684 34.749 57.8545 33.9766 59.0371 33.9766C60.1992 33.9766 60.9033 34.7559 60.9033 35.7949V35.8086C60.9033 36.6699 60.5342 37.1826 59.2764 38.543L55.9404 42.1523V43ZM23.2578 62H24.4883V52.1357H23.2578V62ZM29.4717 62.0547C29.7041 62.0547 29.9297 62.0273 30.1621 61.9863V60.9746C29.9434 60.9951 29.8271 61.002 29.6152 61.002C28.8496 61.002 28.5488 60.6533 28.5488 59.7852V55.6152H30.1621V54.6309H28.5488V52.7236H27.3184V54.6309H26.1562V55.6152H27.3184V60.0859C27.3184 61.4941 27.9541 62.0547 29.4717 62.0547ZM34.8379 62.1299C36.5742 62.1299 37.627 61.1455 37.8799 60.1475L37.8936 60.0928H36.7041L36.6768 60.1543C36.4785 60.5986 35.8633 61.0703 34.8652 61.0703C33.5527 61.0703 32.7119 60.1816 32.6777 58.6572H37.9824V58.1924C37.9824 55.9912 36.7656 54.501 34.7627 54.501C32.7598 54.501 31.4609 56.0596 31.4609 58.3359V58.3428C31.4609 60.6533 32.7324 62.1299 34.8379 62.1299ZM34.7559 55.5605C35.8428 55.5605 36.6494 56.251 36.7725 57.707H32.6982C32.8281 56.3057 33.6621 55.5605 34.7559 55.5605ZM39.8281 62H41.0176V57.4336C41.0176 56.3945 41.749 55.5537 42.7129 55.5537C43.6426 55.5537 44.2441 56.1211 44.2441 56.9961V62H45.4336V57.2627C45.4336 56.3262 46.1104 55.5537 47.1357 55.5537C48.1748 55.5537 48.6738 56.0938 48.6738 57.1807V62H49.8633V56.9072C49.8633 55.3623 49.0225 54.501 47.5186 54.501C46.5 54.501 45.6592 55.0137 45.2627 55.793H45.1533C44.8115 55.0273 44.1143 54.501 43.1162 54.501C42.1523 54.501 41.4551 54.959 41.127 55.752H41.0176V54.6309H39.8281V62ZM59.2969 62.1641C61.2725 62.1641 62.7217 60.9473 62.7217 59.2998V59.2861C62.7217 57.8848 61.7441 56.9893 60.3086 56.8662V56.8389C61.5391 56.5791 62.4004 55.7451 62.4004 54.5283V54.5146C62.4004 53.0176 61.1631 51.9717 59.2832 51.9717C57.4375 51.9717 56.166 53.0449 56.0088 54.6514L56.002 54.7197H57.1846L57.1914 54.6514C57.2939 53.6533 58.1211 53.0381 59.2832 53.0381C60.4863 53.0381 61.1631 53.6328 61.1631 54.665V54.6787C61.1631 55.6631 60.3428 56.3877 59.167 56.3877H57.9844V57.4268H59.2217C60.6025 57.4268 61.4707 58.1035 61.4707 59.3135V59.3271C61.4707 60.373 60.5889 61.0977 59.2969 61.0977C57.9844 61.0977 57.0889 60.4277 56.9932 59.457L56.9863 59.3887H55.8037L55.8105 59.4707C55.9404 61.0293 57.2598 62.1641 59.2969 62.1641ZM23.2578 81H24.4883V71.1357H23.2578V81ZM29.4717 81.0547C29.7041 81.0547 29.9297 81.0273 30.1621 80.9863V79.9746C29.9434 79.9951 29.8271 80.002 29.6152 80.002C28.8496 80.002 28.5488 79.6533 28.5488 78.7852V74.6152H30.1621V73.6309H28.5488V71.7236H27.3184V73.6309H26.1562V74.6152H27.3184V79.0859C27.3184 80.4941 27.9541 81.0547 29.4717 81.0547ZM34.8379 81.1299C36.5742 81.1299 37.627 80.1455 37.8799 79.1475L37.8936 79.0928H36.7041L36.6768 79.1543C36.4785 79.5986 35.8633 80.0703 34.8652 80.0703C33.5527 80.0703 32.7119 79.1816 32.6777 77.6572H37.9824V77.1924C37.9824 74.9912 36.7656 73.501 34.7627 73.501C32.7598 73.501 31.4609 75.0596 31.4609 77.3359V77.3428C31.4609 79.6533 32.7324 81.1299 34.8379 81.1299ZM34.7559 74.5605C35.8428 74.5605 36.6494 75.251 36.7725 76.707H32.6982C32.8281 75.3057 33.6621 74.5605 34.7559 74.5605ZM39.8281 81H41.0176V76.4336C41.0176 75.3945 41.749 74.5537 42.7129 74.5537C43.6426 74.5537 44.2441 75.1211 44.2441 75.9961V81H45.4336V76.2627C45.4336 75.3262 46.1104 74.5537 47.1357 74.5537C48.1748 74.5537 48.6738 75.0938 48.6738 76.1807V81H49.8633V75.9072C49.8633 74.3623 49.0225 73.501 47.5186 73.501C46.5 73.501 45.6592 74.0137 45.2627 74.793H45.1533C44.8115 74.0273 44.1143 73.501 43.1162 73.501C42.1523 73.501 41.4551 73.959 41.127 74.752H41.0176V73.6309H39.8281V81ZM60.4453 81H61.6484V78.9561H63.0498V77.8555H61.6484V71.1357H59.8643C58.4834 73.1934 56.9727 75.5996 55.6396 77.835V78.9561H60.4453V81ZM56.8975 77.8623V77.7803C57.9707 75.9688 59.2627 73.9316 60.3701 72.2773H60.4521V77.8623H56.8975ZM23.2578 100H24.4883V90.1357H23.2578V100ZM29.4717 100.055C29.7041 100.055 29.9297 100.027 30.1621 99.9863V98.9746C29.9434 98.9951 29.8271 99.002 29.6152 99.002C28.8496 99.002 28.5488 98.6533 28.5488 97.7852V93.6152H30.1621V92.6309H28.5488V90.7236H27.3184V92.6309H26.1562V93.6152H27.3184V98.0859C27.3184 99.4941 27.9541 100.055 29.4717 100.055ZM34.8379 100.13C36.5742 100.13 37.627 99.1455 37.8799 98.1475L37.8936 98.0928H36.7041L36.6768 98.1543C36.4785 98.5986 35.8633 99.0703 34.8652 99.0703C33.5527 99.0703 32.7119 98.1816 32.6777 96.6572H37.9824V96.1924C37.9824 93.9912 36.7656 92.501 34.7627 92.501C32.7598 92.501 31.4609 94.0596 31.4609 96.3359V96.3428C31.4609 98.6533 32.7324 100.13 34.8379 100.13ZM34.7559 93.5605C35.8428 93.5605 36.6494 94.251 36.7725 95.707H32.6982C32.8281 94.3057 33.6621 93.5605 34.7559 93.5605ZM39.8281 100H41.0176V95.4336C41.0176 94.3945 41.749 93.5537 42.7129 93.5537C43.6426 93.5537 44.2441 94.1211 44.2441 94.9961V100H45.4336V95.2627C45.4336 94.3262 46.1104 93.5537 47.1357 93.5537C48.1748 93.5537 48.6738 94.0938 48.6738 95.1807V100H49.8633V94.9072C49.8633 93.3623 49.0225 92.501 47.5186 92.501C46.5 92.501 45.6592 93.0137 45.2627 93.793H45.1533C44.8115 93.0273 44.1143 92.501 43.1162 92.501C42.1523 92.501 41.4551 92.959 41.127 93.752H41.0176V92.6309H39.8281V100ZM59.1807 100.232C61.1836 100.232 62.6123 98.8447 62.6123 96.8555V96.8418C62.6123 94.9346 61.2793 93.5469 59.4268 93.5469C58.5312 93.5469 57.7588 93.9092 57.3213 94.5723H57.2119L57.5469 91.2363H62.0654V90.1357H56.5762L56.0566 95.8027H57.123C57.2461 95.5703 57.4033 95.3789 57.5742 95.2148C57.998 94.8115 58.5586 94.6133 59.2148 94.6133C60.4932 94.6133 61.4092 95.5498 61.4092 96.8623V96.876C61.4092 98.209 60.5068 99.1455 59.1943 99.1455C58.0391 99.1455 57.1846 98.3936 57.0684 97.4502L57.0615 97.3955H55.8789L55.8857 97.4707C56.0293 99.0498 57.3418 100.232 59.1807 100.232ZM23.2578 119H24.4883V109.136H23.2578V119ZM29.4717 119.055C29.7041 119.055 29.9297 119.027 30.1621 118.986V117.975C29.9434 117.995 29.8271 118.002 29.6152 118.002C28.8496 118.002 28.5488 117.653 28.5488 116.785V112.615H30.1621V111.631H28.5488V109.724H27.3184V111.631H26.1562V112.615H27.3184V117.086C27.3184 118.494 27.9541 119.055 29.4717 119.055ZM34.8379 119.13C36.5742 119.13 37.627 118.146 37.8799 117.147L37.8936 117.093H36.7041L36.6768 117.154C36.4785 117.599 35.8633 118.07 34.8652 118.07C33.5527 118.07 32.7119 117.182 32.6777 115.657H37.9824V115.192C37.9824 112.991 36.7656 111.501 34.7627 111.501C32.7598 111.501 31.4609 113.06 31.4609 115.336V115.343C31.4609 117.653 32.7324 119.13 34.8379 119.13ZM34.7559 112.561C35.8428 112.561 36.6494 113.251 36.7725 114.707H32.6982C32.8281 113.306 33.6621 112.561 34.7559 112.561ZM39.8281 119H41.0176V114.434C41.0176 113.395 41.749 112.554 42.7129 112.554C43.6426 112.554 44.2441 113.121 44.2441 113.996V119H45.4336V114.263C45.4336 113.326 46.1104 112.554 47.1357 112.554C48.1748 112.554 48.6738 113.094 48.6738 114.181V119H49.8633V113.907C49.8633 112.362 49.0225 111.501 47.5186 111.501C46.5 111.501 45.6592 112.014 45.2627 112.793H45.1533C44.8115 112.027 44.1143 111.501 43.1162 111.501C42.1523 111.501 41.4551 111.959 41.127 112.752H41.0176V111.631H39.8281V119ZM59.4268 119.232C61.416 119.232 62.8789 117.804 62.8789 115.835V115.821C62.8789 113.928 61.498 112.52 59.6455 112.52C58.3125 112.52 57.3828 113.237 57.0205 114.044H56.8906C56.8906 113.969 56.8906 113.887 56.8975 113.812C56.9727 111.754 57.7041 110.004 59.4951 110.004C60.4932 110.004 61.1836 110.517 61.4844 111.344L61.5117 111.419H62.749L62.7285 111.33C62.3936 109.874 61.1631 108.903 59.5088 108.903C57.1162 108.903 55.7148 110.872 55.7148 114.235V114.249C55.7148 117.961 57.6221 119.232 59.4268 119.232ZM57.1846 115.821V115.814C57.1846 114.529 58.1553 113.593 59.4336 113.593C60.7119 113.593 61.6416 114.536 61.6416 115.849V115.862C61.6416 117.141 60.6504 118.146 59.4131 118.146C58.1621 118.146 57.1846 117.12 57.1846 115.821Z" fill="white"/>
</g>
<defs>
<filter id="filter0_d_191_3168" x="0" y="0" width="309" height="138" filterUnits="userSpaceOnUse" color-interpolation-filters="sRGB">
<feFlood flood-opacity="0" result="BackgroundImageFix"/>
<feColorMatrix in="SourceAlpha" type="matrix" values="0 0 0 0 0 0 0 0 0 0 0 0 0 0 0 0 0 0 127 0" result="hardAlpha"/>
<feOffset dy="2"/>
<feGaussianBlur stdDeviation="3.5"/>
<feColorMatrix type="matrix" values="0 0 0 0 0 0 0 0 0 0 0 0 0 0 0 0 0 0 0.25 0"/>
<feBlend mode="normal" in2="BackgroundImageFix" result="effect1_dropShadow_191_3168"/>
<feBlend mode="normal" in="SourceGraphic" in2="effect1_dropShadow_191_3168" result="shape"/>
</filter>
</defs>
</svg>
