<svg width="84" height="512" viewBox="0 0 84 512" fill="none" xmlns="http://www.w3.org/2000/svg">
<rect x="0.5" y="0.5" width="83" height="511" rx="4.5" fill="white"/>
<rect x="0.5" y="0.5" width="83" height="511" rx="4.5" stroke="#7B61FF" stroke-dasharray="10 5"/>
<rect x="31.5" y="21.5" width="21" height="21" rx="2.5" fill="white"/>
<rect x="31.5" y="21.5" width="21" height="21" rx="2.5" stroke="#8E9092"/>
<rect x="31.5" y="85.5" width="21" height="21" rx="2.5" fill="white"/>
<rect x="31.5" y="85.5" width="21" height="21" rx="2.5" stroke="#006FCF"/>
<rect x="31" y="149" width="22" height="22" rx="3" fill="#006FCF"/>
<path d="M40.4832 162.64L38.0453 160.059C37.7609 159.757 37.2862 159.744 36.985 160.028C36.6839 160.313 36.6703 160.787 36.9547 161.089L39.9547 164.265C40.2569 164.585 40.7682 164.577 41.0606 164.248L47.0605 157.498C47.3357 157.189 47.3079 156.715 46.9983 156.439C46.6887 156.164 46.2146 156.192 45.9394 156.502L40.4832 162.64Z" fill="white"/>
<rect x="31" y="213" width="22" height="22" rx="3" fill="#006FCF"/>
<path d="M47.25 223.25C47.6642 223.25 48 223.586 48 224C48 224.414 47.6642 224.75 47.25 224.75H36.75C36.3358 224.75 36 224.414 36 224C36 223.586 36.3358 223.25 36.75 223.25H47.25Z" fill="white"/>
<rect x="31.5" y="277.5" width="21" height="21" rx="2.5" fill="#F7F8F9"/>
<rect x="31.5" y="277.5" width="21" height="21" rx="2.5" stroke="#C8C9C7"/>
<rect x="31" y="341" width="22" height="22" rx="3" fill="#C8C9C7"/>
<path d="M40.4832 354.64L38.0453 352.059C37.7609 351.757 37.2862 351.744 36.985 352.028C36.6839 352.313 36.6703 352.787 36.9547 353.089L39.9547 356.265C40.2569 356.585 40.7682 356.577 41.0606 356.248L47.0605 349.498C47.3357 349.189 47.3079 348.715 46.9983 348.439C46.6887 348.164 46.2146 348.192 45.9394 348.502L40.4832 354.64Z" fill="white"/>
<rect x="31" y="405" width="22" height="22" rx="3" fill="#C8C9C7"/>
<path d="M47.25 415.25C47.6642 415.25 48 415.586 48 416C48 416.414 47.6642 416.75 47.25 416.75H36.75C36.3358 416.75 36 416.414 36 416C36 415.586 36.3358 415.25 36.75 415.25H47.25Z" fill="white"/>
<rect x="31.5" y="469.5" width="21" height="21" rx="2.5" fill="white"/>
<rect x="31.5" y="469.5" width="21" height="21" rx="2.5" stroke="#B42C01"/>
</svg>
